<svg xmlns="http://www.w3.org/2000/svg" width="495" height="415" fill="none"><path fill="#fff" d="M0 0h494.233v415H0z"/><path stroke="#B1B1B1" stroke-width=".5" d="M29.404 343.284V98.492m263.591 244.792V98.492M117.268 343.284V98.492" opacity=".5"/><path stroke="#B1B1B1" stroke-width=".5" d="M379.76 343.284V98.492"/><path stroke="#B1B1B1" stroke-width=".5" d="M205.131 343.284V98.492m262.493 244.792V98.492" opacity=".5"/><path fill="url(#a)" d="M29.654 117.612V344.24h437.121V160.629c-9.484-14.339-30.779-44.904-40.091-52.451-11.639-9.435-15.519 14.893-34.918 52.451-12.988 25.147-27.486 16.971-35.912 6.297-3.08-3.901-6.341-7.733-10.481-10.484-14.813-9.842-35.993 8.02-51.763-.201-2.46-1.282-4.723-4.065-6.598-8.886-11.614-29.877-51.655-18.511-76.165 2.148-4.762 4.014-9.236 7.834-12.999 11.126-18.508 16.189-24.445-1.618-40.508-22.34-16.064-20.722-33.524 4.209-44.349 9.066-10.825 4.856-21.65-18.779-24.095-24.284-2.445-5.504-16.762 1.619-24.095 0-.773-.17-1.48-.603-2.147-1.225-10.631-9.918-20.557-11.755-33-4.234Z"/><path fill="url(#b)" d="M466.775 225.92v118.319H29.655v-95.86c9.483-7.487 30.779-23.444 40.09-27.385 11.64-4.925 15.52 7.776 34.918 27.385 11.278 11.399 23.694 9.682 32.285 5.384 5.61-2.807 10.871-6.448 16.798-8.503 15.196-5.272 32.225 3.953 48.047 1.06 2.856-.522 5.492-2.008 7.624-4.872 3.597-4.831 9.441-8.292 15.642-10.708 13.771-5.363 28.952-1.845 42.525 4.002 10.746 4.629 22.629 9.815 30.998 13.637 18.508 8.452 24.444-.846 40.508-11.664 16.063-10.819 33.523 2.197 44.348 4.733 10.826 2.536 21.651-9.804 24.096-12.678 2.444-2.874 16.761.845 24.095 0 5.866-.676 10.643-4.713 18.871-4.27l16.275 1.42Z"/><path stroke="#3398F6" stroke-width="2" d="M29.654 117.869c12.437-7.687 22.506-6.059 32.896 4.229.697.689 1.438 1.17 2.25 1.353 7.334 1.655 21.651-5.628 24.096 0 2.444 5.628 13.27 29.793 24.095 24.828 10.825-4.966 28.285-30.456 44.349-9.269 16.063 21.186 22 39.393 40.508 22.841 3.763-3.366 8.238-7.272 13-11.376 24.467-21.086 64.685-32.388 76.164-2.196 1.863 4.898 4.109 7.738 6.551 9.06 15.713 8.506 37.142-9.733 51.922.307 4.067 2.763 7.259 6.58 10.247 10.484 8.408 10.991 22.983 19.556 36.034-6.279 19.399-38.4 23.279-63.273 34.918-53.628 9.312 7.717 30.607 38.968 40.091 53.628"/><path stroke="#32D9F6" stroke-width="2" d="m466.775 225.949-1.43-.453c-11.597-3.678-21.146.354-32.978 3.187-.24.057-.486.101-.738.131-7.334.849-21.651-2.888-24.095 0-2.445 2.888-13.27 15.288-24.096 12.74-10.825-2.548-28.285-15.628-44.348-4.756-16.064 10.872-22 20.215-40.508 11.721-5.712-2.621-13.061-5.881-20.568-9.165-20.401-8.927-44.976-16.335-62.985-3.235-2.176 1.583-4.094 3.386-5.612 5.435-2.131 2.876-4.765 4.37-7.619 4.895-15.826 2.915-32.871-6.356-48.067-1.059-5.916 2.062-11.164 5.709-16.759 8.528-8.592 4.328-21.021 6.068-32.309-5.399-19.399-19.705-23.278-32.469-34.918-27.52-9.311 3.96-30.607 19.997-40.09 27.52"/><path fill="#001726" d="M167.776 30c1.494 0 2.667.36 3.52 1.08.854.72 1.28 1.687 1.28 2.9 0 1.294-.426 2.287-1.28 2.98-.853.68-2.02 1.02-3.5 1.02l-.28.16h-2.84v5.06h-2.72V30h5.82Zm-.32 6.04c.774 0 1.347-.153 1.72-.46.387-.32.58-.806.58-1.46 0-.653-.193-1.133-.58-1.44-.373-.32-.946-.48-1.72-.48h-2.78v3.84h2.78Zm1.62.58 4.28 6.58h-3.1l-3.54-5.78 2.36-.8Zm10.239 6.78c-1.054 0-1.974-.206-2.76-.62a4.36 4.36 0 0 1-1.8-1.78c-.427-.773-.64-1.706-.64-2.8 0-1.093.213-2.027.64-2.8a4.396 4.396 0 0 1 1.78-1.78c.773-.413 1.653-.62 2.64-.62 1.013 0 1.873.207 2.58.62.706.4 1.246.954 1.62 1.66.373.694.56 1.487.56 2.38 0 .267-.007.52-.02.76-.014.24-.034.453-.06.64h-7.98v-1.9h6.78l-1.32.48c0-.84-.194-1.486-.58-1.94-.374-.453-.907-.68-1.6-.68-.507 0-.947.12-1.32.36-.36.24-.634.6-.82 1.08-.187.467-.28 1.06-.28 1.78 0 .707.1 1.293.3 1.76.213.453.506.794.88 1.02.386.227.846.34 1.38.34.586 0 1.06-.113 1.42-.34a2.3 2.3 0 0 0 .84-.94l2.18.84c-.214.52-.54.967-.98 1.34-.427.373-.94.66-1.54.86-.587.187-1.22.28-1.9.28Zm12.789-10.2h2.84l-3.8 10h-3.16l-3.8-10h2.92l2.48 7.9 2.52-7.9Zm8.481 10.2c-1.053 0-1.973-.206-2.76-.62a4.372 4.372 0 0 1-1.8-1.78c-.427-.773-.64-1.706-.64-2.8 0-1.093.213-2.027.64-2.8a4.402 4.402 0 0 1 1.78-1.78c.773-.413 1.653-.62 2.64-.62 1.013 0 1.873.207 2.58.62.707.4 1.247.954 1.62 1.66.373.694.56 1.487.56 2.38 0 .267-.007.52-.02.76a7.26 7.26 0 0 1-.06.64h-7.98v-1.9h6.78l-1.32.48c0-.84-.193-1.486-.58-1.94-.373-.453-.907-.68-1.6-.68-.507 0-.947.12-1.32.36-.36.24-.633.6-.82 1.08-.187.467-.28 1.06-.28 1.78 0 .707.1 1.293.3 1.76.213.453.507.794.88 1.02.387.227.847.34 1.38.34.587 0 1.06-.113 1.42-.34a2.3 2.3 0 0 0 .84-.94l2.18.84c-.213.52-.54.967-.98 1.34-.427.373-.94.66-1.54.86-.587.187-1.22.28-1.9.28Zm6.542-.2v-10h2.46l.16 3-.34-.32c.16-.653.413-1.193.76-1.62.347-.426.767-.74 1.26-.94a4.236 4.236 0 0 1 1.66-.32c.693 0 1.307.133 1.84.4.547.267.973.674 1.28 1.22.32.534.48 1.207.48 2.02v6.56h-2.74v-5.78c0-.853-.167-1.44-.5-1.76-.333-.333-.767-.5-1.3-.5-.373 0-.74.094-1.1.28-.347.174-.633.46-.86.86-.213.4-.32.934-.32 1.6v5.3h-2.74Zm15.463.2c-.667 0-1.267-.12-1.8-.36-.533-.24-.96-.62-1.28-1.14-.307-.533-.46-1.22-.46-2.06V33.2h2.74v5.98c0 .773.16 1.313.48 1.62.32.294.78.44 1.38.44.28 0 .553-.047.82-.14.267-.107.5-.267.7-.48a2.19 2.19 0 0 0 .5-.82c.12-.346.18-.753.18-1.22V33.2h2.74v10h-2.44l-.1-1.74c-.333.667-.793 1.16-1.38 1.48-.573.307-1.267.46-2.08.46Zm13.123 0c-1.053 0-1.973-.206-2.76-.62a4.372 4.372 0 0 1-1.8-1.78c-.426-.773-.64-1.706-.64-2.8 0-1.093.214-2.027.64-2.8a4.402 4.402 0 0 1 1.78-1.78c.774-.413 1.654-.62 2.64-.62 1.014 0 1.874.207 2.58.62.707.4 1.247.954 1.62 1.66.374.694.56 1.487.56 2.38 0 .267-.006.52-.02.76a7.26 7.26 0 0 1-.06.64h-7.98v-1.9h6.78l-1.32.48c0-.84-.193-1.486-.58-1.94-.373-.453-.906-.68-1.6-.68-.506 0-.946.12-1.32.36-.36.24-.633.6-.82 1.08-.186.467-.28 1.06-.28 1.78 0 .707.1 1.293.3 1.76.214.453.507.794.88 1.02.387.227.847.34 1.38.34.587 0 1.06-.113 1.42-.34a2.3 2.3 0 0 0 .84-.94l2.18.84c-.213.52-.54.967-.98 1.34-.426.373-.94.66-1.54.86a6.23 6.23 0 0 1-1.9.28Zm18.236-13.6c1.306 0 2.433.273 3.38.82.946.547 1.673 1.327 2.18 2.34.52 1.014.78 2.227.78 3.64 0 1.413-.26 2.627-.78 3.64-.507 1.014-1.234 1.793-2.18 2.34-.947.547-2.074.82-3.38.82-1.307 0-2.44-.273-3.4-.82-.947-.547-1.68-1.326-2.2-2.34-.507-1.013-.76-2.227-.76-3.64 0-1.413.253-2.627.76-3.64.52-1.013 1.253-1.793 2.2-2.34.96-.547 2.093-.82 3.4-.82Zm0 2.26c-.747 0-1.38.173-1.9.52-.52.347-.92.86-1.2 1.54-.267.667-.4 1.494-.4 2.48 0 .974.133 1.8.4 2.48.28.68.68 1.194 1.2 1.54.52.347 1.153.52 1.9.52.733 0 1.36-.173 1.88-.52.52-.346.913-.86 1.18-1.54.28-.68.42-1.506.42-2.48 0-.986-.14-1.813-.42-2.48-.267-.68-.66-1.193-1.18-1.54-.52-.346-1.147-.52-1.88-.52Zm15.004 1.14h2.84l-3.8 10h-3.16l-3.8-10h2.92l2.48 7.9 2.52-7.9Zm8.481 10.2c-1.054 0-1.974-.206-2.76-.62a4.36 4.36 0 0 1-1.8-1.78c-.427-.773-.64-1.706-.64-2.8 0-1.093.213-2.027.64-2.8a4.396 4.396 0 0 1 1.78-1.78c.773-.413 1.653-.62 2.64-.62 1.013 0 1.873.207 2.58.62.706.4 1.246.954 1.62 1.66.373.694.56 1.487.56 2.38 0 .267-.007.52-.02.76-.014.24-.034.453-.06.64h-7.98v-1.9h6.78l-1.32.48c0-.84-.194-1.486-.58-1.94-.374-.453-.907-.68-1.6-.68-.507 0-.947.12-1.32.36-.36.24-.634.6-.82 1.08-.187.467-.28 1.06-.28 1.78 0 .707.1 1.293.3 1.76.213.453.506.794.88 1.02.386.227.846.34 1.38.34.586 0 1.06-.113 1.42-.34a2.3 2.3 0 0 0 .84-.94l2.18.84c-.214.52-.54.967-.98 1.34-.427.373-.94.66-1.54.86-.587.187-1.22.28-1.9.28Zm6.542-.2v-10h2.38l.18 1.96c.266-.693.653-1.226 1.16-1.6.52-.373 1.166-.56 1.94-.56.226 0 .433.02.62.06.186.04.34.093.46.16l-.32 2.3a2.128 2.128 0 0 0-.5-.12 5.462 5.462 0 0 0-.74-.04c-.4 0-.787.1-1.16.3-.374.187-.68.48-.92.88-.24.387-.36.88-.36 1.48v5.18h-2.74Zm14.597-10h2.84l-3.8 10h-3.16l-3.8-10h2.92l2.48 7.9 2.52-7.9Zm5.338-1.44c-.573 0-1-.12-1.28-.36-.28-.253-.42-.62-.42-1.1 0-.493.14-.86.42-1.1.28-.253.707-.38 1.28-.38.573 0 1 .127 1.28.38.28.24.42.607.42 1.1 0 .48-.14.847-.42 1.1-.28.24-.707.36-1.28.36Zm1.36 1.44v10h-2.74v-10h2.74Zm7.145 10.2c-1.054 0-1.974-.206-2.76-.62a4.36 4.36 0 0 1-1.8-1.78c-.427-.773-.64-1.706-.64-2.8 0-1.093.213-2.027.64-2.8a4.396 4.396 0 0 1 1.78-1.78c.773-.413 1.653-.62 2.64-.62 1.013 0 1.873.207 2.58.62.706.4 1.246.954 1.62 1.66.373.694.56 1.487.56 2.38 0 .267-.007.52-.02.76-.014.24-.034.453-.06.64h-7.98v-1.9h6.78l-1.32.48c0-.84-.194-1.486-.58-1.94-.374-.453-.907-.68-1.6-.68-.507 0-.947.12-1.32.36-.36.24-.634.6-.82 1.08-.187.467-.28 1.06-.28 1.78 0 .707.1 1.293.3 1.76.213.453.506.794.88 1.02.386.227.846.34 1.38.34.586 0 1.06-.113 1.42-.34a2.3 2.3 0 0 0 .84-.94l2.18.84c-.214.52-.54.967-.98 1.34-.427.373-.94.66-1.54.86-.587.187-1.22.28-1.9.28Zm19.168-10.2h2.92l-3.2 10h-3.16l-2.18-6.8-2.1 6.8h-3.16l-3.2-10h2.92l2 7.66 2.22-7.66h2.72l2.24 7.66 1.98-7.66Z"/><path fill="#696969" d="M186.387 69.506h-1.863l4.187-11.636h2.029l4.187 11.636h-1.864l-3.289-9.523h-.091l-3.296 9.523Zm.313-4.557h6.045v1.477H186.7V64.95Zm9.771 7.83v-12h1.659v1.414h.142a4.85 4.85 0 0 1 .426-.63 2.42 2.42 0 0 1 .773-.625c.33-.182.765-.273 1.307-.273.704 0 1.333.178 1.886.534.553.356.987.87 1.301 1.54.319.67.478 1.477.478 2.42 0 .944-.158 1.752-.472 2.426-.314.67-.746 1.188-1.295 1.552-.55.36-1.177.54-1.881.54-.53 0-.964-.09-1.301-.268a2.452 2.452 0 0 1-.784-.625 4.663 4.663 0 0 1-.438-.636h-.102v4.63h-1.699Zm1.665-7.637c0 .614.089 1.152.267 1.614.178.462.435.824.773 1.085.337.258.75.387 1.238.387.508 0 .932-.135 1.273-.404.341-.273.598-.642.773-1.108.178-.466.267-.99.267-1.574 0-.575-.087-1.093-.262-1.55-.17-.46-.428-.821-.772-1.086-.341-.265-.767-.398-1.279-.398-.492 0-.909.127-1.25.38-.337.255-.593.609-.767 1.063-.174.455-.261.985-.261 1.591Zm8.21 4.364v-8.727h1.642v1.386h.091c.159-.47.439-.84.841-1.108.405-.273.864-.41 1.375-.41a7.242 7.242 0 0 1 .722.04v1.626a3.079 3.079 0 0 0-.364-.063 3.475 3.475 0 0 0-.523-.04 2.22 2.22 0 0 0-1.074.256 1.897 1.897 0 0 0-1.011 1.71v5.33h-1.699Zm14.403.159c-.78 0-1.477-.135-2.09-.404-.61-.268-1.093-.641-1.449-1.119a2.962 2.962 0 0 1-.568-1.67h1.784c.022.345.138.644.346.898.212.25.489.443.83.579a3.04 3.04 0 0 0 1.136.205c.458 0 .864-.08 1.216-.239.356-.16.634-.38.835-.665.201-.288.301-.62.301-.994 0-.39-.1-.733-.301-1.028-.197-.3-.486-.535-.869-.705-.379-.17-.837-.256-1.375-.256h-.983v-1.432h.983c.432 0 .811-.077 1.136-.233.33-.155.587-.37.773-.647.186-.28.278-.608.278-.983 0-.36-.081-.673-.244-.938a1.638 1.638 0 0 0-.682-.63c-.291-.152-.636-.228-1.034-.228-.379 0-.733.07-1.062.21a1.965 1.965 0 0 0-.796.591 1.521 1.521 0 0 0-.329.915h-1.699a2.866 2.866 0 0 1 .557-1.659c.356-.477.825-.85 1.409-1.12a4.585 4.585 0 0 1 1.943-.403c.746 0 1.39.146 1.932.438.545.288.966.672 1.261 1.153.299.481.447 1.008.443 1.58.004.651-.178 1.204-.545 1.659-.364.455-.849.76-1.455.915v.09c.773.118 1.372.425 1.796.921.428.496.64 1.112.636 1.847a2.872 2.872 0 0 1-.534 1.721c-.356.508-.843.907-1.46 1.2-.618.287-1.324.431-2.12.431Zm10.313.034c-.898-.004-1.665-.24-2.301-.71-.637-.47-1.123-1.154-1.46-2.051-.338-.898-.506-1.98-.506-3.245 0-1.261.168-2.339.506-3.233.341-.894.829-1.575 1.466-2.045.64-.47 1.405-.705 2.295-.705.89 0 1.653.237 2.29.71.636.47 1.123 1.152 1.46 2.046.341.89.511 1.966.511 3.227 0 1.27-.168 2.353-.505 3.25-.337.894-.824 1.578-1.461 2.052-.636.47-1.401.704-2.295.704Zm0-1.517c.788 0 1.403-.385 1.847-1.153.447-.77.67-1.881.67-3.336 0-.965-.102-1.782-.307-2.448-.201-.671-.49-1.178-.869-1.523a1.902 1.902 0 0 0-1.341-.523c-.784 0-1.4.386-1.847 1.16-.447.772-.672 1.884-.676 3.334 0 .97.101 1.79.301 2.46.205.667.495 1.173.87 1.518.375.34.825.511 1.352.511Zm15.676-5.233v1.477h-5.159V62.95h5.159Zm6.635-5.08h2.131l3.704 9.046h.137l3.704-9.046h2.131v11.637h-1.671v-8.42h-.108l-3.431 8.403h-1.387l-3.432-8.41h-.107v8.427h-1.671V57.87Zm16.763 11.83a3.563 3.563 0 0 1-1.5-.307 2.531 2.531 0 0 1-1.063-.903c-.257-.394-.386-.877-.386-1.449 0-.493.095-.898.284-1.216.189-.318.445-.57.767-.756a4.006 4.006 0 0 1 1.08-.42 10.69 10.69 0 0 1 1.216-.216l1.272-.148c.326-.041.563-.108.711-.199.147-.09.221-.238.221-.443v-.04c0-.496-.14-.88-.42-1.153-.277-.273-.69-.41-1.239-.41-.572 0-1.023.128-1.352.382-.326.25-.551.528-.676.835l-1.597-.364c.189-.53.466-.958.83-1.284.367-.33.789-.568 1.267-.716a4.944 4.944 0 0 1 1.505-.227c.349 0 .718.042 1.108.125.394.08.762.227 1.103.443.344.216.626.525.846.926.22.398.33.915.33 1.551v5.796h-1.659v-1.193h-.069c-.109.22-.274.435-.494.647-.22.213-.502.389-.847.529-.344.14-.757.21-1.238.21Zm.369-1.364c.47 0 .871-.092 1.205-.278a1.96 1.96 0 0 0 .767-.727c.178-.303.267-.627.267-.972v-1.125c-.061.06-.178.118-.352.17-.171.05-.366.093-.586.131-.219.034-.433.067-.642.097-.208.026-.382.05-.522.068-.33.042-.631.112-.904.21-.269.099-.485.24-.648.426-.159.182-.238.425-.238.728 0 .42.155.738.466.954.31.212.706.318 1.187.318Zm6.962 4.444a3.51 3.51 0 0 1-.693-.063 2.17 2.17 0 0 1-.466-.125l.409-1.392c.31.083.587.12.829.108a.991.991 0 0 0 .642-.273c.19-.17.356-.449.5-.835l.211-.58-3.194-8.84h1.819l2.21 6.772h.091l2.21-6.772h1.824l-3.597 9.892a3.943 3.943 0 0 1-.636 1.153 2.477 2.477 0 0 1-.921.716c-.356.159-.769.239-1.238.239Zm16.251-3.114c-.78 0-1.477-.135-2.091-.404-.61-.268-1.092-.641-1.449-1.119a2.977 2.977 0 0 1-.568-1.67h1.784c.023.345.139.644.347.898.212.25.489.443.829.579.341.136.72.205 1.137.205.458 0 .863-.08 1.216-.239.356-.16.634-.38.835-.665.201-.288.301-.62.301-.994 0-.39-.1-.733-.301-1.028-.197-.3-.487-.535-.869-.705-.379-.17-.837-.256-1.375-.256h-.983v-1.432h.983c.431 0 .81-.077 1.136-.233.33-.155.587-.37.773-.647.185-.28.278-.608.278-.983 0-.36-.081-.673-.244-.938a1.644 1.644 0 0 0-.682-.63c-.292-.152-.636-.228-1.034-.228-.379 0-.733.07-1.063.21a1.98 1.98 0 0 0-.795.591 1.522 1.522 0 0 0-.33.915h-1.698a2.872 2.872 0 0 1 .556-1.659c.356-.477.826-.85 1.409-1.12a4.593 4.593 0 0 1 1.944-.403c.746 0 1.39.146 1.931.438.546.288.966.672 1.262 1.153.299.481.447 1.008.443 1.58.004.651-.178 1.204-.545 1.659-.364.455-.849.76-1.455.915v.09c.773.118 1.371.425 1.795.921.429.496.641 1.112.637 1.847a2.872 2.872 0 0 1-.534 1.721c-.356.508-.843.907-1.46 1.2-.618.287-1.324.431-2.12.431Zm10.313.034c-.898-.004-1.665-.24-2.301-.71-.637-.47-1.124-1.154-1.461-2.051-.337-.898-.505-1.98-.505-3.245 0-1.261.168-2.339.505-3.233.341-.894.83-1.575 1.466-2.045.64-.47 1.406-.705 2.296-.705.89 0 1.653.237 2.289.71.637.47 1.124 1.152 1.461 2.046.341.89.511 1.966.511 3.227 0 1.27-.168 2.353-.506 3.25-.337.894-.823 1.578-1.46 2.052-.636.47-1.401.704-2.295.704Zm0-1.517c.788 0 1.403-.385 1.846-1.153.447-.77.671-1.881.671-3.336 0-.965-.103-1.782-.307-2.448-.201-.671-.491-1.178-.869-1.523a1.902 1.902 0 0 0-1.341-.523c-.784 0-1.4.386-1.847 1.16-.447.772-.672 1.884-.676 3.334 0 .97.1 1.79.301 2.46.205.667.494 1.173.869 1.518.375.34.826.511 1.353.511Z"/><circle cx="119" cy="380.941" r="5" fill="#3398F6"/><path fill="#696969" d="M129.959 385.441v-8.727h3.111c.679 0 1.241.124 1.687.371.446.247.78.585 1.002 1.014.221.426.332.906.332 1.44 0 .537-.112 1.02-.337 1.449a2.436 2.436 0 0 1-1.005 1.014c-.446.248-1.008.371-1.684.371h-2.139v-1.116h2.02c.429 0 .777-.074 1.044-.222a1.39 1.39 0 0 0 .588-.613c.125-.259.188-.553.188-.883a1.97 1.97 0 0 0-.188-.877 1.343 1.343 0 0 0-.592-.601c-.267-.145-.62-.218-1.057-.218h-1.653v7.598h-1.317Zm7.573 0v-6.545h1.232v1.04h.068c.119-.353.33-.63.631-.831a1.8 1.8 0 0 1 1.031-.307c.08 0 .173.003.281.008.111.006.198.013.26.022v1.219a2.106 2.106 0 0 0-.273-.047c-.13-.02-.261-.03-.392-.03a1.66 1.66 0 0 0-.805.192 1.418 1.418 0 0 0-.554.524 1.418 1.418 0 0 0-.205.758v3.997h-1.274Zm7.129.133c-.614 0-1.15-.141-1.607-.422a2.845 2.845 0 0 1-1.065-1.181c-.253-.505-.38-1.096-.38-1.772 0-.679.127-1.273.38-1.782a2.835 2.835 0 0 1 1.065-1.184c.457-.282.993-.422 1.607-.422.613 0 1.149.14 1.606.422.457.281.813.676 1.065 1.184.253.509.38 1.103.38 1.782 0 .676-.127 1.267-.38 1.772a2.845 2.845 0 0 1-1.065 1.181c-.457.281-.993.422-1.606.422Zm.004-1.07c.398 0 .727-.105.988-.315.262-.211.455-.49.58-.84.128-.349.192-.734.192-1.155a3.32 3.32 0 0 0-.192-1.15 1.866 1.866 0 0 0-.58-.848c-.261-.213-.59-.32-.988-.32-.401 0-.733.107-.997.32a1.896 1.896 0 0 0-.584.848 3.391 3.391 0 0 0-.188 1.15c0 .421.063.806.188 1.155.128.35.322.629.584.84.264.21.596.315.997.315Zm6.919 1.065c-.528 0-1-.135-1.415-.405-.412-.272-.735-.66-.971-1.163-.233-.506-.35-1.112-.35-1.82 0-.707.118-1.312.354-1.815.239-.503.565-.888.98-1.155a2.55 2.55 0 0 1 1.411-.4c.406 0 .733.068.98.204.25.134.443.29.579.469.14.179.248.337.324.473h.077v-3.243h1.274v8.727h-1.244v-1.018h-.107a3.31 3.31 0 0 1-.332.477 1.853 1.853 0 0 1-.588.469c-.25.133-.574.2-.972.2Zm.281-1.086c.367 0 .677-.097.929-.29.256-.196.449-.468.58-.814.133-.347.2-.75.2-1.21 0-.455-.065-.853-.196-1.194a1.747 1.747 0 0 0-.575-.796c-.253-.191-.565-.286-.938-.286-.383 0-.703.1-.958.298a1.83 1.83 0 0 0-.58.814 3.32 3.32 0 0 0-.192 1.164c0 .437.066.831.196 1.18.131.35.324.626.58.831.258.202.577.303.954.303Zm8.927-1.756v-3.831h1.278v6.545h-1.253v-1.133h-.068c-.15.349-.392.641-.724.873-.33.231-.74.346-1.232.346a2.22 2.22 0 0 1-1.116-.277 1.955 1.955 0 0 1-.759-.831c-.181-.367-.272-.82-.272-1.36v-4.163h1.274v4.01c0 .446.123.801.37 1.065.248.264.569.397.964.397.238 0 .475-.06.711-.179.239-.12.436-.3.593-.542.159-.241.237-.548.234-.92Zm5.747 2.847c-.633 0-1.179-.144-1.636-.431a2.854 2.854 0 0 1-1.048-1.197c-.245-.509-.367-1.091-.367-1.747 0-.665.125-1.252.375-1.76.25-.512.603-.911 1.057-1.198.455-.287.99-.43 1.607-.43.497 0 .94.092 1.329.277.389.182.703.437.942.767.241.329.385.714.43 1.155h-1.24a1.487 1.487 0 0 0-.468-.793c-.242-.222-.566-.332-.972-.332-.355 0-.666.093-.933.281-.265.184-.47.449-.618.792-.148.341-.222.745-.222 1.211 0 .477.073.889.218 1.235.144.347.349.616.613.806.267.19.581.285.942.285.241 0 .46-.044.656-.132.199-.091.365-.22.499-.388.136-.167.231-.369.285-.605h1.24a2.403 2.403 0 0 1-.413 1.134c-.23.332-.538.594-.925.784-.383.19-.834.286-1.351.286Zm7.107-6.678v1.023h-3.575v-1.023h3.575Zm-2.616-1.568h1.274v6.192c0 .247.037.433.111.558a.577.577 0 0 0 .285.251c.12.043.249.064.388.064.102 0 .192-.007.269-.021l.179-.034.23 1.052a2.023 2.023 0 0 1-.316.085 2.446 2.446 0 0 1-.511.052 2.258 2.258 0 0 1-.938-.179 1.616 1.616 0 0 1-.703-.58c-.179-.261-.268-.589-.268-.984v-6.456Zm8.041 8.113h-1.398l3.141-8.727h1.521l3.141 8.727h-1.398l-2.467-7.142h-.068l-2.472 7.142Zm.234-3.417h4.534v1.108h-4.534v-1.108Z"/><circle cx="313.001" cy="380.941" r="5" fill="#32D9F6"/><path fill="#696969" d="M323.96 385.441v-8.727h3.111c.679 0 1.241.124 1.687.371.446.247.78.585 1.002 1.014.221.426.332.906.332 1.44 0 .537-.112 1.02-.337 1.449a2.43 2.43 0 0 1-1.005 1.014c-.446.248-1.007.371-1.683.371h-2.14v-1.116h2.02c.429 0 .777-.074 1.044-.222a1.39 1.39 0 0 0 .588-.613c.125-.259.188-.553.188-.883a1.97 1.97 0 0 0-.188-.877 1.343 1.343 0 0 0-.592-.601c-.267-.145-.619-.218-1.057-.218h-1.653v7.598h-1.317Zm7.574 0v-6.545h1.231v1.04h.068c.12-.353.33-.63.631-.831a1.802 1.802 0 0 1 1.031-.307c.08 0 .173.003.281.008.111.006.198.013.26.022v1.219a2.115 2.115 0 0 0-.272-.047 2.597 2.597 0 0 0-.392-.03c-.302 0-.57.064-.806.192a1.424 1.424 0 0 0-.758 1.282v3.997h-1.274Zm7.128.133c-.614 0-1.149-.141-1.607-.422a2.852 2.852 0 0 1-1.065-1.181c-.253-.505-.379-1.096-.379-1.772 0-.679.126-1.273.379-1.782a2.842 2.842 0 0 1 1.065-1.184c.458-.282.993-.422 1.607-.422.613 0 1.149.14 1.606.422.458.281.813.676 1.066 1.184.252.509.379 1.103.379 1.782 0 .676-.127 1.267-.379 1.772a2.847 2.847 0 0 1-1.066 1.181c-.457.281-.993.422-1.606.422Zm.004-1.07c.398 0 .727-.105.989-.315.261-.211.454-.49.579-.84.128-.349.192-.734.192-1.155a3.32 3.32 0 0 0-.192-1.15 1.872 1.872 0 0 0-.579-.848c-.262-.213-.591-.32-.989-.32-.401 0-.733.107-.997.32a1.896 1.896 0 0 0-.584.848 3.392 3.392 0 0 0-.187 1.15c0 .421.062.806.187 1.155.128.35.322.629.584.84.264.21.596.315.997.315Zm6.919 1.065c-.528 0-1-.135-1.414-.405-.412-.272-.736-.66-.972-1.163-.233-.506-.349-1.112-.349-1.82 0-.707.117-1.312.353-1.815.239-.503.566-.888.98-1.155a2.55 2.55 0 0 1 1.411-.4c.406 0 .733.068.98.204.25.134.443.29.58.469.139.179.247.337.323.473h.077v-3.243h1.274v8.727h-1.244v-1.018h-.107a3.31 3.31 0 0 1-.332.477 1.853 1.853 0 0 1-.588.469c-.25.133-.574.2-.972.2Zm.282-1.086c.366 0 .676-.097.929-.29.255-.196.448-.468.579-.814.134-.347.2-.75.2-1.21 0-.455-.065-.853-.196-1.194a1.747 1.747 0 0 0-.575-.796c-.253-.191-.565-.286-.937-.286-.384 0-.703.1-.959.298a1.83 1.83 0 0 0-.58.814 3.32 3.32 0 0 0-.191 1.164c0 .437.065.831.196 1.18.13.35.323.626.579.831.259.202.577.303.955.303Zm8.926-1.756v-3.831h1.279v6.545h-1.253v-1.133h-.068a2.045 2.045 0 0 1-.725.873c-.329.231-.74.346-1.231.346-.421 0-.793-.093-1.117-.277a1.947 1.947 0 0 1-.758-.831c-.182-.367-.273-.82-.273-1.36v-4.163h1.274v4.01c0 .446.124.801.371 1.065.247.264.568.397.963.397.238 0 .476-.06.711-.179.239-.12.436-.3.593-.542.159-.241.237-.548.234-.92Zm5.748 2.847c-.634 0-1.179-.144-1.637-.431a2.854 2.854 0 0 1-1.048-1.197c-.244-.509-.366-1.091-.366-1.747 0-.665.125-1.252.375-1.76.25-.512.602-.911 1.056-1.198.455-.287.99-.43 1.607-.43.497 0 .94.092 1.329.277.39.182.704.437.942.767.242.329.385.714.431 1.155h-1.24a1.495 1.495 0 0 0-.469-.793c-.242-.222-.566-.332-.972-.332-.355 0-.666.093-.933.281a1.81 1.81 0 0 0-.618.792c-.148.341-.222.745-.222 1.211 0 .477.073.889.218 1.235.145.347.349.616.613.806.267.19.581.285.942.285.242 0 .46-.044.656-.132.199-.091.365-.22.499-.388.136-.167.232-.369.286-.605h1.24a2.415 2.415 0 0 1-.414 1.134c-.23.332-.538.594-.925.784-.383.19-.833.286-1.35.286Zm7.107-6.678v1.023h-3.576v-1.023h3.576Zm-2.617-1.568h1.274v6.192c0 .247.037.433.111.558a.575.575 0 0 0 .286.251c.119.043.248.064.387.064.103 0 .192-.007.269-.021l.179-.034.23 1.052a2.037 2.037 0 0 1-.315.085 2.456 2.456 0 0 1-.512.052 2.25 2.25 0 0 1-.937-.179 1.605 1.605 0 0 1-.703-.58c-.179-.261-.269-.589-.269-.984v-6.456Zm7.304 8.113v-8.727h3.196c.619 0 1.132.102 1.538.307.407.202.711.476.912.822.202.344.303.732.303 1.164 0 .363-.067.67-.2.92a1.664 1.664 0 0 1-.537.597 2.384 2.384 0 0 1-.733.324v.085c.289.014.572.108.848.281.278.171.508.413.69.729.182.315.273.699.273 1.15 0 .446-.105.847-.316 1.202-.207.352-.528.632-.963.84-.434.204-.99.306-1.666.306h-3.345Zm1.317-1.129h1.9c.631 0 1.083-.122 1.355-.366.273-.245.41-.55.41-.917 0-.275-.07-.528-.209-.758a1.494 1.494 0 0 0-.597-.55 1.916 1.916 0 0 0-.912-.204h-1.947v2.795Zm0-3.822h1.764c.295 0 .561-.057.797-.171a1.39 1.39 0 0 0 .567-.477c.142-.207.213-.452.213-.733 0-.361-.127-.663-.38-.908-.252-.244-.64-.366-1.163-.366h-1.798v2.655Z"/><defs><linearGradient id="a" x1="248.215" x2="248.215" y1="106.141" y2="344.24" gradientUnits="userSpaceOnUse"><stop stop-color="#3398F6" stop-opacity=".2"/><stop offset="1" stop-color="#3398F6" stop-opacity="0"/></linearGradient><linearGradient id="b" x1="248.215" x2="248.215" y1="219.931" y2="344.239" gradientUnits="userSpaceOnUse"><stop stop-color="#32D9F6" stop-opacity=".2"/><stop offset="1" stop-color="#32D9F6" stop-opacity="0"/></linearGradient></defs></svg>