<svg xmlns="http://www.w3.org/2000/svg" width="163" height="173" fill="none"><path fill="#fff" d="M.257.717h162.478v170.124H.257z"/><circle cx="81.054" cy="122.48" r="30.946" fill="#E7F3FE"/><path fill="#3348F6" d="M121.744 97.584c1.182-.724 1.56-2.273.778-3.418A50.214 50.214 0 0 0 85.68 72.48c-1.38-.128-2.553.955-2.611 2.34-.059 1.385 1.018 2.549 2.398 2.684a45.193 45.193 0 0 1 32.766 19.285c.788 1.14 2.328 1.518 3.511.794Z"/><path fill="#3291F6" d="M81.054 74.778c0-1.386-1.125-2.517-2.51-2.448a50.213 50.213 0 0 0-45.396 35.104c-.416 1.323.396 2.696 1.738 3.045 1.342.349 2.706-.459 3.128-1.779a45.19 45.19 0 0 1 40.53-31.341c1.385-.077 2.51-1.194 2.51-2.58Z"/><path fill="#3398F6" d="M122.378 98.652c1.201-.693 2.742-.283 3.374.95a50.204 50.204 0 0 1-1.579 48.609c-.71 1.191-2.275 1.5-3.429.73-1.153-.769-1.459-2.324-.755-3.519a45.192 45.192 0 0 0 1.407-43.307c-.625-1.238-.219-2.77.982-3.463Z"/><path fill="#32D9F6" d="M42.132 150.06c-1.131.802-2.704.538-3.448-.632a50.216 50.216 0 0 1-7.233-34.751c.215-1.37 1.552-2.239 2.91-1.956 1.357.284 2.22 1.614 2.012 2.985a45.192 45.192 0 0 0 6.414 30.815c.737 1.174.476 2.737-.655 3.539Z"/><path fill="#001726" d="M69.941 127.508c-.887 0-1.636-.183-2.248-.55-.601-.367-1.096-.928-1.483-1.682l1.896-.948c.133.448.341.81.627 1.085.285.276.703.413 1.254.413.377 0 .698-.066.963-.199a1.4 1.4 0 0 0 .612-.581c.153-.254.23-.565.23-.932 0-.367-.072-.673-.215-.918a1.253 1.253 0 0 0-.58-.566c-.256-.132-.577-.199-.964-.199a3.52 3.52 0 0 0-.75.077 2.003 2.003 0 0 0-.611.245 1.707 1.707 0 0 0-.49.412l-1.651-.305.627-5.597h6.101v1.697h-4.51l-.307 2.462-.045.199h.03c.214-.245.505-.433.872-.566a3.875 3.875 0 0 1 1.284-.199c.663 0 1.229.133 1.698.398.469.265.83.637 1.085 1.116.255.469.383 1.01.383 1.621 0 .581-.097 1.096-.29 1.545a2.967 2.967 0 0 1-.827 1.101 3.74 3.74 0 0 1-1.208.657 4.96 4.96 0 0 1-1.483.214Zm8.931 0c-1.295 0-2.294-.438-2.997-1.315-.694-.876-1.04-2.171-1.04-3.884s.347-3.007 1.04-3.884c.703-.877 1.702-1.315 2.997-1.315s2.289.438 2.982 1.315c.703.877 1.055 2.171 1.055 3.884s-.352 3.008-1.055 3.884c-.693.877-1.687 1.315-2.982 1.315Zm0-1.697c.438 0 .795-.122 1.07-.367.286-.255.5-.637.643-1.147.142-.52.214-1.183.214-1.988 0-.805-.072-1.463-.214-1.973-.143-.52-.357-.902-.643-1.146-.275-.255-.632-.383-1.07-.383-.438 0-.8.128-1.086.383-.285.244-.5.626-.642 1.146-.133.51-.199 1.168-.199 1.973 0 .805.067 1.468.199 1.988.143.51.357.892.642 1.147.286.245.648.367 1.086.367Zm7.107 1.544 6.805-10.092h1.682l-6.805 10.092h-1.682Zm.505-10.245c.55 0 1.024.117 1.422.352.407.234.718.565.932.994.225.428.337.927.337 1.498s-.112 1.071-.337 1.499a2.435 2.435 0 0 1-.932.994c-.398.234-.872.351-1.422.351-.54 0-1.015-.117-1.423-.351a2.541 2.541 0 0 1-.948-.994c-.214-.428-.32-.928-.32-1.499 0-.571.106-1.07.32-1.498.225-.429.54-.76.948-.994.408-.235.882-.352 1.422-.352Zm0 1.453c-.225 0-.418.056-.582.168a.923.923 0 0 0-.367.474 2.02 2.02 0 0 0-.122.749c0 .286.04.535.122.749.082.204.204.362.367.474.163.102.357.153.582.153.234 0 .428-.051.58-.153.164-.112.286-.27.368-.474.081-.214.122-.463.122-.749 0-.296-.04-.545-.122-.749a.924.924 0 0 0-.367-.474.958.958 0 0 0-.581-.168Zm7.462 3.257c.54 0 1.01.122 1.407.367.408.234.724.566.948.994.224.418.336.912.336 1.483 0 .571-.112 1.071-.336 1.499-.224.428-.54.759-.948.994-.398.234-.867.351-1.407.351s-1.014-.117-1.422-.351a2.415 2.415 0 0 1-.948-.994c-.214-.428-.321-.928-.321-1.499 0-.571.107-1.065.32-1.483.225-.428.541-.76.949-.994.408-.245.882-.367 1.422-.367Zm0 1.468c-.234 0-.433.056-.596.168a.96.96 0 0 0-.352.459 2.02 2.02 0 0 0-.122.749c0 .286.04.535.122.749.081.214.199.378.352.49.163.102.362.153.596.153.234 0 .428-.051.581-.153a1.01 1.01 0 0 0 .367-.49c.082-.214.122-.463.122-.749 0-.296-.04-.545-.122-.749a.926.926 0 0 0-.367-.459.958.958 0 0 0-.581-.168Z"/><path fill="#2E2E30" d="M36.284 27.186v-1.423a40.02 40.02 0 0 0 2.325-1.682c.642-.51 1.157-.978 1.544-1.407.398-.438.683-.85.856-1.238.184-.388.276-.775.276-1.163 0-.468-.143-.85-.428-1.146-.286-.306-.689-.46-1.209-.46-.57 0-1.02.195-1.345.582-.316.387-.49.938-.52 1.652l-1.82-.689c.051-.693.234-1.28.55-1.758.327-.49.765-.862 1.316-1.117.56-.265 1.203-.397 1.926-.397.622 0 1.158.086 1.606.26.459.173.836.413 1.132.719.306.295.535.637.688 1.024.153.387.23.79.23 1.208a3.72 3.72 0 0 1-.49 1.85c-.316.582-.806 1.158-1.468 1.729-.663.57-1.504 1.172-2.523 1.804v.015c.153-.01.336-.02.55-.03.225-.01.454-.016.688-.016.235-.01.439-.015.612-.015h2.783v1.698h-7.279Zm12.899 0V19.54h1.88l.077 1.376c.255-.51.602-.892 1.04-1.147a2.95 2.95 0 0 1 1.483-.382 2.9 2.9 0 0 1 1.484.382c.448.255.785.632 1.009 1.132.163-.337.382-.617.657-.841.276-.225.582-.393.918-.505a3.222 3.222 0 0 1 1.025-.168c.5 0 .953.102 1.36.305.419.204.75.51.995.918.244.408.367.928.367 1.56v5.015h-2.095v-4.602c0-.561-.123-.959-.367-1.193-.245-.235-.561-.352-.949-.352-.305 0-.59.077-.856.23a1.62 1.62 0 0 0-.612.688c-.142.295-.214.667-.214 1.116v4.114H54.29v-4.603c0-.561-.127-.959-.382-1.193-.245-.235-.56-.352-.948-.352-.265 0-.53.072-.795.214-.255.143-.47.367-.643.673-.163.306-.244.709-.244 1.208v4.053h-2.095Zm17.483-7.8c.775 0 1.453.159 2.034.475a3.34 3.34 0 0 1 1.376 1.36c.337.592.505 1.306.505 2.142 0 .825-.168 1.539-.505 2.14a3.34 3.34 0 0 1-1.376 1.361c-.58.316-1.259.474-2.034.474-.764 0-1.442-.158-2.034-.474a3.438 3.438 0 0 1-1.391-1.36c-.326-.602-.49-1.316-.49-2.142 0-.835.164-1.55.49-2.14.336-.592.8-1.045 1.391-1.361.592-.316 1.27-.474 2.034-.474Zm0 1.56c-.387 0-.718.092-.994.276-.265.173-.469.438-.611.795-.143.357-.214.805-.214 1.346 0 .54.07.988.214 1.345.142.357.346.627.611.81.276.174.607.26.994.26.377 0 .699-.086.964-.26.275-.183.484-.453.627-.81.142-.357.214-.805.214-1.345 0-.54-.072-.99-.214-1.346-.143-.357-.352-.622-.627-.795-.265-.184-.587-.276-.964-.276Zm5.21 6.24V19.54h1.82l.137 1.498c.204-.53.5-.938.887-1.223.397-.286.892-.428 1.483-.428.173 0 .331.015.474.046.143.03.26.07.352.122l-.245 1.758a1.614 1.614 0 0 0-.382-.091 4.17 4.17 0 0 0-.566-.03 1.85 1.85 0 0 0-.887.228 1.71 1.71 0 0 0-.703.673c-.184.296-.276.673-.276 1.132v3.96h-2.095Zm9.39.152c-.805 0-1.509-.158-2.11-.474a3.34 3.34 0 0 1-1.376-1.36c-.326-.592-.49-1.306-.49-2.142 0-.835.163-1.55.49-2.14a3.364 3.364 0 0 1 1.36-1.361c.592-.316 1.265-.474 2.02-.474.774 0 1.432.158 1.972.474.54.305.953.729 1.239 1.269.285.53.428 1.137.428 1.82 0 .204-.005.397-.016.58-.01.184-.025.347-.045.49h-6.102v-1.453h5.184l-1.01.367c0-.642-.147-1.136-.443-1.483-.285-.347-.693-.52-1.223-.52-.387 0-.724.092-1.01.275-.275.184-.484.46-.626.826-.143.357-.214.81-.214 1.361 0 .54.076.989.229 1.346.163.346.387.606.673.78.296.173.647.26 1.055.26.449 0 .81-.087 1.086-.26.275-.174.49-.413.642-.719l1.667.642c-.163.398-.413.74-.75 1.025a3.392 3.392 0 0 1-1.177.657 4.767 4.767 0 0 1-1.453.215Zm12.123 0a5.342 5.342 0 0 1-2.125-.412 3.949 3.949 0 0 1-1.545-1.163l1.208-1.223c.245.367.571.668.979.902.408.235.892.352 1.453.352.397 0 .713-.056.948-.168.245-.123.367-.311.367-.566 0-.163-.056-.3-.168-.413-.112-.122-.337-.22-.673-.29l-1.346-.276c-.887-.183-1.519-.459-1.896-.825-.367-.378-.55-.862-.55-1.453 0-.418.122-.81.366-1.178.255-.367.632-.662 1.132-.887.5-.234 1.121-.351 1.866-.351.764 0 1.427.122 1.987.367.571.234 1.02.586 1.346 1.055l-1.254 1.223a2.188 2.188 0 0 0-.887-.81 2.338 2.338 0 0 0-1.131-.29c-.286 0-.53.03-.734.09-.204.062-.357.149-.459.26a.538.538 0 0 0-.153.398.55.55 0 0 0 .214.429c.143.112.403.209.78.29l1.56.321c.754.153 1.294.413 1.62.78.327.357.49.79.49 1.3 0 .49-.132.928-.398 1.315-.254.377-.637.678-1.146.902-.5.214-1.117.322-1.85.322Zm7.314-10.138v7.493c0 .367.091.637.275.81.194.163.454.245.78.245.255 0 .479-.036.673-.107.193-.081.367-.189.52-.321l.336 1.392c-.245.193-.55.346-.917.458a3.961 3.961 0 0 1-1.163.168c-.509 0-.963-.076-1.36-.229a1.923 1.923 0 0 1-.918-.734c-.214-.336-.321-.785-.321-1.346v-7.248l2.095-.581Zm2.446 2.34v1.56h-5.948v-1.56h5.948Zm4.507 7.799c-.806 0-1.509-.159-2.111-.475a3.34 3.34 0 0 1-1.376-1.36c-.326-.592-.489-1.306-.489-2.142 0-.835.163-1.55.489-2.14a3.363 3.363 0 0 1 1.361-1.361c.591-.316 1.264-.474 2.019-.474.775 0 1.432.158 1.972.474.541.305.954.729 1.239 1.269.286.53.428 1.137.428 1.82 0 .204-.005.397-.015.58-.01.184-.026.347-.046.49h-6.101v-1.453h5.184l-1.01.367c0-.642-.148-1.136-.443-1.483-.286-.347-.693-.52-1.224-.52a1.83 1.83 0 0 0-1.009.275c-.275.184-.484.46-.627.826-.143.357-.214.81-.214 1.361 0 .54.077.989.23 1.346.163.346.387.606.672.78.296.173.648.26 1.056.26.448 0 .81-.087 1.085-.26.275-.174.49-.413.643-.719l1.666.642c-.163.398-.413.74-.749 1.025a3.395 3.395 0 0 1-1.177.657 4.77 4.77 0 0 1-1.453.215Zm4.849 3.058V19.54h1.881l.137 2.431-.259-.275c.091-.449.259-.847.504-1.193.255-.347.576-.617.964-.81.387-.204.82-.306 1.299-.306.622 0 1.178.158 1.667.474.49.316.872.77 1.147 1.36.286.582.428 1.29.428 2.126 0 .836-.142 1.555-.428 2.156-.285.592-.678 1.045-1.177 1.361-.49.316-1.05.474-1.683.474-.672 0-1.233-.188-1.682-.565a2.877 2.877 0 0 1-.902-1.422l.199-.322v5.368h-2.095Zm3.869-4.664c.561 0 .999-.199 1.315-.597.326-.407.489-.999.489-1.773 0-.775-.158-1.361-.474-1.759-.306-.408-.739-.612-1.3-.612a1.61 1.61 0 0 0-.948.29c-.265.184-.474.454-.627.811-.153.347-.229.77-.229 1.27 0 .489.071.912.214 1.269.143.357.347.632.612.825.275.184.591.276.948.276Zm8.318 1.605a5.346 5.346 0 0 1-2.126-.412 3.943 3.943 0 0 1-1.544-1.163l1.208-1.223c.245.367.571.668.979.902.407.235.892.352 1.452.352.398 0 .714-.056.948-.168.245-.123.367-.311.367-.566 0-.163-.056-.3-.168-.413-.112-.122-.336-.22-.673-.29l-1.345-.276c-.887-.183-1.519-.459-1.896-.825-.367-.378-.551-.862-.551-1.453 0-.418.122-.81.367-1.178.255-.367.632-.662 1.132-.887.499-.234 1.121-.351 1.865-.351.765 0 1.428.122 1.988.367.571.234 1.02.586 1.346 1.055l-1.254 1.223a2.186 2.186 0 0 0-.887-.81 2.339 2.339 0 0 0-1.132-.29c-.285 0-.53.03-.734.09a1.01 1.01 0 0 0-.458.26.538.538 0 0 0-.153.398.55.55 0 0 0 .214.429c.143.112.403.209.78.29l1.559.321c.755.153 1.295.413 1.621.78.327.357.49.79.49 1.3 0 .49-.133.928-.398 1.315-.255.377-.637.678-1.147.902-.499.214-1.116.322-1.85.322ZM58.44 36.2v7.493c0 .367.092.637.275.81.194.163.454.245.78.245.255 0 .48-.036.673-.107.194-.081.367-.189.52-.321l.336 1.392c-.244.193-.55.346-.917.458a3.957 3.957 0 0 1-1.162.169c-.51 0-.964-.077-1.361-.23a1.922 1.922 0 0 1-.918-.734c-.214-.336-.321-.785-.321-1.346v-7.248l2.095-.581Zm2.447 2.34v1.56h-5.949v-1.56h5.949Zm4.445-.153c.775 0 1.453.158 2.034.474a3.34 3.34 0 0 1 1.376 1.36c.336.592.505 1.306.505 2.142 0 .825-.169 1.539-.505 2.14a3.34 3.34 0 0 1-1.376 1.361c-.581.316-1.26.475-2.034.475-.765 0-1.443-.159-2.034-.475a3.438 3.438 0 0 1-1.392-1.36c-.326-.602-.489-1.316-.489-2.142 0-.835.163-1.55.49-2.14.336-.592.8-1.045 1.391-1.361.591-.316 1.27-.474 2.034-.474Zm0 1.56c-.387 0-.719.091-.994.275-.265.173-.47.438-.612.795-.142.357-.214.805-.214 1.345 0 .54.072.99.214 1.346.143.357.347.627.612.81.275.174.607.26.994.26.377 0 .698-.086.963-.26.275-.183.484-.453.627-.81.143-.357.214-.805.214-1.346 0-.54-.071-.988-.214-1.345-.142-.357-.352-.622-.627-.795-.265-.184-.586-.276-.963-.276Zm16.474-3.227.245 1.498h-.138a.569.569 0 0 0-.138-.015c-.469 0-.82.107-1.055.321-.234.204-.352.49-.352.857l-.856-.352c0-.408.082-.785.245-1.132.163-.357.402-.642.718-.856.327-.214.714-.321 1.163-.321h.168Zm-2.508 8.028c.826 0 1.463.178 1.912.535.448.357.672.857.672 1.499 0 .581-.168 1.07-.504 1.468-.337.408-.81.714-1.422.917-.602.204-1.3.306-2.095.306-1.316 0-2.279-.183-2.89-.55-.602-.367-.903-.846-.903-1.438 0-.418.158-.77.474-1.055.326-.285.862-.443 1.606-.474l-.077.245c-.53-.092-.938-.265-1.223-.52-.275-.265-.413-.627-.413-1.086 0-.469.179-.851.535-1.147.367-.306.862-.484 1.484-.535l.917.428h-.214c-.438.03-.75.123-.933.276-.173.142-.26.305-.26.489a.56.56 0 0 0 .245.49c.173.101.418.152.734.152h2.355Zm-1.422 3.288c.53 0 .963-.046 1.3-.138.346-.092.601-.209.764-.352.174-.142.26-.3.26-.474a.58.58 0 0 0-.23-.474c-.152-.112-.427-.168-.825-.168h-2.584a.991.991 0 0 0-.612.184.611.611 0 0 0-.23.504c0 .286.19.51.567.673.387.163.917.245 1.59.245Zm.015-9.65c.714 0 1.33.108 1.85.322.53.204.933.5 1.209.887.285.387.428.85.428 1.391 0 .53-.143.99-.428 1.377-.276.387-.678.688-1.209.902-.52.204-1.136.306-1.85.306-1.131 0-1.998-.23-2.6-.688-.59-.47-.886-1.102-.886-1.897 0-.54.137-1.004.412-1.391.286-.388.689-.683 1.209-.887.52-.214 1.141-.321 1.865-.321Zm0 1.316c-.408 0-.744.112-1.01.336-.264.224-.397.535-.397.933s.133.714.398.948c.265.224.601.337 1.01.337.407 0 .738-.113.993-.337.265-.234.398-.55.398-.948 0-.398-.133-.709-.398-.933-.255-.224-.586-.336-.994-.336Zm4.8 6.483V38.54h1.819l.138 1.5c.204-.531.5-.939.887-1.224.397-.286.892-.428 1.483-.428.173 0 .331.015.474.045.143.031.26.072.352.123l-.245 1.758a1.614 1.614 0 0 0-.382-.091 4.17 4.17 0 0 0-.566-.03 1.85 1.85 0 0 0-.887.228 1.71 1.71 0 0 0-.703.673c-.184.296-.276.673-.276 1.132v3.96H82.69Zm9.33-7.798c.774 0 1.452.158 2.033.474a3.34 3.34 0 0 1 1.376 1.36c.337.592.505 1.306.505 2.142 0 .825-.168 1.539-.505 2.14a3.34 3.34 0 0 1-1.376 1.361c-.581.316-1.26.475-2.034.475-.764 0-1.442-.159-2.034-.475a3.438 3.438 0 0 1-1.391-1.36c-.327-.602-.49-1.316-.49-2.142 0-.835.163-1.55.49-2.14.336-.592.8-1.045 1.391-1.361.591-.316 1.27-.474 2.034-.474Zm0 1.56c-.388 0-.72.091-.995.275-.265.173-.469.438-.612.795-.142.357-.214.805-.214 1.345 0 .54.072.99.214 1.346.143.357.347.627.612.81.275.174.607.26.994.26.377 0 .698-.086.964-.26.275-.183.484-.453.626-.81.143-.357.215-.805.215-1.346 0-.54-.072-.988-.215-1.345-.142-.357-.351-.622-.626-.795-.266-.184-.587-.276-.964-.276Zm14.862-1.408h2.233l-2.447 7.646h-2.416l-1.667-5.199-1.605 5.2h-2.417l-2.446-7.647h2.232l1.53 5.857 1.697-5.857h2.08l1.712 5.857 1.514-5.857Z"/></svg>