<svg xmlns="http://www.w3.org/2000/svg" width="496" height="372" fill="none"><path fill="#fff" d="M0 0h495.861v372H0z"/><path fill="#001726" d="M165.177 60.976V46.6h2.406v14.376h-2.406Zm12.854 0v-5.192c0-.34-.023-.715-.07-1.128a3.884 3.884 0 0 0-.329-1.188 2.246 2.246 0 0 0-.759-.948c-.333-.246-.785-.37-1.358-.37-.306 0-.608.05-.908.15-.299.1-.572.273-.819.52-.239.239-.432.572-.579.998-.146.419-.219.958-.219 1.617l-1.428-.61c0-.918.177-1.75.529-2.495a4.248 4.248 0 0 1 1.578-1.777c.692-.446 1.544-.669 2.555-.669.799 0 1.458.133 1.977.4.519.266.932.605 1.238 1.018.306.413.532.852.679 1.318.146.466.239.908.279 1.327.047.413.07.75.07 1.009v6.02h-2.436Zm-7.477 0V50.194h2.146v3.344h.29v7.438h-2.436Zm15.433 0-3.913-10.782h2.406l2.715 7.817 2.706-7.817h2.416l-3.914 10.782h-2.416Zm12.493.3c-1.078 0-2.02-.244-2.825-.73a5.008 5.008 0 0 1-1.877-2.006c-.439-.859-.659-1.844-.659-2.955 0-1.132.227-2.123.679-2.975a5.011 5.011 0 0 1 1.887-1.997c.805-.48 1.737-.719 2.795-.719 1.085 0 2.03.243 2.836.729a4.984 4.984 0 0 1 1.876 2.017c.446.852.669 1.833.669 2.945 0 1.118-.226 2.106-.678 2.965a5.009 5.009 0 0 1-1.877 2.006c-.806.48-1.747.72-2.826.72Zm0-2.257c.959 0 1.671-.32 2.137-.959.466-.638.699-1.464.699-2.475 0-1.045-.237-1.877-.709-2.496-.473-.626-1.181-.939-2.127-.939-.645 0-1.178.147-1.597.44-.413.286-.719.688-.918 1.208-.2.512-.3 1.108-.3 1.787 0 1.045.236 1.88.709 2.505.479.62 1.181.929 2.106.929Zm7.781-10.462V46.35h2.406v2.206h-2.406Zm0 12.419V50.194h2.406v10.782h-2.406Zm10.078.3c-1.111 0-2.06-.247-2.845-.74a4.919 4.919 0 0 1-1.807-2.036c-.413-.859-.622-1.83-.629-2.915.007-1.105.223-2.084.649-2.935a4.9 4.9 0 0 1 1.837-2.017c.792-.492 1.734-.739 2.825-.739 1.225 0 2.26.31 3.105.929.852.612 1.407 1.45 1.667 2.515l-2.396.65c-.186-.58-.496-1.029-.928-1.348a2.391 2.391 0 0 0-1.478-.49c-.625 0-1.141.15-1.547.45-.406.292-.706.698-.899 1.218-.193.519-.289 1.108-.289 1.767 0 1.025.229 1.853.689 2.486.459.632 1.141.948 2.046.948.639 0 1.142-.146 1.508-.44.372-.292.652-.715.838-1.267l2.456.549c-.333 1.098-.915 1.943-1.747 2.536-.832.585-1.85.878-3.055.878Zm11.412 0c-1.092 0-2.05-.237-2.875-.71a5.044 5.044 0 0 1-1.937-1.966c-.459-.839-.689-1.804-.689-2.895 0-1.179.226-2.2.679-3.065.453-.872 1.081-1.548 1.887-2.027.805-.48 1.737-.719 2.795-.719 1.118 0 2.067.263 2.845.789.786.519 1.368 1.255 1.747 2.206.38.952.523 2.073.43 3.364h-2.386v-.878c-.007-1.171-.213-2.027-.619-2.566-.406-.539-1.045-.808-1.917-.808-.985 0-1.717.306-2.196.918-.48.606-.719 1.494-.719 2.666 0 1.091.239 1.936.719 2.535.479.6 1.178.899 2.096.899.592 0 1.102-.13 1.528-.39.432-.266.765-.648.998-1.148l2.376.72c-.413.971-1.052 1.726-1.917 2.265a5.245 5.245 0 0 1-2.845.81Zm-3.714-5.023v-1.816h7.418v1.817h-7.418Zm20.141 5.022c-1.051 0-2-.183-2.845-.549a5.37 5.37 0 0 1-2.076-1.567c-.539-.686-.882-1.498-1.029-2.436l2.496-.38c.213.852.649 1.511 1.308 1.977.665.466 1.431.699 2.296.699.513 0 .995-.08 1.448-.24.452-.16.818-.392 1.098-.699a1.59 1.59 0 0 0 .429-1.128c0-.2-.033-.382-.1-.549a1.298 1.298 0 0 0-.299-.459 1.862 1.862 0 0 0-.499-.36 3.426 3.426 0 0 0-.699-.289l-3.714-1.098a10.45 10.45 0 0 1-1.038-.37 4.457 4.457 0 0 1-1.048-.648 3.327 3.327 0 0 1-.809-1.059c-.206-.432-.31-.964-.31-1.597 0-.925.233-1.7.699-2.326.473-.632 1.105-1.105 1.897-1.418.799-.312 1.684-.465 2.656-.459.985.007 1.863.177 2.635.51a5.007 5.007 0 0 1 1.937 1.427c.519.626.885 1.381 1.098 2.266l-2.586.45a2.794 2.794 0 0 0-.619-1.288 2.878 2.878 0 0 0-1.108-.819 3.724 3.724 0 0 0-2.725-.08c-.406.146-.736.36-.988.639-.247.28-.37.606-.37.978 0 .353.107.643.32.869.213.22.475.396.788.529.32.127.643.233.969.32l2.575.718c.353.093.749.22 1.188.38.44.16.862.382 1.268.669.406.286.739.662.999 1.128.266.465.399 1.058.399 1.777 0 .745-.157 1.4-.469 1.966a4.125 4.125 0 0 1-1.248 1.398 5.709 5.709 0 0 1-1.807.839 7.89 7.89 0 0 1-2.117.28Zm14.121-.3a9.825 9.825 0 0 1-2.096.17c-.679-.013-1.288-.136-1.827-.37a2.53 2.53 0 0 1-1.228-1.127 3.229 3.229 0 0 1-.39-1.428 62.03 62.03 0 0 1-.02-1.647v-9.374h2.396v9.234c0 .433.004.812.01 1.138.014.326.084.593.21.799.24.4.622.622 1.148.669.526.046 1.125.02 1.797-.08v2.017Zm-7.517-8.894v-1.887h7.517v1.887h-7.517Zm12.85 9.194c-.778 0-1.437-.146-1.976-.44-.539-.299-.949-.695-1.228-1.187a3.3 3.3 0 0 1-.409-1.627c0-.52.086-.985.259-1.398a2.75 2.75 0 0 1 .799-1.078c.359-.306.825-.556 1.397-.749.433-.14.939-.266 1.518-.38a35.54 35.54 0 0 1 1.897-.309c.685-.1 1.401-.206 2.146-.32l-.859.49c.007-.745-.159-1.295-.499-1.647-.339-.353-.911-.53-1.717-.53a3.11 3.11 0 0 0-1.407.34c-.453.226-.769.616-.949 1.168l-2.196-.689a4.081 4.081 0 0 1 1.517-2.196c.752-.553 1.764-.829 3.035-.829.959 0 1.801.157 2.526.47a3.137 3.137 0 0 1 1.627 1.537c.193.38.31.769.35 1.168.04.393.06.822.06 1.288v6.619h-2.107v-2.337l.35.38c-.486.779-1.055 1.35-1.708 1.717-.645.36-1.454.54-2.426.54Zm.48-1.917c.545 0 1.011-.096 1.397-.29.386-.192.692-.428.919-.708.233-.28.389-.542.469-.789.126-.306.196-.655.21-1.048.02-.4.03-.722.03-.968l.738.22a175.5 175.5 0 0 0-1.867.299c-.519.086-.965.17-1.337.25a8.556 8.556 0 0 0-.989.249c-.279.1-.515.216-.708.35a1.557 1.557 0 0 0-.45.459c-.1.173-.149.376-.149.609 0 .266.066.502.199.708.133.2.326.36.579.48.26.12.579.18.959.18Zm14.329 1.618a9.83 9.83 0 0 1-2.097.17c-.678-.014-1.287-.137-1.826-.37a2.526 2.526 0 0 1-1.228-1.128 3.215 3.215 0 0 1-.39-1.428 62.03 62.03 0 0 1-.02-1.647v-9.374h2.396v9.234c0 .433.004.812.01 1.138.014.326.083.593.21.799.24.4.622.622 1.148.669.526.046 1.125.02 1.797-.08v2.017Zm-7.517-8.895v-1.887h7.517v1.887h-7.517Zm10.035-3.525V46.35h2.406v2.206h-2.406Zm0 12.42V50.194h2.406v10.782h-2.406Zm9.559.3c-1.331 0-2.412-.3-3.244-.9-.832-.598-1.338-1.44-1.518-2.525l2.456-.38c.127.533.406.952.839 1.258.433.306.978.46 1.637.46.579 0 1.025-.114 1.338-.34.319-.233.479-.549.479-.948 0-.247-.06-.443-.18-.59-.113-.152-.366-.299-.758-.438a24 24 0 0 0-1.807-.53c-.905-.24-1.624-.495-2.157-.768-.532-.28-.915-.61-1.148-.989-.233-.379-.349-.838-.349-1.377 0-.673.176-1.258.529-1.757.353-.5.845-.882 1.477-1.148.633-.273 1.378-.41 2.237-.41.838 0 1.58.13 2.226.39.652.26 1.178.629 1.577 1.108.4.479.646 1.041.739 1.687l-2.456.44a1.544 1.544 0 0 0-.629-1.089c-.352-.266-.825-.416-1.417-.45-.566-.032-1.022.054-1.368.26-.346.2-.519.483-.519.849 0 .206.07.383.209.529.14.146.42.293.839.44.426.146 1.058.325 1.897.538.858.22 1.544.473 2.056.759.52.28.892.616 1.119 1.008.232.393.349.869.349 1.428 0 1.085-.396 1.937-1.188 2.556-.785.619-1.874.928-3.265.928Zm12.959-.3a9.83 9.83 0 0 1-2.097.17c-.678-.014-1.287-.137-1.826-.37a2.526 2.526 0 0 1-1.228-1.128 3.215 3.215 0 0 1-.39-1.428 62.03 62.03 0 0 1-.02-1.647v-9.374h2.396v9.234c0 .433.004.812.01 1.138.014.326.083.593.21.799.239.4.622.622 1.148.669.526.046 1.125.02 1.797-.08v2.017Zm-7.517-8.895v-1.887h7.517v1.887h-7.517Zm10.035-3.525V46.35h2.406v2.206h-2.406Zm0 12.42V50.194h2.406v10.782h-2.406Zm10.079.3c-1.112 0-2.06-.247-2.846-.74a4.926 4.926 0 0 1-1.807-2.036c-.412-.859-.622-1.83-.629-2.915.007-1.105.223-2.084.649-2.935a4.9 4.9 0 0 1 1.837-2.017c.792-.492 1.734-.739 2.825-.739 1.225 0 2.26.31 3.105.929.852.612 1.408 1.45 1.667 2.515l-2.396.65c-.186-.58-.495-1.029-.928-1.348a2.39 2.39 0 0 0-1.477-.49c-.626 0-1.142.15-1.548.45-.406.292-.705.698-.898 1.218-.193.519-.29 1.108-.29 1.767 0 1.025.23 1.853.689 2.486.459.632 1.141.948 2.047.948.638 0 1.141-.146 1.507-.44.373-.292.652-.715.839-1.267l2.455.549c-.332 1.098-.915 1.943-1.747 2.536-.832.585-1.85.878-3.054.878Zm10.965 0c-1.331 0-2.413-.3-3.245-.9-.831-.598-1.337-1.44-1.517-2.525l2.456-.38c.126.533.406.952.838 1.258.433.306.979.46 1.638.46.579 0 1.025-.114 1.337-.34.32-.233.48-.549.48-.948 0-.247-.06-.443-.18-.59-.113-.152-.366-.299-.759-.438-.392-.14-.995-.317-1.807-.53-.905-.24-1.624-.495-2.156-.768-.533-.28-.915-.61-1.148-.989-.233-.379-.35-.838-.35-1.377 0-.673.177-1.258.53-1.757.352-.5.845-.882 1.477-1.148.632-.273 1.378-.41 2.236-.41.839 0 1.581.13 2.227.39.652.26 1.178.629 1.577 1.108.399.479.645 1.041.739 1.687l-2.456.44c-.06-.46-.27-.823-.629-1.089-.353-.266-.825-.416-1.418-.45-.566-.032-1.021.054-1.367.26-.347.2-.52.483-.52.849 0 .206.07.383.21.529.14.146.419.293.839.44.426.146 1.058.325 1.896.538.859.22 1.544.473 2.057.759.519.28.892.616 1.118 1.008.233.393.349.869.349 1.428 0 1.085-.396 1.937-1.188 2.556-.785.619-1.873.928-3.264.928Z"/><mask id="a" fill="#fff"><path d="M217.048 264.596c-.359 1.044.196 2.185 1.248 2.52a89.335 89.335 0 0 0 98.965-31.952 89.322 89.322 0 0 0 15.017-32.089c.261-1.074-.425-2.141-1.504-2.377l-17.2-3.769c-1.079-.236-2.142.448-2.41 1.519a67.743 67.743 0 0 1-32.529 42.607 67.733 67.733 0 0 1-53.308 5.621c-1.055-.328-2.192.225-2.551 1.269l-5.728 16.651Z"/></mask><path fill="#3348F6" stroke="#3348F6" stroke-width="48.248" d="M217.048 264.596c-.359 1.044.196 2.185 1.248 2.52a89.335 89.335 0 0 0 98.965-31.952 89.322 89.322 0 0 0 15.017-32.089c.261-1.074-.425-2.141-1.504-2.377l-17.2-3.769c-1.079-.236-2.142.448-2.41 1.519a67.743 67.743 0 0 1-32.529 42.607 67.733 67.733 0 0 1-53.308 5.621c-1.055-.328-2.192.225-2.551 1.269l-5.728 16.651Z" mask="url(#a)"/><path fill="#32D9F6" d="M274.49 99.566a1.908 1.908 0 0 0-1.193-2.454 89.342 89.342 0 0 0-62.263 167.335 1.907 1.907 0 0 0 2.507-1.078l6.245-15.918c.391-.998-.102-2.121-1.088-2.54a68.363 68.363 0 0 1-2.234-124.815 68.36 68.36 0 0 1 49.862-3.19c1.021.327 2.128-.201 2.484-1.211l5.68-16.129Z"/><g filter="url(#b)"><mask id="c" fill="#fff"><path d="M334.975 198.136a1.966 1.966 0 0 0 2.415-1.443 89.342 89.342 0 0 0-55.702-104.061c-1.035-.387-2.176.166-2.54 1.21l-9.534 27.354c-.363 1.043.19 2.18 1.219 2.58a56.376 56.376 0 0 1 34.621 64.678c-.238 1.079.401 2.169 1.471 2.445l28.05 7.237Z"/></mask><path stroke="#3398F6" stroke-width="42.543" d="M334.975 198.136a1.966 1.966 0 0 0 2.415-1.443 89.342 89.342 0 0 0-55.702-104.061c-1.035-.387-2.176.166-2.54 1.21l-9.534 27.354c-.363 1.043.19 2.18 1.219 2.58a56.376 56.376 0 0 1 34.621 64.678c-.238 1.079.401 2.169 1.471 2.445l28.05 7.237Z" mask="url(#c)" shape-rendering="crispEdges"/></g><path fill="#001726" d="M224.616 180.497v-3.84h-7.92v-3.12l7.68-10.92h3.96v10.92h2.76v3.12h-2.76v3.84h-3.72Zm-5.208-5.616-.696-1.344h5.904v-8.04l.936.288-6.144 9.096Zm15.051 9.576v-1.8c.56-.128 1.016-.376 1.368-.744.368-.352.608-.824.72-1.416h-1.608v-3.6h3.6v2.088c0 1.52-.344 2.744-1.032 3.672-.688.928-1.704 1.528-3.048 1.8Zm9.736-3.96v-14.736h-3.48v-3.144h7.2v17.88h-3.72Zm7.683 0 6.024-7.704.6.84c-.224.096-.44.184-.648.264a3.648 3.648 0 0 1-.6.144 4.258 4.258 0 0 1-.648.048c-1.104 0-2.088-.248-2.952-.744a5.536 5.536 0 0 1-2.016-2.016c-.48-.864-.72-1.832-.72-2.904 0-1.184.272-2.232.816-3.144a5.86 5.86 0 0 1 2.256-2.16c.96-.528 2.056-.792 3.288-.792 1.248 0 2.344.264 3.288.792a5.743 5.743 0 0 1 2.256 2.112c.544.88.816 1.888.816 3.024 0 .56-.056 1.12-.168 1.68-.112.56-.336 1.176-.672 1.848-.336.656-.84 1.424-1.512 2.304l-4.968 6.408h-4.44Zm5.4-9.456c.496 0 .936-.112 1.32-.336.4-.224.72-.536.96-.936s.36-.864.36-1.392c0-.544-.12-1.016-.36-1.416-.24-.4-.56-.712-.96-.936a2.571 2.571 0 0 0-1.32-.336c-.48 0-.92.112-1.32.336-.4.224-.72.536-.96.936s-.36.872-.36 1.416c0 .528.12.992.36 1.392.24.4.56.712.96.936.4.224.84.336 1.32.336Zm14.82 9.744c-1.344 0-2.504-.248-3.48-.744-.96-.496-1.696-1.16-2.208-1.992a5.079 5.079 0 0 1-.768-2.712c0-1.168.304-2.144.912-2.928.624-.784 1.536-1.376 2.736-1.776l-.24.912c-.848-.256-1.528-.784-2.04-1.584a4.955 4.955 0 0 1-.744-2.664c0-.96.248-1.816.744-2.568s1.184-1.336 2.064-1.752c.88-.432 1.888-.648 3.024-.648 1.136 0 2.136.216 3 .648.88.416 1.568 1 2.064 1.752.512.752.768 1.608.768 2.568 0 .976-.248 1.864-.744 2.664s-1.176 1.336-2.04 1.608l-.216-.96c1.2.448 2.112 1.064 2.736 1.848.624.768.936 1.736.936 2.904 0 .976-.264 1.88-.792 2.712-.512.816-1.256 1.472-2.232 1.968-.976.496-2.136.744-3.48.744Zm0-3.12c.56 0 1.048-.104 1.464-.312.416-.208.736-.496.96-.864.24-.368.36-.792.36-1.272 0-.496-.12-.92-.36-1.272a2.143 2.143 0 0 0-.96-.84c-.416-.208-.904-.312-1.464-.312-.544 0-1.024.104-1.44.312-.4.192-.72.472-.96.84-.224.352-.336.776-.336 1.272 0 .48.112.904.336 1.272.24.368.56.656.96.864.416.208.896.312 1.44.312Zm0-7.992c.432 0 .8-.096 1.104-.288.32-.192.568-.448.744-.768.176-.32.264-.672.264-1.056 0-.4-.088-.76-.264-1.08a1.85 1.85 0 0 0-.744-.744c-.304-.192-.672-.288-1.104-.288-.416 0-.784.096-1.104.288a1.85 1.85 0 0 0-.744.744c-.176.32-.264.68-.264 1.08 0 .384.088.736.264 1.056.176.32.424.576.744.768.32.192.688.288 1.104.288Z"/><path fill="#696969" d="M227.924 200.497v-8.94h1.176v8.94h-1.176Zm3.032 0v-6.468h1.092v1.26l-.18-.108c.16-.408.416-.724.768-.948.36-.232.78-.348 1.26-.348.464 0 .876.104 1.236.312.368.208.656.496.864.864.216.368.324.784.324 1.248v4.188h-1.128v-3.828c0-.36-.064-.664-.192-.912a1.37 1.37 0 0 0-.552-.576 1.493 1.493 0 0 0-.804-.216c-.304 0-.576.072-.816.216a1.453 1.453 0 0 0-.552.588c-.136.248-.204.548-.204.9v3.828h-1.116Zm8.644 0-2.532-6.468h1.248l2.028 5.472h-.432l2.04-5.472h1.248l-2.544 6.468H239.6Zm7.553.144a3.35 3.35 0 0 1-1.692-.432 3.29 3.29 0 0 1-1.2-1.212c-.296-.512-.444-1.092-.444-1.74 0-.648.144-1.224.432-1.728a3.301 3.301 0 0 1 2.904-1.644c.624 0 1.188.148 1.692.444.504.288.9.684 1.188 1.188.296.504.444 1.084.444 1.74 0 .656-.152 1.24-.456 1.752a3.415 3.415 0 0 1-1.212 1.2 3.238 3.238 0 0 1-1.656.432Zm0-1.08c.4 0 .76-.1 1.08-.3.328-.2.584-.476.768-.828.192-.352.288-.744.288-1.176 0-.44-.096-.828-.288-1.164a2.094 2.094 0 0 0-.768-.816 1.939 1.939 0 0 0-1.08-.312c-.408 0-.776.104-1.104.312-.32.2-.576.472-.768.816a2.305 2.305 0 0 0-.288 1.164c0 .432.096.824.288 1.176.192.352.448.628.768.828.328.2.696.3 1.104.3Zm4.78.936v-6.468h1.116v6.468h-1.116Zm0-7.5v-1.44h1.116v1.44h-1.116Zm5.847 7.644c-.632 0-1.196-.148-1.692-.444a3.167 3.167 0 0 1-1.152-1.212 3.542 3.542 0 0 1-.42-1.728c0-.648.14-1.224.42-1.728.28-.504.664-.904 1.152-1.2.496-.296 1.06-.444 1.692-.444.424 0 .82.076 1.188.228.368.152.692.356.972.612s.484.556.612.9l-.996.48a1.91 1.91 0 0 0-.696-.816 1.85 1.85 0 0 0-1.08-.324c-.392 0-.748.1-1.068.3-.312.2-.56.472-.744.816a2.48 2.48 0 0 0-.276 1.188c0 .432.092.824.276 1.176.184.344.432.616.744.816.32.2.676.3 1.068.3.408 0 .768-.104 1.08-.312.312-.216.544-.5.696-.852l.996.504a2.406 2.406 0 0 1-.612.9c-.28.256-.604.46-.972.612a3.081 3.081 0 0 1-1.188.228Zm7.207 0c-.624 0-1.18-.148-1.668-.444a3.167 3.167 0 0 1-1.152-1.212 3.61 3.61 0 0 1-.42-1.74c0-.648.136-1.224.408-1.728.28-.504.656-.9 1.128-1.188a3.002 3.002 0 0 1 1.608-.444c.48 0 .904.088 1.272.264.376.168.692.4.948.696.264.288.464.62.6.996.144.368.216.752.216 1.152 0 .088-.008.188-.024.3-.008.104-.02.204-.036.3h-5.304v-.96h4.656l-.528.432c.072-.416.032-.788-.12-1.116a1.811 1.811 0 0 0-1.68-1.068c-.376 0-.72.096-1.032.288a1.949 1.949 0 0 0-.732.828c-.168.352-.236.772-.204 1.26-.032.472.04.888.216 1.248.184.352.44.628.768.828.336.192.7.288 1.092.288.432 0 .796-.1 1.092-.3.296-.2.536-.456.72-.768l.936.48a2.392 2.392 0 0 1-.6.816c-.264.24-.58.432-.948.576-.36.144-.764.216-1.212.216Z"/><path fill="#001726" d="M42.556 305.345v-7.86h-2.424v-1.08h6v1.08h-2.388v7.86h-1.188Zm6.806.144a3.35 3.35 0 0 1-1.692-.432 3.29 3.29 0 0 1-1.2-1.212c-.296-.512-.444-1.092-.444-1.74 0-.648.144-1.224.432-1.728a3.301 3.301 0 0 1 2.904-1.644c.624 0 1.188.148 1.692.444.504.288.9.684 1.188 1.188.296.504.444 1.084.444 1.74 0 .656-.152 1.24-.456 1.752a3.415 3.415 0 0 1-1.212 1.2 3.238 3.238 0 0 1-1.656.432Zm0-1.08c.4 0 .76-.1 1.08-.3.328-.2.584-.476.768-.828.192-.352.288-.744.288-1.176 0-.44-.096-.828-.288-1.164a2.094 2.094 0 0 0-.768-.816 1.939 1.939 0 0 0-1.08-.312c-.408 0-.776.104-1.104.312-.32.2-.576.472-.768.816a2.305 2.305 0 0 0-.288 1.164c0 .432.096.824.288 1.176.192.352.448.628.768.828.328.2.696.3 1.104.3Zm7.29 1.008c-.632 0-1.12-.18-1.464-.54-.336-.36-.504-.868-.504-1.524v-3.408h-1.176v-1.068h.24c.288 0 .516-.088.684-.264.168-.176.252-.408.252-.696v-.528H55.8v1.488h1.452v1.068H55.8v3.372c0 .216.032.404.096.564.072.16.188.288.348.384.16.088.372.132.636.132a2.1 2.1 0 0 0 .204-.012l.24-.024v.984a2.15 2.15 0 0 1-.348.048 2.684 2.684 0 0 1-.324.024Zm3.944.072c-.424 0-.8-.076-1.128-.228a1.936 1.936 0 0 1-.756-.648c-.184-.28-.276-.6-.276-.96 0-.344.072-.652.216-.924a1.9 1.9 0 0 1 .696-.708c.32-.192.72-.328 1.2-.408l2.4-.396v.936l-2.148.36c-.416.072-.72.204-.912.396a.984.984 0 0 0-.276.708.83.83 0 0 0 .312.66c.216.176.484.264.804.264.408 0 .76-.084 1.056-.252a1.88 1.88 0 0 0 .708-.708 1.89 1.89 0 0 0 .264-.984v-1.644c0-.352-.132-.636-.396-.852-.256-.224-.596-.336-1.02-.336-.368 0-.696.096-.984.288-.28.184-.488.432-.624.744l-.972-.504c.12-.296.312-.56.576-.792a3.037 3.037 0 0 1 2.028-.768c.496 0 .932.096 1.308.288.376.184.668.444.876.78.216.328.324.712.324 1.152v4.392H62.78v-1.224l.204.072c-.136.256-.32.48-.552.672a2.694 2.694 0 0 1-.816.456 2.998 2.998 0 0 1-1.02.168Zm5.006-.144v-9.084h1.116v9.084h-1.116Zm9.326.144a4.678 4.678 0 0 1-1.776-.336 4.495 4.495 0 0 1-1.452-.972 4.56 4.56 0 0 1-.96-1.464 4.84 4.84 0 0 1-.348-1.848c0-.672.116-1.288.348-1.848a4.56 4.56 0 0 1 .96-1.464 4.37 4.37 0 0 1 1.44-.96 4.71 4.71 0 0 1 1.788-.336c.64 0 1.232.116 1.776.348a4.211 4.211 0 0 1 1.44.96c.416.408.74.892.972 1.452.24.56.36 1.176.36 1.848a4.7 4.7 0 0 1-.36 1.848 4.462 4.462 0 0 1-.972 1.464 4.36 4.36 0 0 1-1.44.972 4.62 4.62 0 0 1-1.776.336Zm0-1.092c.496 0 .948-.088 1.356-.264.408-.184.76-.436 1.056-.756.304-.328.536-.704.696-1.128.168-.432.252-.892.252-1.38a3.68 3.68 0 0 0-.252-1.368 3.287 3.287 0 0 0-.696-1.116 3.013 3.013 0 0 0-1.056-.756 3.261 3.261 0 0 0-1.356-.276c-.488 0-.936.092-1.344.276a3.134 3.134 0 0 0-1.068.756c-.296.32-.528.692-.696 1.116a3.68 3.68 0 0 0-.252 1.368c0 .488.084.948.252 1.38.168.424.4.8.696 1.128.304.32.66.572 1.068.756.408.176.856.264 1.344.264Zm7.931.948-2.532-6.468h1.248l2.028 5.472h-.432l2.04-5.472h1.248l-2.544 6.468H82.86Zm7.458.144c-.624 0-1.18-.148-1.668-.444a3.167 3.167 0 0 1-1.152-1.212 3.61 3.61 0 0 1-.42-1.74c0-.648.136-1.224.408-1.728.28-.504.656-.9 1.128-1.188a3.002 3.002 0 0 1 1.608-.444c.48 0 .904.088 1.272.264.376.168.692.4.948.696.264.288.464.62.6.996.144.368.216.752.216 1.152 0 .088-.008.188-.024.3-.008.104-.02.204-.036.3h-5.304v-.96h4.656l-.528.432c.072-.416.032-.788-.12-1.116a1.811 1.811 0 0 0-1.68-1.068c-.376 0-.72.096-1.032.288a1.949 1.949 0 0 0-.732.828c-.168.352-.236.772-.204 1.26-.032.472.04.888.216 1.248.184.352.44.628.768.828.336.192.7.288 1.092.288.432 0 .796-.1 1.092-.3.296-.2.536-.456.72-.768l.936.48a2.392 2.392 0 0 1-.6.816c-.264.24-.58.432-.948.576-.36.144-.764.216-1.212.216Zm4.395-.144v-6.468h1.092v1.188l-.12-.168c.152-.368.384-.64.696-.816.312-.184.692-.276 1.14-.276h.396v1.056h-.564c-.456 0-.824.144-1.104.432-.28.28-.42.68-.42 1.2v3.852h-1.116Zm7.135.144a3.107 3.107 0 0 1-1.644-.444c-.48-.296-.86-.7-1.14-1.212a3.517 3.517 0 0 1-.42-1.716c0-.648.14-1.224.42-1.728.28-.512.66-.916 1.14-1.212a3.107 3.107 0 0 1 1.644-.444c.536 0 1.012.116 1.428.348.416.224.744.528.984.912l-.18.276v-4.008h1.128v9.084h-1.092v-1.38l.144.192a2.335 2.335 0 0 1-.984.984c-.424.232-.9.348-1.428.348Zm.096-1.08c.408 0 .772-.1 1.092-.3.32-.2.572-.472.756-.816.192-.352.288-.744.288-1.176 0-.44-.096-.832-.288-1.176a2.103 2.103 0 0 0-.756-.828c-.32-.2-.684-.3-1.092-.3-.4 0-.764.104-1.092.312-.32.2-.572.472-.756.816-.184.336-.276.728-.276 1.176 0 .432.092.824.276 1.176.184.344.436.616.756.816.32.2.684.3 1.092.3Zm7.283 1.08c-.464 0-.884-.108-1.26-.324a2.282 2.282 0 0 1-.864-.9c-.2-.392-.3-.84-.3-1.344v-4.044h1.116v3.924c0 .32.064.6.192.84.136.24.32.428.552.564.24.136.512.204.816.204.304 0 .572-.068.804-.204.24-.136.424-.332.552-.588.136-.256.204-.56.204-.912v-3.828h1.128v6.468h-1.092v-1.26l.18.108a1.883 1.883 0 0 1-.78.96c-.36.224-.776.336-1.248.336Zm7.645 0c-.624 0-1.18-.148-1.668-.444a3.167 3.167 0 0 1-1.152-1.212 3.61 3.61 0 0 1-.42-1.74c0-.648.136-1.224.408-1.728.28-.504.656-.9 1.128-1.188a3.002 3.002 0 0 1 1.608-.444c.48 0 .904.088 1.272.264.376.168.692.4.948.696.264.288.464.62.6.996.144.368.216.752.216 1.152 0 .088-.008.188-.024.3-.008.104-.02.204-.036.3h-5.304v-.96h4.656l-.528.432c.072-.416.032-.788-.12-1.116a1.811 1.811 0 0 0-1.68-1.068c-.376 0-.72.096-1.032.288a1.949 1.949 0 0 0-.732.828c-.168.352-.236.772-.204 1.26-.032.472.04.888.216 1.248.184.352.44.628.768.828.336.192.7.288 1.092.288.432 0 .796-.1 1.092-.3.296-.2.536-.456.72-.768l.936.48a2.392 2.392 0 0 1-.6.816c-.264.24-.58.432-.948.576-.36.144-.764.216-1.212.216Z"/><circle cx="60.5" cy="322.524" r="5" fill="#32D9F6"/><path fill="#696969" d="M75.767 328.024v-8.307h-1.842v-1.288h3.349v9.595h-1.507Zm3.42 0v-1.094l2.628-2.808c.516-.55.92-.992 1.211-1.327.3-.343.515-.644.644-.901.138-.258.206-.529.206-.812 0-.464-.142-.82-.425-1.069-.283-.258-.648-.386-1.095-.386-.463 0-.863.133-1.197.399-.335.258-.567.635-.696 1.133l-1.34-.386c.103-.507.31-.945.619-1.314a3.15 3.15 0 0 1 1.133-.876 3.519 3.519 0 0 1 1.468-.309c.61 0 1.142.116 1.597.348.456.223.808.537 1.057.94.257.404.386.872.386 1.404 0 .352-.069.696-.206 1.031-.129.326-.33.674-.605 1.043-.275.36-.627.768-1.056 1.223l-2.319 2.473h4.366v1.288h-6.375Zm11.679.155c-.765 0-1.434-.206-2.01-.618-.575-.421-1.026-1.001-1.352-1.739-.318-.747-.477-1.614-.477-2.602 0-.996.16-1.863.477-2.602.326-.738.773-1.313 1.34-1.726.575-.412 1.245-.618 2.009-.618.764 0 1.43.206 1.996.618.575.413 1.022.992 1.34 1.739.326.739.489 1.602.489 2.589 0 .988-.159 1.855-.477 2.602-.317.738-.764 1.318-1.339 1.739-.567.412-1.232.618-1.996.618Zm0-1.391c.472 0 .88-.146 1.223-.438.344-.292.61-.704.799-1.236.189-.533.283-1.164.283-1.894s-.094-1.361-.283-1.893c-.19-.533-.455-.945-.799-1.237a1.846 1.846 0 0 0-1.236-.438c-.473 0-.88.146-1.224.438-.343.292-.61.704-.799 1.237-.188.532-.283 1.163-.283 1.893 0 .721.095 1.353.284 1.894.188.532.455.944.798 1.236.352.292.764.438 1.237.438Zm9.219 1.391c-.764 0-1.434-.206-2.009-.618-.575-.421-1.026-1.001-1.352-1.739-.318-.747-.477-1.614-.477-2.602 0-.996.159-1.863.477-2.602.326-.738.772-1.313 1.34-1.726.575-.412 1.244-.618 2.008-.618.765 0 1.43.206 1.997.618.575.413 1.022.992 1.339 1.739.327.739.49 1.602.49 2.589 0 .988-.159 1.855-.477 2.602-.317.738-.764 1.318-1.339 1.739-.567.412-1.232.618-1.997.618Zm0-1.391c.473 0 .88-.146 1.224-.438.343-.292.61-.704.798-1.236.189-.533.284-1.164.284-1.894s-.095-1.361-.284-1.893c-.188-.533-.455-.945-.798-1.237a1.848 1.848 0 0 0-1.237-.438c-.472 0-.88.146-1.223.438-.344.292-.61.704-.799 1.237-.189.532-.283 1.163-.283 1.893 0 .721.094 1.353.283 1.894.19.532.455.944.799 1.236.352.292.764.438 1.236.438Z"/><path fill="#001726" d="M227.986 305.345v-7.86h-2.424v-1.08h6v1.08h-2.388v7.86h-1.188Zm6.806.144a3.35 3.35 0 0 1-1.692-.432 3.29 3.29 0 0 1-1.2-1.212c-.296-.512-.444-1.092-.444-1.74 0-.648.144-1.224.432-1.728a3.301 3.301 0 0 1 2.904-1.644c.624 0 1.188.148 1.692.444.504.288.9.684 1.188 1.188.296.504.444 1.084.444 1.74 0 .656-.152 1.24-.456 1.752a3.415 3.415 0 0 1-1.212 1.2 3.238 3.238 0 0 1-1.656.432Zm0-1.08c.4 0 .76-.1 1.08-.3.328-.2.584-.476.768-.828.192-.352.288-.744.288-1.176 0-.44-.096-.828-.288-1.164a2.094 2.094 0 0 0-.768-.816 1.939 1.939 0 0 0-1.08-.312c-.408 0-.776.104-1.104.312-.32.2-.576.472-.768.816a2.305 2.305 0 0 0-.288 1.164c0 .432.096.824.288 1.176.192.352.448.628.768.828.328.2.696.3 1.104.3Zm7.29 1.008c-.632 0-1.12-.18-1.464-.54-.336-.36-.504-.868-.504-1.524v-3.408h-1.176v-1.068h.24c.288 0 .516-.088.684-.264.168-.176.252-.408.252-.696v-.528h1.116v1.488h1.452v1.068h-1.452v3.372c0 .216.032.404.096.564.072.16.188.288.348.384.16.088.372.132.636.132a2.1 2.1 0 0 0 .204-.012l.24-.024v.984a2.15 2.15 0 0 1-.348.048 2.684 2.684 0 0 1-.324.024Zm3.944.072c-.424 0-.8-.076-1.128-.228a1.936 1.936 0 0 1-.756-.648c-.184-.28-.276-.6-.276-.96 0-.344.072-.652.216-.924a1.9 1.9 0 0 1 .696-.708c.32-.192.72-.328 1.2-.408l2.4-.396v.936l-2.148.36c-.416.072-.72.204-.912.396a.984.984 0 0 0-.276.708.83.83 0 0 0 .312.66c.216.176.484.264.804.264.408 0 .76-.084 1.056-.252a1.88 1.88 0 0 0 .708-.708 1.89 1.89 0 0 0 .264-.984v-1.644c0-.352-.132-.636-.396-.852-.256-.224-.596-.336-1.02-.336-.368 0-.696.096-.984.288-.28.184-.488.432-.624.744l-.972-.504c.12-.296.312-.56.576-.792a3.037 3.037 0 0 1 2.028-.768c.496 0 .932.096 1.308.288.376.184.668.444.876.78.216.328.324.712.324 1.152v4.392h-1.092v-1.224l.204.072c-.136.256-.32.48-.552.672a2.694 2.694 0 0 1-.816.456 2.998 2.998 0 0 1-1.02.168Zm5.007-.144v-9.084h1.116v9.084h-1.116Zm5.053 0v-8.94h3.156c.592 0 1.112.112 1.56.336.448.224.796.544 1.044.96.256.416.384.904.384 1.464 0 .56-.128 1.048-.384 1.464a2.58 2.58 0 0 1-1.044.96c-.44.224-.96.336-1.56.336h-1.98v3.42h-1.176Zm1.176-4.5h2.016c.36 0 .672-.068.936-.204.264-.136.468-.332.612-.588a1.78 1.78 0 0 0 .216-.888c0-.344-.072-.64-.216-.888a1.447 1.447 0 0 0-.612-.588 2.019 2.019 0 0 0-.936-.204h-2.016v3.36Zm7.878 4.644c-.424 0-.8-.076-1.128-.228a1.936 1.936 0 0 1-.756-.648c-.184-.28-.276-.6-.276-.96 0-.344.072-.652.216-.924a1.9 1.9 0 0 1 .696-.708c.32-.192.72-.328 1.2-.408l2.4-.396v.936l-2.148.36c-.416.072-.72.204-.912.396a.984.984 0 0 0-.276.708.83.83 0 0 0 .312.66c.216.176.484.264.804.264.408 0 .76-.084 1.056-.252a1.88 1.88 0 0 0 .708-.708 1.89 1.89 0 0 0 .264-.984v-1.644c0-.352-.132-.636-.396-.852-.256-.224-.596-.336-1.02-.336-.368 0-.696.096-.984.288-.28.184-.488.432-.624.744l-.972-.504c.12-.296.312-.56.576-.792a3.037 3.037 0 0 1 2.028-.768c.496 0 .932.096 1.308.288.376.184.668.444.876.78.216.328.324.712.324 1.152v4.392h-1.092v-1.224l.204.072c-.136.256-.32.48-.552.672a2.694 2.694 0 0 1-.816.456 2.998 2.998 0 0 1-1.02.168Zm5.006-.144v-6.468h1.116v6.468h-1.116Zm0-7.5v-1.44h1.116v1.44h-1.116Zm5.788 7.644a3.107 3.107 0 0 1-1.644-.444c-.48-.296-.86-.7-1.14-1.212a3.517 3.517 0 0 1-.42-1.716c0-.648.14-1.224.42-1.728.28-.512.66-.916 1.14-1.212a3.107 3.107 0 0 1 1.644-.444c.536 0 1.012.116 1.428.348.416.224.744.528.984.912l-.18.276v-4.008h1.128v9.084h-1.092v-1.38l.144.192a2.335 2.335 0 0 1-.984.984c-.424.232-.9.348-1.428.348Zm.096-1.08c.408 0 .772-.1 1.092-.3.32-.2.572-.472.756-.816.192-.352.288-.744.288-1.176 0-.44-.096-.832-.288-1.176a2.103 2.103 0 0 0-.756-.828c-.32-.2-.684-.3-1.092-.3-.4 0-.764.104-1.092.312-.32.2-.572.472-.756.816-.184.336-.276.728-.276 1.176 0 .432.092.824.276 1.176.184.344.436.616.756.816.32.2.684.3 1.092.3Z"/><circle cx="231.43" cy="322.524" r="5" fill="#3348F6"/><path fill="#696969" d="M245.074 328.024v-1.094l2.628-2.808c.515-.55.919-.992 1.211-1.327.3-.343.515-.644.644-.901a1.71 1.71 0 0 0 .206-.812c0-.464-.142-.82-.425-1.069-.284-.258-.649-.386-1.095-.386-.464 0-.863.133-1.198.399-.335.258-.567.635-.696 1.133l-1.339-.386c.103-.507.309-.945.618-1.314.309-.378.687-.67 1.134-.876a3.516 3.516 0 0 1 1.468-.309c.61 0 1.142.116 1.597.348.455.223.807.537 1.056.94.258.404.387.872.387 1.404 0 .352-.069.696-.207 1.031-.128.326-.33.674-.605 1.043-.275.36-.627.768-1.056 1.223l-2.318 2.473h4.366v1.288h-6.376Zm10.905.155c-.506 0-.983-.09-1.429-.271a3.495 3.495 0 0 1-1.16-.785 2.843 2.843 0 0 1-.695-1.211l1.275-.489c.163.455.429.803.799 1.043.369.24.772.361 1.21.361.361 0 .679-.082.953-.245.275-.163.49-.387.644-.67a1.9 1.9 0 0 0 .245-.966 1.86 1.86 0 0 0-.245-.966 1.636 1.636 0 0 0-.644-.657 1.83 1.83 0 0 0-.953-.245c-.36 0-.691.082-.992.245-.3.163-.519.382-.656.657l-1.224-.27.747-5.281h5.113v1.288h-4.52l.579-.631-.554 4.044-.476-.322c.257-.361.571-.623.94-.786.369-.163.79-.244 1.262-.244.627 0 1.172.141 1.636.425.472.274.837.652 1.095 1.133.266.472.399 1.009.399 1.61 0 .61-.146 1.159-.438 1.649a3.168 3.168 0 0 1-1.198 1.159c-.498.283-1.069.425-1.713.425Zm8.697 0c-.764 0-1.434-.206-2.009-.618-.575-.421-1.026-1.001-1.352-1.739-.318-.747-.477-1.614-.477-2.602 0-.996.159-1.863.477-2.602.326-.738.772-1.313 1.339-1.726.575-.412 1.245-.618 2.009-.618.765 0 1.43.206 1.997.618.575.413 1.022.992 1.339 1.739.327.739.49 1.602.49 2.589 0 .988-.159 1.855-.477 2.602-.318.738-.764 1.318-1.339 1.739-.567.412-1.233.618-1.997.618Zm0-1.391c.473 0 .88-.146 1.224-.438.343-.292.61-.704.798-1.236.189-.533.284-1.164.284-1.894s-.095-1.361-.284-1.893c-.188-.533-.455-.945-.798-1.237a1.848 1.848 0 0 0-1.237-.438c-.472 0-.88.146-1.223.438-.344.292-.61.704-.799 1.237-.189.532-.283 1.163-.283 1.893 0 .721.094 1.353.283 1.894.189.532.455.944.799 1.236.352.292.764.438 1.236.438Zm9.22 1.391c-.764 0-1.434-.206-2.009-.618-.576-.421-1.026-1.001-1.353-1.739-.317-.747-.476-1.614-.476-2.602 0-.996.159-1.863.476-2.602.327-.738.773-1.313 1.34-1.726.575-.412 1.245-.618 2.009-.618.764 0 1.43.206 1.997.618.575.413 1.021.992 1.339 1.739.326.739.489 1.602.489 2.589 0 .988-.158 1.855-.476 2.602-.318.738-.764 1.318-1.34 1.739-.566.412-1.232.618-1.996.618Zm0-1.391c.472 0 .88-.146 1.224-.438.343-.292.609-.704.798-1.236.189-.533.284-1.164.284-1.894s-.095-1.361-.284-1.893c-.189-.533-.455-.945-.798-1.237a1.848 1.848 0 0 0-1.237-.438c-.472 0-.88.146-1.223.438-.344.292-.61.704-.799 1.237-.189.532-.283 1.163-.283 1.893 0 .721.094 1.353.283 1.894.189.532.455.944.799 1.236.352.292.764.438 1.236.438Z"/><path fill="#001726" d="M387.417 305.345v-7.86h-2.424v-1.08h6v1.08h-2.388v7.86h-1.188Zm6.805.144a3.35 3.35 0 0 1-1.692-.432 3.29 3.29 0 0 1-1.2-1.212c-.296-.512-.444-1.092-.444-1.74 0-.648.144-1.224.432-1.728a3.301 3.301 0 0 1 2.904-1.644c.624 0 1.188.148 1.692.444.504.288.9.684 1.188 1.188.296.504.444 1.084.444 1.74 0 .656-.152 1.24-.456 1.752a3.415 3.415 0 0 1-1.212 1.2 3.238 3.238 0 0 1-1.656.432Zm0-1.08c.4 0 .76-.1 1.08-.3.328-.2.584-.476.768-.828.192-.352.288-.744.288-1.176 0-.44-.096-.828-.288-1.164a2.094 2.094 0 0 0-.768-.816 1.939 1.939 0 0 0-1.08-.312c-.408 0-.776.104-1.104.312-.32.2-.576.472-.768.816a2.305 2.305 0 0 0-.288 1.164c0 .432.096.824.288 1.176.192.352.448.628.768.828.328.2.696.3 1.104.3Zm7.291 1.008c-.632 0-1.12-.18-1.464-.54-.336-.36-.504-.868-.504-1.524v-3.408h-1.176v-1.068h.24c.288 0 .516-.088.684-.264.168-.176.252-.408.252-.696v-.528h1.116v1.488h1.452v1.068h-1.452v3.372c0 .216.032.404.096.564.072.16.188.288.348.384.16.088.372.132.636.132a2.1 2.1 0 0 0 .204-.012l.24-.024v.984a2.15 2.15 0 0 1-.348.048 2.684 2.684 0 0 1-.324.024Zm3.944.072c-.424 0-.8-.076-1.128-.228a1.936 1.936 0 0 1-.756-.648c-.184-.28-.276-.6-.276-.96 0-.344.072-.652.216-.924a1.9 1.9 0 0 1 .696-.708c.32-.192.72-.328 1.2-.408l2.4-.396v.936l-2.148.36c-.416.072-.72.204-.912.396a.984.984 0 0 0-.276.708.83.83 0 0 0 .312.66c.216.176.484.264.804.264.408 0 .76-.084 1.056-.252a1.88 1.88 0 0 0 .708-.708 1.89 1.89 0 0 0 .264-.984v-1.644c0-.352-.132-.636-.396-.852-.256-.224-.596-.336-1.02-.336-.368 0-.696.096-.984.288-.28.184-.488.432-.624.744l-.972-.504c.12-.296.312-.56.576-.792a3.037 3.037 0 0 1 2.028-.768c.496 0 .932.096 1.308.288.376.184.668.444.876.78.216.328.324.712.324 1.152v4.392h-1.092v-1.224l.204.072c-.136.256-.32.48-.552.672a2.694 2.694 0 0 1-.816.456 2.998 2.998 0 0 1-1.02.168Zm5.006-.144v-9.084h1.116v9.084h-1.116Zm8.294.144c-.648 0-1.224-.136-1.728-.408a3.005 3.005 0 0 1-1.164-1.116 3.252 3.252 0 0 1-.408-1.632v-5.928h1.188v5.904c0 .408.088.772.264 1.092.184.312.432.556.744.732.32.176.688.264 1.104.264.416 0 .78-.088 1.092-.264.32-.176.568-.42.744-.732a2.15 2.15 0 0 0 .276-1.092v-5.904h1.188v5.928c0 .608-.14 1.152-.42 1.632a2.919 2.919 0 0 1-1.152 1.116c-.496.272-1.072.408-1.728.408Zm5.1-.144v-6.468h1.092v1.26l-.18-.108c.16-.408.416-.724.768-.948.36-.232.78-.348 1.26-.348.464 0 .876.104 1.236.312.368.208.656.496.864.864.216.368.324.784.324 1.248v4.188h-1.128v-3.828c0-.36-.064-.664-.192-.912a1.37 1.37 0 0 0-.552-.576 1.493 1.493 0 0 0-.804-.216c-.304 0-.576.072-.816.216a1.453 1.453 0 0 0-.552.588c-.136.248-.204.548-.204.9v3.828h-1.116Zm6.961 2.4v-8.868h1.092v1.392l-.144-.276c.24-.384.568-.688.984-.912.416-.232.892-.348 1.428-.348.608 0 1.152.148 1.632.444.488.296.872.7 1.152 1.212.28.504.42 1.08.42 1.728 0 .632-.14 1.204-.42 1.716-.28.512-.664.916-1.152 1.212-.48.296-1.028.444-1.644.444a2.97 2.97 0 0 1-1.428-.348 2.428 2.428 0 0 1-.984-.984l.18-.192v3.78h-1.116Zm3.264-3.336c.408 0 .772-.1 1.092-.3.32-.2.568-.472.744-.816a2.5 2.5 0 0 0 .276-1.176c0-.448-.092-.84-.276-1.176a2.036 2.036 0 0 0-.744-.816 1.96 1.96 0 0 0-1.092-.312c-.408 0-.776.1-1.104.3-.32.2-.576.476-.768.828a2.454 2.454 0 0 0-.276 1.176c0 .432.092.824.276 1.176.192.344.448.616.768.816.328.2.696.3 1.104.3Zm6.66 1.08c-.424 0-.8-.076-1.128-.228a1.936 1.936 0 0 1-.756-.648c-.184-.28-.276-.6-.276-.96 0-.344.072-.652.216-.924a1.9 1.9 0 0 1 .696-.708c.32-.192.72-.328 1.2-.408l2.4-.396v.936l-2.148.36c-.416.072-.72.204-.912.396a.984.984 0 0 0-.276.708.83.83 0 0 0 .312.66c.216.176.484.264.804.264.408 0 .76-.084 1.056-.252a1.88 1.88 0 0 0 .708-.708 1.89 1.89 0 0 0 .264-.984v-1.644c0-.352-.132-.636-.396-.852-.256-.224-.596-.336-1.02-.336-.368 0-.696.096-.984.288-.28.184-.488.432-.624.744l-.972-.504c.12-.296.312-.56.576-.792a3.037 3.037 0 0 1 2.028-.768c.496 0 .932.096 1.308.288.376.184.668.444.876.78.216.328.324.712.324 1.152v4.392h-1.092v-1.224l.204.072c-.136.256-.32.48-.552.672a2.694 2.694 0 0 1-.816.456 2.998 2.998 0 0 1-1.02.168Zm5.006-.144v-6.468h1.116v6.468h-1.116Zm0-7.5v-1.44h1.116v1.44h-1.116Zm5.788 7.644a3.107 3.107 0 0 1-1.644-.444c-.48-.296-.86-.7-1.14-1.212a3.517 3.517 0 0 1-.42-1.716c0-.648.14-1.224.42-1.728.28-.512.66-.916 1.14-1.212a3.107 3.107 0 0 1 1.644-.444c.536 0 1.012.116 1.428.348.416.224.744.528.984.912l-.18.276v-4.008h1.128v9.084h-1.092v-1.38l.144.192a2.335 2.335 0 0 1-.984.984c-.424.232-.9.348-1.428.348Zm.096-1.08c.408 0 .772-.1 1.092-.3.32-.2.572-.472.756-.816.192-.352.288-.744.288-1.176 0-.44-.096-.832-.288-1.176a2.103 2.103 0 0 0-.756-.828c-.32-.2-.684-.3-1.092-.3-.4 0-.764.104-1.092.312-.32.2-.572.472-.756.816-.184.336-.276.728-.276 1.176 0 .432.092.824.276 1.176.184.344.436.616.756.816.32.2.684.3 1.092.3Z"/><circle cx="403.861" cy="322.524" r="5" fill="#3398F6"/><path fill="#696969" d="M421.935 328.024v-2.163h-4.572v-1.263l4.508-6.169h1.507v6.169h1.327v1.263h-1.327v2.163h-1.443Zm-3.452-2.872-.244-.554h3.696v-4.958l.412.128-3.864 5.384Zm8.134 2.872 3.284-4.25.258.167c-.12.129-.253.232-.399.31a1.582 1.582 0 0 1-.451.167 3.078 3.078 0 0 1-2.048-.335 2.97 2.97 0 0 1-1.082-1.082 3.172 3.172 0 0 1-.386-1.571c0-.61.141-1.151.425-1.623a3.089 3.089 0 0 1 1.159-1.121c.489-.274 1.047-.412 1.674-.412.636 0 1.194.138 1.675.412.489.275.871.653 1.146 1.134.283.472.425 1.013.425 1.623 0 .326-.034.648-.103.966a4.228 4.228 0 0 1-.361.991 7.386 7.386 0 0 1-.721 1.108l-2.679 3.516h-1.816Zm2.434-4.83a1.7 1.7 0 0 0 .889-.231c.258-.155.464-.365.618-.632.155-.266.232-.571.232-.914 0-.352-.077-.661-.232-.927a1.592 1.592 0 0 0-.631-.632 1.671 1.671 0 0 0-.876-.231 1.74 1.74 0 0 0-.888.231 1.622 1.622 0 0 0-.619.632 1.817 1.817 0 0 0-.231.927c0 .343.073.648.218.914.155.267.365.477.632.632.266.154.562.231.888.231Zm7.929 4.985c-.67 0-1.258-.129-1.764-.386a3.011 3.011 0 0 1-1.16-1.057 2.776 2.776 0 0 1-.412-1.481c0-.618.168-1.15.502-1.597.344-.455.825-.786 1.443-.992l-.064.387a2.195 2.195 0 0 1-1.082-.863 2.5 2.5 0 0 1-.387-1.353c0-.489.125-.927.374-1.313a2.69 2.69 0 0 1 1.043-.915 3.328 3.328 0 0 1 1.507-.335c.567 0 1.069.112 1.507.335.438.215.781.515 1.03.902.258.386.387.828.387 1.326 0 .507-.133.962-.399 1.366-.258.395-.61.678-1.057.85l-.064-.387c.618.215 1.099.546 1.443.992.343.447.515.979.515 1.597a2.71 2.71 0 0 1-.425 1.481c-.275.438-.666.79-1.172 1.057-.507.257-1.095.386-1.765.386Zm0-1.288c.369 0 .691-.069.966-.206.275-.146.49-.344.644-.593.155-.249.232-.541.232-.875 0-.335-.077-.627-.232-.876a1.562 1.562 0 0 0-.644-.58 2.141 2.141 0 0 0-.966-.206c-.361 0-.678.069-.953.206a1.568 1.568 0 0 0-.644.58 1.623 1.623 0 0 0-.232.876c0 .334.077.626.232.875.155.249.369.447.644.593.275.137.592.206.953.206Zm0-4.624c.275 0 .515-.056.721-.167.215-.121.382-.284.503-.49.12-.206.18-.438.18-.695 0-.267-.06-.498-.18-.696a1.222 1.222 0 0 0-.503-.476 1.396 1.396 0 0 0-.721-.181c-.266 0-.507.06-.721.181-.215.111-.382.27-.503.476-.12.198-.18.429-.18.696 0 .257.06.489.18.695.121.206.288.369.503.49.214.111.455.167.721.167Z"/><g filter="url(#d)"><rect width="73.4" height="23.92" x="140.359" y="126.242" fill="#D6EAFD" rx="11.96"/><path fill="#000" d="M150.111 142.702v-.938l2.252-2.407c.442-.471.788-.85 1.038-1.137.258-.294.442-.552.552-.773.118-.221.177-.453.177-.695 0-.398-.122-.703-.364-.917-.243-.221-.556-.331-.939-.331-.397 0-.74.114-1.027.342-.287.221-.485.545-.596.972l-1.148-.331c.088-.435.265-.81.53-1.126.265-.324.589-.575.972-.751.39-.177.809-.265 1.258-.265.523 0 .979.099 1.369.298.39.191.692.46.905.806.221.346.332.747.332 1.203a2.3 2.3 0 0 1-.177.883c-.11.28-.283.578-.519.895-.235.309-.537.658-.905 1.048l-1.987 2.12h3.742v1.104h-5.465Zm9.347.133c-.434 0-.842-.078-1.225-.232a3.011 3.011 0 0 1-.994-.674 2.446 2.446 0 0 1-.596-1.037l1.093-.42c.14.39.368.688.685.894.316.206.662.309 1.037.309.31 0 .582-.069.817-.209.236-.14.42-.332.552-.574.14-.243.21-.519.21-.828 0-.317-.07-.593-.21-.828a1.392 1.392 0 0 0-.552-.563 1.565 1.565 0 0 0-.817-.21c-.309 0-.592.07-.85.21a1.297 1.297 0 0 0-.563.563l-1.049-.232.641-4.527h4.383v1.104h-3.875l.496-.541-.474 3.467-.409-.276c.221-.309.49-.534.806-.673a2.65 2.65 0 0 1 1.082-.21c.537 0 1.005.121 1.402.364.405.236.718.559.939.972.228.404.342.864.342 1.38a2.701 2.701 0 0 1-1.402 2.406c-.427.243-.917.365-1.469.365Zm7.455 0c-.655 0-1.229-.177-1.722-.53-.493-.361-.88-.858-1.159-1.491-.273-.64-.409-1.383-.409-2.23 0-.854.136-1.597.409-2.23.279-.633.662-1.126 1.148-1.479.493-.353 1.067-.53 1.722-.53s1.225.177 1.711.53c.493.353.876.85 1.148 1.49.28.633.42 1.373.42 2.219 0 .847-.136 1.59-.409 2.23-.272.633-.655 1.13-1.148 1.491-.486.353-1.056.53-1.711.53Zm0-1.193a1.57 1.57 0 0 0 1.049-.375c.294-.25.522-.604.684-1.06.162-.456.243-.997.243-1.623 0-.625-.081-1.166-.243-1.623-.162-.456-.39-.809-.684-1.059a1.58 1.58 0 0 0-1.06-.376c-.405 0-.754.125-1.049.376-.294.25-.522.603-.684 1.059-.162.457-.243.998-.243 1.623 0 .618.081 1.159.243 1.623.162.456.39.81.684 1.06.302.25.655.375 1.06.375Zm7.903 1.193c-.655 0-1.229-.177-1.723-.53-.493-.361-.879-.858-1.159-1.491-.272-.64-.408-1.383-.408-2.23 0-.854.136-1.597.408-2.23.28-.633.663-1.126 1.148-1.479.493-.353 1.068-.53 1.723-.53s1.225.177 1.711.53c.493.353.876.85 1.148 1.49.28.633.419 1.373.419 2.219 0 .847-.136 1.59-.408 2.23-.272.633-.655 1.13-1.148 1.491-.486.353-1.056.53-1.711.53Zm0-1.193c.404 0 .754-.125 1.048-.375.295-.25.523-.604.685-1.06.162-.456.243-.997.243-1.623 0-.625-.081-1.166-.243-1.623-.162-.456-.39-.809-.685-1.059a1.576 1.576 0 0 0-1.059-.376c-.405 0-.755.125-1.049.376-.295.25-.523.603-.685 1.059-.162.457-.243.998-.243 1.623 0 .618.081 1.159.243 1.623.162.456.39.81.685 1.06.302.25.655.375 1.06.375Zm6.719 1.06v-8.225h2.992c.552 0 1.037.103 1.457.309.427.199.758.494.994.884.235.382.353.842.353 1.38 0 .53-.122.986-.364 1.369a2.34 2.34 0 0 1-.983.883c-.42.206-.905.309-1.457.309h-1.689v3.091h-1.303Zm1.303-4.25h1.722c.294 0 .552-.059.773-.177.22-.118.393-.28.519-.486.125-.213.187-.463.187-.75a1.4 1.4 0 0 0-.187-.74 1.241 1.241 0 0 0-.519-.486 1.618 1.618 0 0 0-.773-.176h-1.722v2.815Zm7.113 4.383c-.405 0-.762-.07-1.071-.21a1.76 1.76 0 0 1-.706-.596 1.608 1.608 0 0 1-.254-.906c0-.323.07-.614.209-.872.148-.257.372-.474.674-.651.302-.177.681-.302 1.137-.375l2.075-.343v.983l-1.832.32c-.331.059-.574.166-.729.32a.76.76 0 0 0-.232.574c0 .228.085.416.254.563.177.14.401.21.674.21.338 0 .633-.074.883-.221.257-.147.456-.342.596-.585.14-.25.21-.526.21-.828v-1.534a.892.892 0 0 0-.331-.718c-.214-.191-.501-.287-.862-.287-.331 0-.621.088-.872.265-.243.169-.423.39-.541.662l-1.037-.519c.11-.294.29-.552.541-.772.25-.229.541-.405.872-.53a3.063 3.063 0 0 1 1.071-.188c.471 0 .886.088 1.247.265.368.177.651.423.85.74.206.309.309.669.309 1.082v4.018h-1.192v-1.082l.254.033a2.22 2.22 0 0 1-.541.63c-.213.176-.46.312-.74.408a2.738 2.738 0 0 1-.916.144Zm4.594-.133v-5.972h1.248v5.972h-1.248Zm0-6.789v-1.436h1.248v1.436h-1.248Zm5.466 6.922a2.964 2.964 0 0 1-1.546-.409 3.093 3.093 0 0 1-1.07-1.126 3.254 3.254 0 0 1-.387-1.59c0-.588.133-1.118.398-1.589a2.995 2.995 0 0 1 1.071-1.115 2.869 2.869 0 0 1 1.523-.409c.478 0 .902.096 1.27.287.368.191.658.456.872.795l-.188.287v-3.621h1.237v8.357h-1.182v-1.214l.144.232c-.206.36-.501.636-.883.828a2.783 2.783 0 0 1-1.259.287Zm.122-1.16c.345 0 .655-.084.927-.253.28-.17.497-.402.651-.696.162-.302.243-.64.243-1.016 0-.375-.081-.71-.243-1.004a1.733 1.733 0 0 0-.651-.696 1.723 1.723 0 0 0-.927-.254c-.346 0-.659.085-.939.254-.28.169-.497.401-.651.696a2.12 2.12 0 0 0-.232 1.004c0 .376.077.714.232 1.016.154.294.368.526.64.696a1.8 1.8 0 0 0 .95.253Z"/><path fill="#D6EAFD" d="m176.699 155.684 3.585-6.21h-7.171l3.586 6.21Z"/></g><g filter="url(#e)"><path fill="#fff" d="M338.287 189.628c.162.387.007 1.854-.849 2.194-.855.34-1.948 0-1.948 0l-1.984-3.967-3.428 3.428v-15.482l10.501 10.501h-3.912c.192.368 1.415 2.834 1.62 3.326Z"/><path fill="#0A150F" fill-rule="evenodd" d="M331 178.02v11.04l2.76-2.76 2.3 4.6s.622.198.92 0c.298-.199.594-.599.46-.92-.633-1.519-2.3-4.6-2.3-4.6h3.22l-7.36-7.36Z" clip-rule="evenodd"/></g><defs><filter id="b" width="107.042" height="142.49" x="251.103" y="77.789" color-interpolation-filters="sRGB" filterUnits="userSpaceOnUse"><feFlood flood-opacity="0" result="BackgroundImageFix"/><feColorMatrix in="SourceAlpha" result="hardAlpha" values="0 0 0 0 0 0 0 0 0 0 0 0 0 0 0 0 0 0 127 0"/><feOffset dy="3.68"/><feGaussianBlur stdDeviation="9.2"/><feComposite in2="hardAlpha" operator="out"/><feColorMatrix values="0 0 0 0 0 0 0 0 0 0 0 0 0 0 0 0 0 0 0.2 0"/><feBlend in2="BackgroundImageFix" result="effect1_dropShadow_4048_240"/><feBlend in="SourceGraphic" in2="effect1_dropShadow_4048_240" result="shape"/></filter><filter id="d" width="147" height="103.041" x="107.239" y="93.122" color-interpolation-filters="sRGB" filterUnits="userSpaceOnUse"><feFlood flood-opacity="0" result="BackgroundImageFix"/><feColorMatrix in="SourceAlpha" result="hardAlpha" values="0 0 0 0 0 0 0 0 0 0 0 0 0 0 0 0 0 0 127 0"/><feOffset dx="3.68" dy="3.68"/><feGaussianBlur stdDeviation="18.4"/><feComposite in2="hardAlpha" operator="out"/><feColorMatrix values="0 0 0 0 0 0 0 0 0 0 0 0 0 0 0 0 0 0 0.14 0"/><feBlend in2="BackgroundImageFix" result="effect1_dropShadow_4048_240"/><feBlend in="SourceGraphic" in2="effect1_dropShadow_4048_240" result="shape"/></filter><filter id="e" width="13.813" height="19.484" x="328.422" y="175.065" color-interpolation-filters="sRGB" filterUnits="userSpaceOnUse"><feFlood flood-opacity="0" result="BackgroundImageFix"/><feColorMatrix in="SourceAlpha" result="hardAlpha" values="0 0 0 0 0 0 0 0 0 0 0 0 0 0 0 0 0 0 127 0"/><feOffset dy=".92"/><feGaussianBlur stdDeviation=".828"/><feColorMatrix values="0 0 0 0 0 0 0 0 0 0 0 0 0 0 0 0 0 0 0.65 0"/><feBlend in2="BackgroundImageFix" result="effect1_dropShadow_4048_240"/><feBlend in="SourceGraphic" in2="effect1_dropShadow_4048_240" result="shape"/></filter></defs></svg>