<svg xmlns="http://www.w3.org/2000/svg" width="276" height="269" fill="none"><path fill="#fff" d="M0 0h276v269H0z"/><path fill="#2E2E30" d="m19.99 36.282-3.33-11.636h2.687l1.926 8.085h.097l2.125-8.085h2.3l2.12 8.102h.102l1.927-8.102h2.687l-3.33 11.636h-2.397l-2.216-7.608h-.091l-2.21 7.608h-2.398Zm15.464.165a3.65 3.65 0 0 1-1.49-.29 2.396 2.396 0 0 1-1.033-.87c-.25-.386-.375-.867-.375-1.442 0-.485.089-.892.267-1.222.178-.33.42-.595.727-.795a3.522 3.522 0 0 1 1.046-.455 7.982 7.982 0 0 1 1.238-.216c.508-.053.917-.102 1.227-.148.311-.049.536-.12.677-.215a.475.475 0 0 0 .21-.42v-.035c0-.36-.114-.638-.341-.835-.224-.197-.542-.296-.955-.296-.435 0-.782.097-1.04.29-.257.19-.427.428-.51.716l-2.24-.182c.114-.53.338-.988.671-1.375.333-.39.763-.69 1.29-.898.53-.212 1.144-.318 1.84-.318.486 0 .95.057 1.393.17.447.114.843.29 1.187.53.349.238.623.545.824.92.201.37.301.816.301 1.335v5.886h-2.295v-1.21h-.068c-.14.273-.328.513-.563.722a2.603 2.603 0 0 1-.846.483c-.33.113-.71.17-1.142.17Zm.693-1.67c.356 0 .67-.07.943-.21a1.67 1.67 0 0 0 .642-.58c.155-.243.233-.517.233-.824v-.926c-.076.049-.18.094-.313.136a5.692 5.692 0 0 1-.437.108c-.163.03-.326.059-.489.085l-.443.063a2.996 2.996 0 0 0-.744.199 1.19 1.19 0 0 0-.495.369.9.9 0 0 0-.176.568c0 .33.12.582.358.756.243.17.55.255.92.255Zm10.741-7.222v1.818h-5.255v-1.818h5.255Zm-4.062-2.091h2.42V33.6c0 .224.034.398.102.523a.563.563 0 0 0 .285.256c.124.05.268.074.431.074.114 0 .228-.01.341-.029.114-.023.201-.04.262-.05l.38 1.8a6.821 6.821 0 0 1-.511.131c-.22.053-.487.085-.801.096-.584.023-1.095-.054-1.534-.232a2.14 2.14 0 0 1-1.017-.83c-.243-.375-.362-.848-.358-1.42v-8.455Zm9.488 10.989c-.894 0-1.663-.19-2.306-.569a3.841 3.841 0 0 1-1.478-1.59c-.34-.678-.511-1.459-.511-2.341 0-.894.172-1.678.517-2.353a3.84 3.84 0 0 1 1.483-1.585c.64-.382 1.401-.574 2.284-.574.761 0 1.428.139 2 .415a3.343 3.343 0 0 1 1.358 1.165c.333.5.517 1.087.551 1.761h-2.284c-.064-.435-.235-.786-.511-1.05-.273-.27-.631-.404-1.074-.404-.375 0-.703.102-.983.306-.277.201-.493.495-.648.881-.155.386-.233.854-.233 1.404 0 .556.076 1.03.227 1.42.156.39.373.688.654.892.28.205.608.307.983.307.276 0 .524-.057.744-.17.224-.114.407-.279.551-.495.148-.22.245-.483.29-.79h2.284c-.038.667-.22 1.254-.545 1.762a3.293 3.293 0 0 1-1.336 1.181c-.568.285-1.24.427-2.017.427Zm7.868-5.216v5.045h-2.42V24.646h2.352v4.449h.102a2.47 2.47 0 0 1 .955-1.21c.44-.296.99-.444 1.653-.444.606 0 1.135.133 1.585.398.455.261.807.638 1.057 1.13.254.49.38 1.075.375 1.756v5.557h-2.42v-5.125c.004-.538-.133-.956-.41-1.256-.272-.299-.655-.448-1.147-.448-.33 0-.621.07-.875.21a1.49 1.49 0 0 0-.59.613c-.141.266-.213.586-.217.96Zm9.985-6.591v11.636h-2.42V24.646h2.42Zm1.939 11.636v-8.727h2.42v8.727h-2.42Zm1.216-9.852c-.36 0-.67-.12-.927-.358a1.16 1.16 0 0 1-.38-.87c0-.333.126-.619.38-.857.258-.243.567-.364.927-.364.36 0 .666.121.92.364.257.238.386.524.386.858 0 .337-.129.627-.386.869-.254.239-.56.358-.92.358Zm10.404 3.614-2.216.136a1.14 1.14 0 0 0-.244-.511 1.297 1.297 0 0 0-.494-.37 1.68 1.68 0 0 0-.722-.142c-.375 0-.691.08-.949.239-.257.155-.386.363-.386.625 0 .208.083.384.25.528.167.144.453.26.858.347l1.58.318c.848.174 1.48.455 1.897.841.417.386.625.894.625 1.523 0 .572-.168 1.073-.505 1.505-.334.432-.792.77-1.376 1.012-.58.238-1.248.358-2.005.358-1.156 0-2.076-.24-2.762-.722a2.811 2.811 0 0 1-1.198-1.977l2.38-.125c.072.352.246.621.523.807.276.181.63.272 1.063.272.424 0 .765-.081 1.022-.244.262-.167.394-.38.398-.642a.668.668 0 0 0-.279-.54c-.181-.144-.462-.254-.84-.33l-1.512-.3c-.852-.17-1.487-.466-1.903-.887-.413-.42-.62-.956-.62-1.608 0-.56.152-1.043.455-1.449.307-.405.737-.717 1.29-.937.557-.22 1.208-.33 1.954-.33 1.103 0 1.97.233 2.603.7.636.465 1.007 1.1 1.113 1.903Zm6.365-2.489v1.818h-5.255v-1.818h5.255Zm-4.062-2.091h2.42V33.6c0 .224.034.398.103.523a.564.564 0 0 0 .284.256c.125.05.269.074.431.074.114 0 .228-.01.341-.029.114-.023.201-.04.262-.05l.38 1.8a6.821 6.821 0 0 1-.51.131c-.22.053-.488.085-.802.096-.583.023-1.095-.054-1.534-.232a2.14 2.14 0 0 1-1.017-.83c-.243-.375-.362-.848-.358-1.42v-8.455Zm-65.5 25.318h-2.825v-8.727h2.914c.855 0 1.59.175 2.204.524a3.455 3.455 0 0 1 1.41 1.496c.33.648.494 1.425.494 2.33 0 .91-.166 1.691-.498 2.345a3.499 3.499 0 0 1-1.432 1.508c-.625.35-1.38.524-2.267.524Zm-1.509-1.15h1.436c.665 0 1.218-.125 1.658-.375.44-.253.77-.618.989-1.096.218-.48.328-1.065.328-1.755 0-.685-.11-1.266-.328-1.743a2.317 2.317 0 0 0-.968-1.087c-.429-.247-.961-.37-1.598-.37H19.02v6.426Zm9.146 1.295c-.415 0-.79-.077-1.125-.23a1.895 1.895 0 0 1-.797-.678c-.193-.295-.29-.657-.29-1.086 0-.37.072-.673.214-.912.142-.239.334-.428.575-.567.242-.14.511-.244.81-.315.298-.071.602-.125.912-.162l.954-.111c.244-.031.422-.08.533-.15.11-.067.166-.178.166-.331v-.03c0-.372-.105-.66-.315-.865-.208-.205-.517-.307-.93-.307-.428 0-.766.095-1.014.285a1.537 1.537 0 0 0-.507.627l-1.197-.273c.142-.398.35-.719.622-.963a2.53 2.53 0 0 1 .95-.537 3.71 3.71 0 0 1 1.13-.17c.261 0 .538.03.83.093.296.06.572.17.827.333.259.162.47.393.635.694.165.299.247.686.247 1.164v4.346h-1.244v-.895h-.051a1.812 1.812 0 0 1-.37.486c-.166.16-.377.291-.636.396a2.46 2.46 0 0 1-.929.158Zm.277-1.023c.352 0 .654-.07.904-.208.252-.14.444-.321.575-.546.133-.227.2-.47.2-.729v-.843a.665.665 0 0 1-.264.127 3.98 3.98 0 0 1-.439.099c-.165.025-.325.05-.481.072l-.392.051a3.16 3.16 0 0 0-.678.158c-.202.074-.364.18-.486.32-.12.136-.179.318-.179.545 0 .315.117.554.35.716.233.159.53.238.89.238Zm4.65.878v-6.545h1.275v6.545h-1.275Zm.644-7.555a.81.81 0 0 1-.571-.222.72.72 0 0 1-.234-.537c0-.21.078-.389.234-.537a.803.803 0 0 1 .57-.225.79.79 0 0 1 .568.225.706.706 0 0 1 .238.537c0 .208-.08.387-.238.537a.795.795 0 0 1-.567.222Zm3.619-1.172v8.727h-1.274v-8.727h1.274Zm2.52 11.182c-.19 0-.364-.016-.52-.047a1.635 1.635 0 0 1-.35-.094l.307-1.044c.233.063.44.09.622.081a.745.745 0 0 0 .482-.205c.142-.127.267-.336.375-.626l.157-.434-2.395-6.631h1.364l1.658 5.08h.068l1.658-5.08h1.367l-2.697 7.419c-.125.34-.284.63-.477.865a1.853 1.853 0 0 1-.69.537c-.268.12-.577.179-.93.179Zm10.006-2.455h-1.398l3.141-8.727h1.521l3.141 8.727h-1.398l-2.467-7.142h-.068l-2.472 7.142Zm.235-3.417h4.534v1.108h-4.534v-1.108Zm12.107-3.128-2.373 6.545h-1.364l-2.378-6.545h1.368l1.658 5.037h.068l1.653-5.037h1.368Zm3.796 6.677c-.645 0-1.2-.138-1.666-.413a2.804 2.804 0 0 1-1.074-1.172c-.25-.506-.375-1.098-.375-1.777 0-.67.125-1.261.375-1.773.253-.511.605-.91 1.057-1.197.454-.287.986-.43 1.593-.43.37 0 .728.06 1.074.183a2.6 2.6 0 0 1 .934.575c.275.261.492.6.652 1.019.159.414.238.919.238 1.512v.452h-5.203v-.955h3.955a1.88 1.88 0 0 0-.205-.89 1.546 1.546 0 0 0-.575-.618 1.607 1.607 0 0 0-.861-.226c-.358 0-.67.088-.938.264-.264.174-.468.4-.613.682a1.968 1.968 0 0 0-.213.908v.745c0 .438.076.81.23 1.117.156.307.373.541.652.703.278.16.604.239.976.239.241 0 .461-.034.66-.102a1.37 1.37 0 0 0 .848-.831l1.206.217c-.096.355-.27.666-.52.933a2.52 2.52 0 0 1-.933.618 3.492 3.492 0 0 1-1.274.217Zm4.222-.132v-6.545h1.231v1.04h.069c.119-.353.33-.63.63-.831a1.804 1.804 0 0 1 1.032-.307 5.42 5.42 0 0 1 .54.03v1.218a2.284 2.284 0 0 0-.272-.047 2.6 2.6 0 0 0-.392-.03c-.301 0-.57.065-.805.192a1.425 1.425 0 0 0-.759 1.283v3.997h-1.274Zm6.452.145c-.415 0-.79-.077-1.125-.23a1.896 1.896 0 0 1-.797-.678c-.193-.295-.29-.657-.29-1.086 0-.37.071-.673.213-.912.142-.239.334-.428.575-.567a2.99 2.99 0 0 1 .81-.315 8.05 8.05 0 0 1 .912-.162l.954-.111c.245-.031.422-.08.533-.15.11-.067.166-.178.166-.331v-.03c0-.372-.105-.66-.315-.865-.207-.205-.517-.307-.929-.307-.429 0-.767.095-1.014.285-.245.188-.414.397-.507.627l-1.198-.273c.142-.398.35-.719.622-.963.276-.247.593-.426.95-.537a3.71 3.71 0 0 1 1.13-.17c.261 0 .538.03.83.093.296.06.572.17.828.333.258.162.47.393.635.694.164.299.247.686.247 1.164v4.346h-1.245v-.895h-.05a1.813 1.813 0 0 1-.372.486c-.164.16-.376.291-.634.396a2.461 2.461 0 0 1-.93.158Zm.277-1.023c.352 0 .653-.07.903-.208.253-.14.445-.321.575-.546.134-.227.2-.47.2-.729v-.843a.665.665 0 0 1-.264.127 3.98 3.98 0 0 1-.439.099c-.164.025-.325.05-.481.072l-.392.051a3.16 3.16 0 0 0-.678.158c-.201.074-.363.18-.486.32-.119.136-.178.318-.178.545 0 .315.116.554.349.716.233.159.53.238.89.238Zm7.394 3.47c-.52 0-.967-.069-1.342-.205a2.6 2.6 0 0 1-.912-.542 2.271 2.271 0 0 1-.529-.737l1.096-.452c.076.125.179.258.306.397.131.142.307.263.529.362.224.1.513.15.865.15.483 0 .882-.119 1.197-.355.316-.232.473-.605.473-1.116v-1.287h-.08c-.077.14-.188.294-.333.465-.142.17-.338.318-.588.443-.25.125-.575.187-.976.187-.517 0-.983-.12-1.398-.362-.412-.244-.738-.604-.98-1.078-.238-.477-.358-1.064-.358-1.76s.118-1.293.354-1.79c.239-.497.565-.878.98-1.142a2.55 2.55 0 0 1 1.41-.4c.407 0 .735.068.985.204.25.134.445.29.584.469.142.179.251.336.328.473h.094v-1.061h1.248v6.69c0 .563-.13 1.024-.392 1.385a2.31 2.31 0 0 1-1.06.801c-.444.173-.944.26-1.5.26Zm-.013-3.747c.367 0 .676-.085.93-.255.255-.174.448-.42.579-.742.133-.324.2-.711.2-1.163 0-.44-.065-.828-.196-1.163a1.728 1.728 0 0 0-.575-.785c-.253-.19-.566-.285-.938-.285-.383 0-.703.1-.959.298a1.8 1.8 0 0 0-.579.801 3.185 3.185 0 0 0-.192 1.134c0 .429.066.805.196 1.13.13.323.324.576.58.758.258.181.577.272.954.272Zm7.496 1.287c-.645 0-1.2-.138-1.666-.413a2.804 2.804 0 0 1-1.074-1.172c-.25-.506-.375-1.098-.375-1.777 0-.67.125-1.261.375-1.773.253-.511.605-.91 1.057-1.197.454-.287.986-.43 1.594-.43.369 0 .727.06 1.073.183a2.6 2.6 0 0 1 .934.575c.275.261.493.6.652 1.019.159.414.238.919.238 1.512v.452h-5.203v-.955h3.955a1.88 1.88 0 0 0-.205-.89 1.546 1.546 0 0 0-.575-.618 1.607 1.607 0 0 0-.86-.226c-.359 0-.671.088-.938.264-.265.174-.47.4-.614.682a1.968 1.968 0 0 0-.213.908v.745c0 .438.077.81.23 1.117.156.307.374.541.652.703.278.16.604.239.976.239.241 0 .462-.034.66-.102a1.37 1.37 0 0 0 .848-.831l1.206.217c-.096.355-.27.666-.52.933a2.52 2.52 0 0 1-.933.618 3.492 3.492 0 0 1-1.274.217Z"/><path fill="#3398F6" d="M205.61 41.282v-8.727h3.11c.679 0 1.242.123 1.688.37.446.248.78.586 1.001 1.015.222.426.333.906.333 1.44 0 .537-.112 1.02-.337 1.45a2.432 2.432 0 0 1-1.006 1.013c-.446.247-1.007.371-1.683.371h-2.139v-1.116h2.02c.429 0 .777-.074 1.044-.222.267-.15.463-.355.588-.614.125-.258.188-.552.188-.882 0-.33-.063-.622-.188-.878a1.343 1.343 0 0 0-.592-.6c-.267-.145-.62-.218-1.057-.218h-1.654v7.598h-1.316Zm7.573 0v-6.545h1.232v1.04h.068c.119-.353.329-.63.631-.831a1.803 1.803 0 0 1 1.031-.307 5.433 5.433 0 0 1 .541.03v1.218a2.27 2.27 0 0 0-.273-.047 2.59 2.59 0 0 0-.392-.03c-.301 0-.569.065-.805.192a1.422 1.422 0 0 0-.759 1.283v3.997h-1.274Zm4.606 0v-6.545h1.274v6.545h-1.274Zm.643-7.555a.81.81 0 0 1-.571-.222.72.72 0 0 1-.234-.537c0-.21.078-.389.234-.537a.802.802 0 0 1 .571-.225c.222 0 .411.075.567.225a.706.706 0 0 1 .239.537c0 .208-.08.387-.239.537a.794.794 0 0 1-.567.222Zm5.102 7.687c-.633 0-1.179-.143-1.636-.43a2.852 2.852 0 0 1-1.049-1.198c-.244-.508-.366-1.09-.366-1.747 0-.664.125-1.251.375-1.76a2.87 2.87 0 0 1 1.057-1.197c.454-.287.99-.43 1.606-.43.497 0 .941.092 1.33.276.389.182.703.438.942.768.241.33.385.714.43 1.154h-1.24a1.487 1.487 0 0 0-.469-.792c-.241-.222-.565-.333-.971-.333a1.58 1.58 0 0 0-.934.282 1.81 1.81 0 0 0-.618.792c-.147.341-.221.745-.221 1.21 0 .478.072.89.217 1.236.145.347.35.615.614.806.267.19.581.285.942.285.241 0 .46-.044.656-.132.199-.09.365-.22.498-.388.137-.167.232-.369.286-.605h1.24a2.405 2.405 0 0 1-.413 1.134 2.38 2.38 0 0 1-.925.784c-.384.19-.834.285-1.351.285Zm6.873 0c-.645 0-1.201-.138-1.667-.413a2.797 2.797 0 0 1-1.073-1.172c-.25-.506-.375-1.098-.375-1.777 0-.67.125-1.261.375-1.773a2.91 2.91 0 0 1 1.056-1.197c.455-.287.986-.43 1.594-.43.369 0 .727.06 1.074.183.347.122.658.314.933.575.276.261.493.6.652 1.019.159.414.239.919.239 1.512v.452h-5.203v-.955h3.954c0-.335-.068-.632-.204-.89a1.546 1.546 0 0 0-.576-.618 1.605 1.605 0 0 0-.86-.226c-.358 0-.671.088-.938.264-.264.174-.469.4-.614.682a1.969 1.969 0 0 0-.213.908v.745c0 .438.077.81.231 1.117.156.307.373.541.651.703.279.16.604.239.976.239.242 0 .462-.034.661-.102a1.373 1.373 0 0 0 .848-.831l1.206.217c-.097.355-.27.666-.52.933-.247.264-.558.47-.933.618a3.492 3.492 0 0 1-1.274.217Zm19.994-6.857-.775-.775-3.975 3.975-3.975-3.975-.775.775 4.75 4.725 4.75-4.725Z"/><path fill="#2E2E30" d="M18.998 99.796h-2.306l3.514-10.182h2.775l3.51 10.182h-2.307l-2.55-7.855h-.08l-2.556 7.855Zm-.144-4.002h5.449v1.68h-5.449v-1.68Zm8.822 4.002v-7.637h2.019v1.348h.09c.158-.448.423-.8.795-1.06.37-.258.815-.387 1.332-.387.524 0 .97.131 1.337.393.368.258.613.61.736 1.054h.08c.156-.438.437-.787.845-1.05.41-.264.896-.397 1.457-.397.712 0 1.29.227 1.735.681.447.451.67 1.09.67 1.92v5.135H36.66v-4.718c0-.424-.113-.743-.338-.955a1.185 1.185 0 0 0-.845-.318c-.385 0-.685.123-.9.368-.216.242-.323.562-.323.96v4.663H32.2v-4.763c0-.374-.107-.673-.323-.895-.212-.222-.492-.333-.84-.333-.235 0-.447.06-.636.18a1.23 1.23 0 0 0-.443.491 1.56 1.56 0 0 0-.164.736v4.584h-2.118Zm14.947.144c-.487 0-.921-.084-1.302-.254a2.097 2.097 0 0 1-.905-.76c-.219-.338-.328-.76-.328-1.263 0-.424.078-.78.233-1.069a1.89 1.89 0 0 1 .637-.696c.268-.175.573-.308.915-.398a6.99 6.99 0 0 1 1.083-.189c.444-.046.802-.089 1.074-.129.272-.043.47-.106.592-.189a.415.415 0 0 0 .184-.368v-.03c0-.314-.1-.558-.298-.73-.196-.173-.474-.259-.836-.259-.38 0-.684.085-.91.254a1.166 1.166 0 0 0-.447.626l-1.959-.159c.1-.464.295-.865.587-1.203a2.816 2.816 0 0 1 1.129-.785c.463-.186 1-.279 1.61-.279.424 0 .83.05 1.218.15.391.099.738.253 1.04.462.304.208.545.477.72.805.176.325.264.714.264 1.168v5.15h-2.009v-1.058h-.06a2.126 2.126 0 0 1-1.232 1.054c-.289.1-.622.15-1 .15Zm.607-1.462c.311 0 .587-.06.825-.183.239-.127.426-.296.562-.508.136-.212.204-.452.204-.72v-.81a1.133 1.133 0 0 1-.274.118 4.95 4.95 0 0 1-.383.095c-.142.026-.285.051-.427.075l-.388.054a2.615 2.615 0 0 0-.651.174 1.04 1.04 0 0 0-.433.323.787.787 0 0 0-.154.498c0 .288.105.508.313.66.213.15.481.224.806.224Zm5.297 1.318v-1.263l3.739-4.628v-.055h-3.61v-1.69h6.16v1.377l-3.51 4.514v.055h3.64v1.69h-6.419Zm11.27.149c-.773 0-1.44-.164-2.004-.492a3.368 3.368 0 0 1-1.298-1.382c-.305-.593-.457-1.281-.457-2.064 0-.788.152-1.478.457-2.068a3.327 3.327 0 0 1 1.298-1.382c.563-.331 1.231-.497 2.003-.497.773 0 1.439.166 1.999.497.563.328.998.79 1.303 1.382.305.59.457 1.28.457 2.069 0 .782-.152 1.47-.457 2.063a3.36 3.36 0 0 1-1.303 1.382c-.56.328-1.226.492-1.999.492Zm.01-1.64c.35 0 .644-.1.88-.299.235-.202.412-.477.531-.825.123-.348.184-.744.184-1.188 0-.444-.061-.84-.184-1.189a1.85 1.85 0 0 0-.532-.825c-.235-.202-.528-.303-.88-.303-.354 0-.653.101-.895.303a1.862 1.862 0 0 0-.541.825 3.64 3.64 0 0 0-.18 1.189c0 .444.06.84.18 1.188.122.348.303.623.541.825.242.199.54.298.895.298Zm7.243-2.924v4.415h-2.118v-7.637h2.019v1.348h.089a2.13 2.13 0 0 1 .85-1.054c.398-.262.88-.393 1.447-.393.53 0 .993.116 1.387.348.394.232.701.564.92.994.218.428.328.938.328 1.532v4.862h-2.118V95.31c.003-.467-.116-.831-.358-1.093-.242-.265-.575-.398-1-.398a1.52 1.52 0 0 0-.755.184 1.282 1.282 0 0 0-.507.537 1.86 1.86 0 0 0-.184.84Zm-48.996 19.415h-1.397l3.14-8.727h1.522l3.14 8.727h-1.398l-2.467-7.142h-.068l-2.472 7.142Zm.235-3.418h4.534v1.108h-4.534v-1.108Zm7.328 3.418v-6.546h1.223v1.066h.081c.137-.361.36-.642.67-.844.309-.205.68-.307 1.111-.307.438 0 .804.102 1.1.307.298.205.518.486.66.844h.069c.156-.35.405-.628.745-.835.341-.211.747-.316 1.22-.316.593 0 1.077.186 1.452.558.378.373.567.934.567 1.684v4.389h-1.274v-4.27c0-.443-.12-.764-.362-.963a1.316 1.316 0 0 0-.865-.298c-.415 0-.738.127-.968.383-.23.253-.345.578-.345.976v4.172h-1.27v-4.351c0-.355-.11-.641-.332-.856-.222-.216-.51-.324-.865-.324-.242 0-.465.064-.67.191a1.42 1.42 0 0 0-.49.525 1.602 1.602 0 0 0-.183.779v4.036h-1.274Zm12.51.145c-.414 0-.79-.077-1.124-.23a1.897 1.897 0 0 1-.797-.678c-.194-.295-.29-.658-.29-1.087 0-.369.07-.673.213-.911.142-.239.334-.428.575-.567.242-.139.512-.245.81-.316a7.85 7.85 0 0 1 .912-.161l.954-.111c.245-.032.422-.081.533-.149.11-.069.166-.179.166-.333v-.03c0-.372-.105-.66-.315-.865-.207-.204-.517-.307-.929-.307-.429 0-.767.096-1.014.286a1.523 1.523 0 0 0-.507.626l-1.198-.272a2.3 2.3 0 0 1 .622-.963c.276-.248.593-.427.95-.537a3.698 3.698 0 0 1 1.13-.171c.261 0 .538.031.83.094.296.06.572.17.828.332.258.162.47.394.635.695.164.298.247.686.247 1.163v4.347h-1.245v-.895h-.05a1.808 1.808 0 0 1-.372.486 1.97 1.97 0 0 1-.634.396 2.465 2.465 0 0 1-.93.158Zm.278-1.023c.352 0 .653-.07.903-.209.253-.139.445-.321.575-.545.134-.227.2-.47.2-.729v-.844c-.045.046-.133.088-.264.128-.128.037-.274.07-.439.098-.164.026-.325.05-.481.073l-.392.051a3.196 3.196 0 0 0-.678.157 1.167 1.167 0 0 0-.486.32c-.119.136-.179.318-.179.546 0 .315.117.553.35.715.233.16.53.239.89.239Zm4.513.878v-.874l3.546-4.504v-.06h-3.43v-1.108h5.02v.929l-3.41 4.449v.06h3.529v1.108h-5.255Zm9.328.132c-.614 0-1.15-.141-1.607-.422a2.847 2.847 0 0 1-1.065-1.18c-.253-.506-.38-1.097-.38-1.773 0-.679.127-1.273.38-1.781a2.836 2.836 0 0 1 1.065-1.185c.457-.281.993-.422 1.606-.422.614 0 1.15.141 1.607.422.457.281.813.676 1.065 1.185.253.508.38 1.102.38 1.781 0 .676-.127 1.267-.38 1.773a2.846 2.846 0 0 1-1.065 1.18c-.457.281-.993.422-1.606.422Zm.004-1.07c.398 0 .727-.105.988-.315.262-.21.455-.49.58-.839a3.34 3.34 0 0 0 .192-1.155c0-.418-.064-.801-.192-1.151a1.876 1.876 0 0 0-.58-.848c-.261-.213-.59-.319-.988-.319-.4 0-.733.106-.997.319a1.905 1.905 0 0 0-.584.848c-.125.35-.188.733-.188 1.151 0 .42.063.805.188 1.155.128.349.322.629.584.839.264.21.596.315.997.315Zm5.743-2.948v3.886h-1.274v-6.546h1.223v1.066h.08c.151-.347.387-.625.708-.835.324-.211.732-.316 1.223-.316.446 0 .837.094 1.172.281.335.185.595.461.78.827.185.367.277.82.277 1.36v4.163h-1.274v-4.01c0-.474-.124-.845-.371-1.112-.247-.27-.587-.405-1.018-.405-.296 0-.559.064-.789.192a1.38 1.38 0 0 0-.541.562c-.13.244-.196.54-.196.887Zm10.492-4.841v8.727H67.17v-8.727h1.317Zm3.09 4.841v3.886h-1.274v-6.546h1.223v1.066h.08c.151-.347.387-.625.708-.835.324-.211.732-.316 1.223-.316.446 0 .837.094 1.172.281.335.185.595.461.78.827.185.367.277.82.277 1.36v4.163H74.49v-4.01c0-.474-.124-.845-.37-1.112-.248-.27-.588-.405-1.02-.405-.295 0-.558.064-.788.192a1.38 1.38 0 0 0-.541.562c-.13.244-.196.54-.196.887Zm8.655 4.018c-.634 0-1.18-.143-1.636-.43a2.849 2.849 0 0 1-1.049-1.198c-.244-.508-.366-1.091-.366-1.747 0-.665.125-1.251.375-1.76.25-.511.602-.91 1.056-1.197.455-.287.99-.431 1.607-.431.497 0 .94.093 1.33.277.389.182.703.438.941.767.242.33.385.715.43 1.155h-1.24a1.488 1.488 0 0 0-.468-.793c-.241-.221-.565-.332-.972-.332-.355 0-.666.094-.933.281a1.81 1.81 0 0 0-.618.793c-.147.341-.221.744-.221 1.21 0 .477.072.889.217 1.236.145.347.35.615.614.805.267.191.58.286.941.286.242 0 .46-.044.657-.132a1.33 1.33 0 0 0 .498-.388c.137-.168.232-.369.286-.605h1.24a2.408 2.408 0 0 1-.414 1.133 2.37 2.37 0 0 1-.924.784c-.384.191-.834.286-1.351.286Z"/><path fill="url(#a)" d="M120.277 93.32c-.648 4.216-6.216 8.513-8.919 10.134v4.865l56.351 2.027v-6.892l-7.297-10.134-6.081 5.27-3.244 4.864-20.269-4.864-3.649 4.864c-2.027-5.135-6.243-14.35-6.892-10.134Z"/><path stroke="#3398F6" stroke-linecap="round" d="M111.358 103.454c2.703-1.621 8.271-5.918 8.919-10.134.649-4.217 4.865 5 6.892 10.134l3.649-4.864 20.269 4.864 3.244-4.864 6.081-5.27 7.297 10.134"/><path fill="#2E2E30" d="M194.964 96.614v10.182h-2.153v-8.139h-.06l-2.331 1.462V98.21l2.52-1.596h2.024Zm6.327 10.321a4.603 4.603 0 0 1-1.516-.263 3.464 3.464 0 0 1-1.303-.841c-.384-.387-.689-.901-.914-1.541-.222-.639-.333-1.425-.333-2.356.003-.855.101-1.619.293-2.292.195-.676.474-1.25.835-1.72a3.655 3.655 0 0 1 1.308-1.074 3.821 3.821 0 0 1 1.705-.373c.679 0 1.279.133 1.8.398a3.307 3.307 0 0 1 1.829 2.585h-2.123a1.419 1.419 0 0 0-.522-.835c-.265-.203-.593-.304-.984-.304-.663 0-1.167.289-1.511.865-.342.577-.516 1.361-.523 2.352h.07c.153-.302.358-.559.617-.771.261-.215.558-.379.889-.492a3.213 3.213 0 0 1 1.059-.174 3.025 3.025 0 0 1 2.725 1.591c.272.494.408 1.059.408 1.695 0 .69-.161 1.303-.483 1.84a3.344 3.344 0 0 1-1.337 1.263c-.57.301-1.233.45-1.989.447Zm-.01-1.69a1.68 1.68 0 0 0 1.507-.885c.149-.272.223-.577.223-.915 0-.338-.074-.641-.223-.91a1.653 1.653 0 0 0-1.492-.88 1.72 1.72 0 0 0-.691.139 1.748 1.748 0 0 0-.92.965 1.791 1.791 0 0 0-.134.691c0 .328.075.628.224.9.152.272.358.489.616.651.262.163.559.244.89.244Zm9.064 1.69c-.703 0-1.33-.129-1.88-.388a3.262 3.262 0 0 1-1.302-1.069 2.739 2.739 0 0 1-.502-1.561h2.088c.023.395.189.715.497.96s.674.368 1.099.368c.338 0 .636-.075.894-.224.262-.152.466-.363.612-.631.149-.272.224-.584.224-.935 0-.358-.077-.673-.229-.945a1.616 1.616 0 0 0-.621-.636 1.845 1.845 0 0 0-.91-.234c-.299 0-.589.062-.87.184-.279.123-.496.29-.652.502l-1.914-.343.483-5.369h6.224v1.76h-4.45l-.263 2.55h.06c.179-.251.449-.46.81-.626a2.872 2.872 0 0 1 1.213-.249c.613 0 1.16.145 1.641.433.48.288.86.684 1.138 1.188.279.501.416 1.077.413 1.73.003.686-.156 1.296-.477 1.83-.319.53-.764.948-1.338 1.253-.57.301-1.233.452-1.988.452Zm9.103 0c-.766 0-1.447-.124-2.044-.373-.593-.252-1.059-.595-1.397-1.029a2.339 2.339 0 0 1-.507-1.476c0-.425.096-.814.288-1.169.196-.358.461-.654.796-.89a2.627 2.627 0 0 1 1.123-.457v-.07a2.208 2.208 0 0 1-1.322-.79 2.275 2.275 0 0 1-.507-1.467c0-.527.154-.996.462-1.407.309-.414.731-.739 1.268-.974.54-.239 1.153-.358 1.84-.358.686 0 1.297.12 1.834.358.54.239.965.565 1.273.98a2.3 2.3 0 0 1 .467 1.401 2.271 2.271 0 0 1-.517 1.467 2.222 2.222 0 0 1-1.312.79v.07c.407.066.777.219 1.108.457.335.236.6.532.796.89.199.355.3.744.303 1.169a2.361 2.361 0 0 1-.512 1.476c-.338.434-.806.777-1.402 1.029-.593.249-1.273.373-2.038.373Zm0-1.581c.341 0 .639-.061.894-.184a1.46 1.46 0 0 0 .597-.517 1.36 1.36 0 0 0 .219-.765c0-.295-.075-.556-.224-.781a1.533 1.533 0 0 0-.606-.537 1.88 1.88 0 0 0-.88-.199c-.329 0-.622.066-.88.199a1.523 1.523 0 0 0-.612.537 1.404 1.404 0 0 0-.219.781c0 .288.072.543.214.765.143.219.343.391.602.517.258.123.556.184.895.184Zm0-4.549c.285 0 .538-.058.76-.174.222-.116.396-.277.522-.482.126-.206.189-.443.189-.711a1.273 1.273 0 0 0-.706-1.168 1.61 1.61 0 0 0-.765-.174 1.63 1.63 0 0 0-.766.174c-.222.112-.396.27-.522.472-.123.199-.184.43-.184.696 0 .268.063.505.189.711.126.205.3.366.522.482.222.116.476.174.761.174Zm6.428 6.12a1.16 1.16 0 0 1-.845-.348 1.16 1.16 0 0 1-.348-.845c0-.325.116-.603.348-.835a1.16 1.16 0 0 1 .845-.348c.318 0 .596.116.835.348.239.232.358.51.358.835 0 .219-.056.419-.169.602a1.278 1.278 0 0 1-.433.432 1.138 1.138 0 0 1-.591.159Zm6.494.095c-.855-.004-1.591-.214-2.207-.632-.614-.417-1.086-1.022-1.417-1.814-.328-.793-.491-1.745-.488-2.859 0-1.11.165-2.057.493-2.839.331-.782.803-1.377 1.417-1.785.616-.41 1.35-.616 2.202-.616.852 0 1.584.205 2.197.616.617.411 1.091 1.008 1.422 1.79.332.779.496 1.724.492 2.834 0 1.117-.165 2.071-.497 2.864-.328.792-.798 1.397-1.412 1.814-.613.418-1.347.627-2.202.627Zm0-1.785c.583 0 1.049-.294 1.397-.88.348-.587.52-1.467.517-2.64 0-.772-.08-1.415-.239-1.929-.155-.514-.377-.9-.666-1.158a1.452 1.452 0 0 0-1.009-.388c-.58 0-1.044.29-1.392.87-.348.58-.524 1.448-.527 2.605 0 .782.078 1.435.234 1.959.159.52.382.911.671 1.173.288.259.626.388 1.014.388Zm9.639 1.785c-.855-.004-1.591-.214-2.208-.632-.613-.417-1.085-1.022-1.417-1.814-.328-.793-.49-1.745-.487-2.859 0-1.11.164-2.057.492-2.839.332-.782.804-1.377 1.417-1.785.617-.41 1.351-.616 2.203-.616.851 0 1.584.205 2.197.616.617.411 1.091 1.008 1.422 1.79.331.779.495 1.724.492 2.834 0 1.117-.166 2.071-.497 2.864-.328.792-.799 1.397-1.412 1.814-.613.418-1.347.627-2.202.627Zm0-1.785c.583 0 1.049-.294 1.397-.88.348-.587.52-1.467.517-2.64 0-.772-.08-1.415-.239-1.929-.156-.514-.378-.9-.666-1.158a1.454 1.454 0 0 0-1.009-.388c-.58 0-1.044.29-1.392.87-.348.58-.524 1.448-.527 2.605 0 .782.077 1.435.233 1.959.159.52.383.911.671 1.173.289.259.627.388 1.015.388Z"/><path fill="#3398F6" d="M254.279 96.475a.5.5 0 0 0-.707 0l-3.182 3.183a.5.5 0 1 0 .707.707l2.828-2.829 2.829 2.829a.5.5 0 0 0 .707-.707l-3.182-3.183Zm-.854.354v8.933h1v-8.933h-1Z"/><path fill="#2E2E30" d="M25.76 153.614v10.182H23.9l-4.43-6.408h-.074v6.408h-2.153v-10.182h1.89l4.394 6.403h.09v-6.403h2.143Zm5.219 10.331c-.786 0-1.462-.159-2.029-.477a3.275 3.275 0 0 1-1.302-1.362c-.305-.59-.458-1.288-.458-2.093 0-.786.153-1.475.458-2.069a3.387 3.387 0 0 1 1.287-1.387c.557-.331 1.21-.497 1.96-.497.503 0 .972.081 1.406.244.438.159.819.399 1.143.721.329.321.584.725.766 1.213.182.484.274 1.05.274 1.7v.582h-6.449v-1.313h4.455a1.62 1.62 0 0 0-.199-.81 1.417 1.417 0 0 0-.552-.552 1.573 1.573 0 0 0-.81-.204c-.322 0-.607.075-.855.224a1.572 1.572 0 0 0-.577.591c-.14.246-.21.519-.214.821v1.248c0 .377.07.704.21.979.142.275.342.487.6.636a1.8 1.8 0 0 0 .92.224c.236 0 .451-.033.647-.099a1.293 1.293 0 0 0 .82-.786l1.959.129a2.67 2.67 0 0 1-.612 1.233c-.305.348-.699.62-1.183.816-.48.192-1.036.288-1.665.288Zm8.949-7.785v1.59h-4.6v-1.59h4.6Zm-3.555-1.83h2.118v7.119c0 .196.03.348.09.458.059.106.142.18.248.223.11.044.235.065.378.065.099 0 .199-.008.298-.025l.229-.045.333 1.576a5.48 5.48 0 0 1-.448.115 3.627 3.627 0 0 1-.7.084c-.511.02-.959-.048-1.343-.204a1.868 1.868 0 0 1-.89-.725c-.212-.329-.316-.743-.313-1.243v-7.398Zm9.04 1.83v1.59h-4.712v-1.59h4.713Zm-3.634 7.636v-8.188c0-.554.108-1.013.323-1.377a2.08 2.08 0 0 1 .895-.821 2.931 2.931 0 0 1 1.288-.273c.325 0 .622.025.89.074.272.05.474.095.607.135l-.378 1.591a2.507 2.507 0 0 0-.677-.11c-.311 0-.528.073-.65.219-.123.142-.185.343-.185.601v8.149H41.78Zm7.046-10.182v10.182h-2.117v-10.182h2.117Zm1.697 10.182v-7.636h2.118v7.636h-2.118Zm1.064-8.621a1.15 1.15 0 0 1-.81-.313 1.016 1.016 0 0 1-.334-.761.99.99 0 0 1 .334-.75c.225-.213.495-.319.81-.319.315 0 .583.106.805.319a.986.986 0 0 1 .338.75c0 .295-.112.549-.338.761-.222.209-.49.313-.805.313Zm4.52.985 1.402 2.669 1.437-2.669h2.173l-2.213 3.818 2.272 3.818h-2.162l-1.507-2.64-1.481 2.64h-2.188l2.267-3.818-2.187-3.818h2.187Zm-31.745 13.909v8.727h-1.21l-4.436-6.401h-.081v6.401h-1.317v-8.727h1.219l4.44 6.409h.081v-6.409h1.304Zm4.64 8.859c-.645 0-1.2-.138-1.666-.413a2.807 2.807 0 0 1-1.074-1.172c-.25-.506-.375-1.098-.375-1.777 0-.671.125-1.262.375-1.773.253-.511.605-.91 1.057-1.197.454-.287.985-.431 1.593-.431.37 0 .728.061 1.074.183.347.123.658.314.933.576.276.261.493.601.652 1.018.16.415.239.919.239 1.513v.452h-5.203v-.955h3.954c0-.335-.068-.632-.204-.89a1.54 1.54 0 0 0-.575-.618 1.604 1.604 0 0 0-.861-.226c-.358 0-.67.088-.938.264a1.774 1.774 0 0 0-.613.682 1.967 1.967 0 0 0-.213.907v.746c0 .438.076.81.23 1.117.156.307.373.541.652.703.278.159.603.238.976.238.241 0 .461-.034.66-.102a1.366 1.366 0 0 0 .848-.831l1.206.218c-.097.355-.27.666-.52.933-.247.264-.558.47-.933.618a3.49 3.49 0 0 1-1.274.217Zm7.277-6.678v1.023h-3.575v-1.023h3.575Zm-2.616-1.568h1.274v6.192c0 .247.037.433.11.558a.583.583 0 0 0 .286.252c.12.042.249.064.388.064.102 0 .192-.007.268-.022l.18-.034.23 1.053a2.525 2.525 0 0 1-.827.136 2.238 2.238 0 0 1-.938-.179 1.61 1.61 0 0 1-.703-.579c-.179-.262-.268-.59-.268-.985v-6.456Zm7.14 1.568v1.023h-3.698v-1.023h3.699Zm-2.684 6.546v-7.304c0-.409.09-.749.268-1.019.18-.272.417-.475.712-.609.296-.136.617-.204.963-.204.256 0 .475.021.656.063.182.04.317.077.405.111l-.298 1.032a4.956 4.956 0 0 0-.23-.06 1.29 1.29 0 0 0-.341-.039c-.31 0-.531.077-.665.231-.13.153-.196.375-.196.664v7.134h-1.274Zm5.273-8.727v8.727h-1.274v-8.727h1.274Zm1.715 8.727v-6.546h1.274v6.546h-1.274Zm.643-7.555a.81.81 0 0 1-.571-.222.722.722 0 0 1-.234-.537c0-.21.078-.389.234-.537a.8.8 0 0 1 .571-.226c.222 0 .41.075.567.226a.706.706 0 0 1 .238.537.72.72 0 0 1-.238.537.794.794 0 0 1-.567.222Zm3.35 1.009 1.445 2.549 1.458-2.549h1.393l-2.041 3.273 2.058 3.273h-1.393l-1.475-2.446-1.47 2.446h-1.398l2.037-3.273-2.011-3.273H49.1Zm10.199-2.181v8.727h-1.317v-8.727h1.317Zm3.09 4.841v3.886h-1.275v-6.546h1.223v1.066h.081c.15-.347.387-.625.708-.835.324-.211.731-.316 1.223-.316.446 0 .836.094 1.172.281.335.185.595.461.78.827.184.367.276.82.276 1.36v4.163h-1.274v-4.01c0-.474-.123-.845-.37-1.112-.248-.27-.587-.405-1.019-.405-.295 0-.558.064-.788.192a1.38 1.38 0 0 0-.541.562c-.131.244-.197.54-.197.887Zm8.654 4.018c-.633 0-1.179-.143-1.636-.43a2.849 2.849 0 0 1-1.048-1.198c-.245-.508-.367-1.091-.367-1.747 0-.665.125-1.251.375-1.76.25-.511.603-.91 1.057-1.197.455-.287.99-.431 1.607-.431.497 0 .94.093 1.33.277.388.182.702.438.94.767.242.33.386.715.431 1.155h-1.24a1.488 1.488 0 0 0-.469-.793c-.241-.221-.565-.332-.971-.332-.355 0-.666.094-.933.281a1.81 1.81 0 0 0-.618.793c-.148.341-.222.744-.222 1.21 0 .477.073.889.218 1.236.144.347.349.615.613.805.267.191.581.286.942.286.241 0 .46-.044.656-.132.199-.091.365-.22.499-.388.136-.168.231-.369.285-.605h1.24a2.408 2.408 0 0 1-.413 1.133 2.37 2.37 0 0 1-.925.784c-.383.191-.834.286-1.35.286Z"/><path fill="url(#b)" d="M120.277 158.565c-.648 4.216-6.216 8.513-8.919 10.135v4.865l56.351 2.027V168.7l-7.287-5.578h-6.896l-9.609-7.904-13.099 8.617-3.345-5.27c-2.027-5.135-6.547-4.216-7.196 0Z"/><path stroke="#EB7487" stroke-linecap="round" d="M111.358 168.7c2.703-1.622 8.271-5.919 8.919-10.135.649-4.217 4.622-5.225 6.649-.09l3.892 5.36 13.185-8.652 9.742 7.651h6.677l7.287 5.866"/><path fill="#2E2E30" d="M194.964 160.614v10.182h-2.153v-8.139h-.06l-2.331 1.462v-1.909l2.52-1.596h2.024Zm6.327 10.321a4.603 4.603 0 0 1-1.516-.263 3.464 3.464 0 0 1-1.303-.841c-.384-.387-.689-.901-.914-1.541-.222-.639-.333-1.425-.333-2.356.003-.855.101-1.619.293-2.292.195-.676.474-1.25.835-1.72a3.655 3.655 0 0 1 1.308-1.074 3.815 3.815 0 0 1 1.705-.373c.679 0 1.279.132 1.8.398a3.304 3.304 0 0 1 1.829 2.585h-2.123a1.416 1.416 0 0 0-.522-.835c-.265-.203-.593-.304-.984-.304-.663 0-1.167.289-1.511.865-.342.577-.516 1.361-.523 2.352h.07c.153-.302.358-.559.617-.771.261-.215.558-.379.889-.492a3.213 3.213 0 0 1 1.059-.174 3.025 3.025 0 0 1 2.725 1.591c.272.494.408 1.059.408 1.695 0 .69-.161 1.303-.483 1.84a3.344 3.344 0 0 1-1.337 1.263c-.57.301-1.233.45-1.989.447Zm-.01-1.69a1.68 1.68 0 0 0 1.507-.885c.149-.272.223-.577.223-.915 0-.338-.074-.641-.223-.91a1.653 1.653 0 0 0-1.492-.88 1.72 1.72 0 0 0-.691.139 1.748 1.748 0 0 0-.92.965 1.791 1.791 0 0 0-.134.691c0 .328.075.628.224.9.152.272.358.489.616.651.262.163.559.244.89.244Zm9.064 1.69c-.703 0-1.33-.129-1.88-.388a3.262 3.262 0 0 1-1.302-1.069 2.739 2.739 0 0 1-.502-1.561h2.088c.023.395.189.715.497.96s.674.368 1.099.368c.338 0 .636-.075.894-.224.262-.152.466-.363.612-.631.149-.272.224-.584.224-.935 0-.358-.077-.673-.229-.945a1.616 1.616 0 0 0-.621-.636 1.845 1.845 0 0 0-.91-.234c-.299 0-.589.062-.87.184-.279.123-.496.29-.652.502l-1.914-.343.483-5.369h6.224v1.76h-4.45l-.263 2.55h.06c.179-.251.449-.46.81-.626a2.872 2.872 0 0 1 1.213-.249c.613 0 1.16.145 1.641.433.48.288.86.684 1.138 1.188.279.501.416 1.077.413 1.73.003.686-.156 1.296-.477 1.83-.319.53-.764.948-1.338 1.253-.57.301-1.233.452-1.988.452Zm9.103 0c-.766 0-1.447-.124-2.044-.373-.593-.252-1.059-.595-1.397-1.029a2.339 2.339 0 0 1-.507-1.476c0-.425.096-.814.288-1.169.196-.358.461-.654.796-.89a2.627 2.627 0 0 1 1.123-.457v-.07a2.208 2.208 0 0 1-1.322-.79 2.275 2.275 0 0 1-.507-1.467c0-.527.154-.996.462-1.407.309-.414.731-.739 1.268-.974.54-.239 1.153-.358 1.84-.358.686 0 1.297.119 1.834.358.54.238.965.565 1.273.979.308.411.464.879.467 1.402a2.272 2.272 0 0 1-.517 1.467 2.222 2.222 0 0 1-1.312.79v.07c.407.066.777.219 1.108.457.335.236.6.532.796.89.199.355.3.744.303 1.169a2.361 2.361 0 0 1-.512 1.476c-.338.434-.806.777-1.402 1.029-.593.249-1.273.373-2.038.373Zm0-1.581c.341 0 .639-.061.894-.184a1.46 1.46 0 0 0 .597-.517 1.36 1.36 0 0 0 .219-.765c0-.295-.075-.556-.224-.781a1.533 1.533 0 0 0-.606-.537 1.88 1.88 0 0 0-.88-.199c-.329 0-.622.066-.88.199a1.523 1.523 0 0 0-.612.537 1.404 1.404 0 0 0-.219.781c0 .288.072.543.214.765.143.219.343.391.602.517.258.123.556.184.895.184Zm0-4.549c.285 0 .538-.058.76-.174.222-.116.396-.277.522-.482.126-.206.189-.443.189-.711a1.273 1.273 0 0 0-.706-1.168 1.61 1.61 0 0 0-.765-.174 1.63 1.63 0 0 0-.766.174c-.222.112-.396.27-.522.472a1.296 1.296 0 0 0-.184.696c0 .268.063.505.189.711.126.205.3.366.522.482.222.116.476.174.761.174Zm6.428 6.12a1.16 1.16 0 0 1-.845-.348 1.16 1.16 0 0 1-.348-.845c0-.325.116-.603.348-.835a1.16 1.16 0 0 1 .845-.348c.318 0 .596.116.835.348.239.232.358.51.358.835 0 .219-.056.419-.169.602a1.278 1.278 0 0 1-.433.432 1.138 1.138 0 0 1-.591.159Zm6.494.095c-.855-.004-1.591-.214-2.207-.632-.614-.417-1.086-1.022-1.417-1.814-.328-.793-.491-1.745-.488-2.859 0-1.11.165-2.057.493-2.839.331-.782.803-1.377 1.417-1.785.616-.411 1.35-.616 2.202-.616.852 0 1.584.205 2.197.616.617.411 1.091 1.008 1.422 1.79.332.779.496 1.724.492 2.834 0 1.117-.165 2.071-.497 2.864-.328.792-.798 1.397-1.412 1.814-.613.418-1.347.627-2.202.627Zm0-1.785c.583 0 1.049-.294 1.397-.88.348-.587.52-1.467.517-2.64 0-.772-.08-1.415-.239-1.929-.155-.514-.377-.9-.666-1.158a1.45 1.45 0 0 0-1.009-.388c-.58 0-1.044.29-1.392.87-.348.58-.524 1.448-.527 2.605 0 .782.078 1.435.234 1.959.159.52.382.911.671 1.173.288.259.626.388 1.014.388Zm9.639 1.785c-.855-.004-1.591-.214-2.208-.632-.613-.417-1.085-1.022-1.417-1.814-.328-.793-.49-1.745-.487-2.859 0-1.11.164-2.057.492-2.839.332-.782.804-1.377 1.417-1.785.617-.411 1.351-.616 2.203-.616.851 0 1.584.205 2.197.616.617.411 1.091 1.008 1.422 1.79.331.779.495 1.724.492 2.834 0 1.117-.166 2.071-.497 2.864-.328.792-.799 1.397-1.412 1.814-.613.418-1.347.627-2.202.627Zm0-1.785c.583 0 1.049-.294 1.397-.88.348-.587.52-1.467.517-2.64 0-.772-.08-1.415-.239-1.929-.156-.514-.378-.9-.666-1.158a1.452 1.452 0 0 0-1.009-.388c-.58 0-1.044.29-1.392.87-.348.58-.524 1.448-.527 2.605 0 .782.077 1.435.233 1.959.159.52.383.911.671 1.173.289.259.627.388 1.015.388Z"/><path fill="#EB7487" d="M253.572 170.116a.5.5 0 0 0 .707 0l3.182-3.182a.5.5 0 0 0-.707-.707l-2.829 2.828-2.828-2.828a.5.5 0 0 0-.707.707l3.182 3.182Zm-.147-9.287v8.933h1v-8.933h-1Z"/><path fill="#2E2E30" d="M18.998 227.796h-2.306l3.514-10.182h2.775l3.51 10.182h-2.307l-2.55-7.855h-.08l-2.556 7.855Zm-.144-4.002h5.449v1.68h-5.449v-1.68Zm8.822 4.002v-7.636h2.019v1.347h.09c.158-.448.423-.801.795-1.059.37-.259.815-.388 1.332-.388.524 0 .97.131 1.337.393.368.258.613.61.736 1.054h.08a2.03 2.03 0 0 1 .845-1.049c.41-.265.896-.398 1.457-.398.712 0 1.29.227 1.735.681.447.451.67 1.091.67 1.919v5.136H36.66v-4.718c0-.424-.113-.743-.338-.955a1.186 1.186 0 0 0-.845-.318c-.385 0-.685.123-.9.368-.216.242-.323.562-.323.96v4.663H32.2v-4.763c0-.374-.107-.673-.323-.895-.212-.222-.492-.333-.84-.333-.235 0-.447.06-.636.179a1.23 1.23 0 0 0-.443.492c-.11.209-.164.454-.164.736v4.584h-2.118Zm14.947.144a3.18 3.18 0 0 1-1.302-.253 2.1 2.1 0 0 1-.905-.761c-.219-.338-.328-.759-.328-1.263 0-.424.078-.78.233-1.069.156-.288.368-.52.637-.696.268-.175.573-.308.915-.398a6.978 6.978 0 0 1 1.083-.188c.444-.047.802-.09 1.074-.13.272-.043.47-.106.592-.189a.415.415 0 0 0 .184-.368v-.029c0-.315-.1-.559-.298-.731-.196-.173-.474-.259-.836-.259-.38 0-.684.085-.91.254a1.166 1.166 0 0 0-.447.626l-1.959-.159c.1-.464.295-.865.587-1.203a2.816 2.816 0 0 1 1.129-.785c.463-.186 1-.279 1.61-.279.424 0 .83.05 1.218.149.391.1.738.254 1.04.463.304.208.545.477.72.805.176.325.264.714.264 1.168v5.151h-2.009v-1.059h-.06a2.146 2.146 0 0 1-.492.631c-.205.179-.452.32-.74.423a3.074 3.074 0 0 1-1 .149Zm.607-1.462c.311 0 .587-.061.825-.184.239-.125.426-.295.562-.507.136-.212.204-.452.204-.721v-.81a1.122 1.122 0 0 1-.274.119c-.112.034-.24.065-.383.095-.142.026-.285.051-.427.074l-.388.055a2.668 2.668 0 0 0-.651.174c-.186.08-.33.187-.433.323a.79.79 0 0 0-.154.497c0 .289.105.509.313.662.213.149.481.223.806.223Zm5.297 1.318v-1.263l3.739-4.628v-.055h-3.61v-1.69h6.16v1.377l-3.51 4.514v.055h3.64v1.69h-6.419Zm11.27.149c-.773 0-1.44-.164-2.004-.492a3.37 3.37 0 0 1-1.298-1.382c-.305-.594-.457-1.281-.457-2.063 0-.789.152-1.479.457-2.069a3.328 3.328 0 0 1 1.298-1.382c.563-.331 1.231-.497 2.003-.497.773 0 1.439.166 1.999.497a3.32 3.32 0 0 1 1.303 1.382c.305.59.457 1.28.457 2.069 0 .782-.152 1.469-.457 2.063-.305.59-.74 1.05-1.303 1.382-.56.328-1.226.492-1.999.492Zm.01-1.641c.35 0 .644-.099.88-.298.235-.202.412-.477.531-.825.123-.348.184-.744.184-1.188a3.57 3.57 0 0 0-.184-1.189 1.847 1.847 0 0 0-.532-.825c-.235-.202-.528-.303-.88-.303-.354 0-.653.101-.895.303a1.862 1.862 0 0 0-.541.825 3.66 3.66 0 0 0-.18 1.189c0 .444.06.84.18 1.188.122.348.303.623.541.825.242.199.54.298.895.298Zm7.243-2.923v4.415h-2.118v-7.636h2.019v1.347h.089a2.13 2.13 0 0 1 .85-1.054c.398-.262.88-.393 1.447-.393.53 0 .993.116 1.387.348.394.232.701.564.92.994.218.428.328.938.328 1.532v4.862h-2.118v-4.484c.003-.468-.116-.832-.358-1.094-.242-.265-.575-.398-1-.398-.284 0-.536.061-.755.184a1.287 1.287 0 0 0-.507.537 1.86 1.86 0 0 0-.184.84Zm-48.996 19.415h-1.397l3.14-8.727h1.522l3.14 8.727h-1.398l-2.467-7.142h-.068l-2.472 7.142Zm.235-3.418h4.534v1.108h-4.534v-1.108Zm7.328 3.418v-6.546h1.223v1.066h.081c.137-.361.36-.642.67-.844.309-.205.68-.307 1.111-.307.438 0 .804.102 1.1.307.298.205.518.486.66.844h.069c.156-.35.405-.628.745-.835.341-.211.747-.316 1.22-.316.593 0 1.077.186 1.452.558.378.373.567.934.567 1.684v4.389h-1.274v-4.27c0-.443-.12-.764-.362-.963a1.316 1.316 0 0 0-.865-.298c-.415 0-.738.127-.968.383-.23.253-.345.578-.345.976v4.172h-1.27v-4.351c0-.355-.11-.641-.332-.856-.222-.216-.51-.324-.865-.324-.242 0-.465.064-.67.191a1.42 1.42 0 0 0-.49.525 1.602 1.602 0 0 0-.183.779v4.036h-1.274Zm12.51.145c-.414 0-.79-.077-1.124-.23a1.897 1.897 0 0 1-.797-.678c-.194-.295-.29-.658-.29-1.087 0-.369.07-.673.213-.911.142-.239.334-.428.575-.567.242-.139.512-.245.81-.316a7.85 7.85 0 0 1 .912-.161l.954-.111c.245-.032.422-.081.533-.149.11-.069.166-.179.166-.333v-.03c0-.372-.105-.66-.315-.865-.207-.204-.517-.307-.929-.307-.429 0-.767.096-1.014.286a1.523 1.523 0 0 0-.507.626l-1.198-.272a2.3 2.3 0 0 1 .622-.963c.276-.248.593-.427.95-.537a3.698 3.698 0 0 1 1.13-.171c.261 0 .538.031.83.094.296.06.572.17.828.332.258.162.47.394.635.695.164.298.247.686.247 1.163v4.347h-1.245v-.895h-.05a1.808 1.808 0 0 1-.372.486 1.97 1.97 0 0 1-.634.396 2.465 2.465 0 0 1-.93.158Zm.278-1.023c.352 0 .653-.07.903-.209.253-.139.445-.321.575-.545.134-.227.2-.47.2-.729v-.844c-.045.046-.133.088-.264.128-.128.037-.274.07-.439.098-.164.026-.325.05-.481.073l-.392.051a3.196 3.196 0 0 0-.678.157 1.167 1.167 0 0 0-.486.32c-.119.136-.179.318-.179.546 0 .315.117.553.35.715.233.16.53.239.89.239Zm4.513.878v-.874l3.546-4.504v-.06h-3.43v-1.108h5.02v.929l-3.41 4.449v.06h3.529v1.108h-5.255Zm9.328.132c-.614 0-1.15-.141-1.607-.422a2.847 2.847 0 0 1-1.065-1.18c-.253-.506-.38-1.097-.38-1.773 0-.679.127-1.273.38-1.781a2.836 2.836 0 0 1 1.065-1.185c.457-.281.993-.422 1.606-.422.614 0 1.15.141 1.607.422.457.281.813.676 1.065 1.185.253.508.38 1.102.38 1.781 0 .676-.127 1.267-.38 1.773a2.846 2.846 0 0 1-1.065 1.18c-.457.281-.993.422-1.606.422Zm.004-1.07c.398 0 .727-.105.988-.315.262-.21.455-.49.58-.839a3.34 3.34 0 0 0 .192-1.155c0-.418-.064-.801-.192-1.151a1.876 1.876 0 0 0-.58-.848c-.261-.213-.59-.319-.988-.319-.4 0-.733.106-.997.319a1.905 1.905 0 0 0-.584.848c-.125.35-.188.733-.188 1.151 0 .42.063.805.188 1.155.128.349.322.629.584.839.264.21.596.315.997.315Zm5.743-2.948v3.886h-1.274v-6.546h1.223v1.066h.08c.151-.347.387-.625.708-.835.324-.211.732-.316 1.223-.316.446 0 .837.094 1.172.281.335.185.595.461.78.827.185.367.277.82.277 1.36v4.163h-1.274v-4.01c0-.474-.124-.845-.371-1.112-.247-.27-.587-.405-1.018-.405-.296 0-.559.064-.789.192a1.38 1.38 0 0 0-.541.562c-.13.244-.196.54-.196.887Zm10.492-4.841v8.727H67.17v-8.727h1.317Zm3.09 4.841v3.886h-1.274v-6.546h1.223v1.066h.08c.151-.347.387-.625.708-.835.324-.211.732-.316 1.223-.316.446 0 .837.094 1.172.281.335.185.595.461.78.827.185.367.277.82.277 1.36v4.163H74.49v-4.01c0-.474-.124-.845-.37-1.112-.248-.27-.588-.405-1.02-.405-.295 0-.558.064-.788.192a1.38 1.38 0 0 0-.541.562c-.13.244-.196.54-.196.887Zm8.655 4.018c-.634 0-1.18-.143-1.636-.43a2.849 2.849 0 0 1-1.049-1.198c-.244-.508-.366-1.091-.366-1.747 0-.665.125-1.251.375-1.76.25-.511.602-.91 1.056-1.197.455-.287.99-.431 1.607-.431.497 0 .94.093 1.33.277.389.182.703.438.941.767.242.33.385.715.43 1.155h-1.24a1.488 1.488 0 0 0-.468-.793c-.241-.221-.565-.332-.972-.332-.355 0-.666.094-.933.281a1.81 1.81 0 0 0-.618.793c-.147.341-.221.744-.221 1.21 0 .477.072.889.217 1.236.145.347.35.615.614.805.267.191.58.286.941.286.242 0 .46-.044.657-.132a1.33 1.33 0 0 0 .498-.388c.137-.168.232-.369.286-.605h1.24a2.408 2.408 0 0 1-.414 1.133 2.37 2.37 0 0 1-.924.784c-.384.191-.834.286-1.351.286Z"/><path fill="url(#c)" d="M120.277 221.32c-.648 4.216-6.216 8.513-8.919 10.134v4.865l56.351 2.027v-6.892l-7.297-10.134-6.081 5.27-3.244 4.864-20.269-4.864-3.649 4.864c-2.027-5.135-6.243-14.351-6.892-10.134Z"/><path stroke="#5DB48A" stroke-linecap="round" d="M111.358 231.454c2.703-1.621 8.271-5.918 8.919-10.134.649-4.217 4.865 4.999 6.892 10.134l3.649-4.864 20.269 4.864 3.244-4.864 6.081-5.27 7.297 10.134"/><path fill="#2E2E30" d="M194.964 224.614v10.182h-2.153v-8.139h-.06l-2.331 1.462v-1.909l2.52-1.596h2.024Zm6.327 10.321a4.603 4.603 0 0 1-1.516-.263 3.464 3.464 0 0 1-1.303-.841c-.384-.387-.689-.901-.914-1.541-.222-.639-.333-1.425-.333-2.356.003-.855.101-1.619.293-2.292.195-.676.474-1.25.835-1.72a3.655 3.655 0 0 1 1.308-1.074 3.815 3.815 0 0 1 1.705-.373c.679 0 1.279.132 1.8.398a3.304 3.304 0 0 1 1.829 2.585h-2.123a1.416 1.416 0 0 0-.522-.835c-.265-.203-.593-.304-.984-.304-.663 0-1.167.289-1.511.865-.342.577-.516 1.361-.523 2.352h.07c.153-.302.358-.559.617-.771.261-.215.558-.379.889-.492a3.213 3.213 0 0 1 1.059-.174 3.025 3.025 0 0 1 2.725 1.591c.272.494.408 1.059.408 1.695 0 .69-.161 1.303-.483 1.84a3.344 3.344 0 0 1-1.337 1.263c-.57.301-1.233.45-1.989.447Zm-.01-1.69a1.68 1.68 0 0 0 1.507-.885c.149-.272.223-.577.223-.915 0-.338-.074-.641-.223-.91a1.653 1.653 0 0 0-1.492-.88 1.72 1.72 0 0 0-.691.139 1.748 1.748 0 0 0-.92.965 1.791 1.791 0 0 0-.134.691c0 .328.075.628.224.9.152.272.358.489.616.651.262.163.559.244.89.244Zm9.064 1.69c-.703 0-1.33-.129-1.88-.388a3.262 3.262 0 0 1-1.302-1.069 2.739 2.739 0 0 1-.502-1.561h2.088c.023.395.189.715.497.96s.674.368 1.099.368c.338 0 .636-.075.894-.224.262-.152.466-.363.612-.631.149-.272.224-.584.224-.935 0-.358-.077-.673-.229-.945a1.616 1.616 0 0 0-.621-.636 1.845 1.845 0 0 0-.91-.234c-.299 0-.589.062-.87.184-.279.123-.496.29-.652.502l-1.914-.343.483-5.369h6.224v1.76h-4.45l-.263 2.55h.06c.179-.251.449-.46.81-.626a2.872 2.872 0 0 1 1.213-.249c.613 0 1.16.145 1.641.433.48.288.86.684 1.138 1.188.279.501.416 1.077.413 1.73.003.686-.156 1.296-.477 1.83-.319.53-.764.948-1.338 1.253-.57.301-1.233.452-1.988.452Zm9.103 0c-.766 0-1.447-.124-2.044-.373-.593-.252-1.059-.595-1.397-1.029a2.339 2.339 0 0 1-.507-1.476c0-.425.096-.814.288-1.169.196-.358.461-.654.796-.89a2.627 2.627 0 0 1 1.123-.457v-.07a2.208 2.208 0 0 1-1.322-.79 2.275 2.275 0 0 1-.507-1.467c0-.527.154-.996.462-1.407.309-.414.731-.739 1.268-.974.54-.239 1.153-.358 1.84-.358.686 0 1.297.119 1.834.358.54.238.965.565 1.273.979.308.411.464.879.467 1.402a2.272 2.272 0 0 1-.517 1.467 2.222 2.222 0 0 1-1.312.79v.07c.407.066.777.219 1.108.457.335.236.6.532.796.89.199.355.3.744.303 1.169a2.361 2.361 0 0 1-.512 1.476c-.338.434-.806.777-1.402 1.029-.593.249-1.273.373-2.038.373Zm0-1.581c.341 0 .639-.061.894-.184a1.46 1.46 0 0 0 .597-.517 1.36 1.36 0 0 0 .219-.765c0-.295-.075-.556-.224-.781a1.533 1.533 0 0 0-.606-.537 1.88 1.88 0 0 0-.88-.199c-.329 0-.622.066-.88.199a1.523 1.523 0 0 0-.612.537 1.404 1.404 0 0 0-.219.781c0 .288.072.543.214.765.143.219.343.391.602.517.258.123.556.184.895.184Zm0-4.549c.285 0 .538-.058.76-.174.222-.116.396-.277.522-.482.126-.206.189-.443.189-.711a1.273 1.273 0 0 0-.706-1.168 1.61 1.61 0 0 0-.765-.174 1.63 1.63 0 0 0-.766.174c-.222.112-.396.27-.522.472a1.296 1.296 0 0 0-.184.696c0 .268.063.505.189.711.126.205.3.366.522.482.222.116.476.174.761.174Zm6.428 6.12a1.16 1.16 0 0 1-.845-.348 1.16 1.16 0 0 1-.348-.845c0-.325.116-.603.348-.835a1.16 1.16 0 0 1 .845-.348c.318 0 .596.116.835.348.239.232.358.51.358.835 0 .219-.056.419-.169.602a1.278 1.278 0 0 1-.433.432 1.138 1.138 0 0 1-.591.159Zm6.494.095c-.855-.004-1.591-.214-2.207-.632-.614-.417-1.086-1.022-1.417-1.814-.328-.793-.491-1.745-.488-2.859 0-1.11.165-2.057.493-2.839.331-.782.803-1.377 1.417-1.785.616-.411 1.35-.616 2.202-.616.852 0 1.584.205 2.197.616.617.411 1.091 1.008 1.422 1.79.332.779.496 1.724.492 2.834 0 1.117-.165 2.071-.497 2.864-.328.792-.798 1.397-1.412 1.814-.613.418-1.347.627-2.202.627Zm0-1.785c.583 0 1.049-.294 1.397-.88.348-.587.52-1.467.517-2.64 0-.772-.08-1.415-.239-1.929-.155-.514-.377-.9-.666-1.158a1.45 1.45 0 0 0-1.009-.388c-.58 0-1.044.29-1.392.87-.348.58-.524 1.448-.527 2.605 0 .782.078 1.435.234 1.959.159.52.382.911.671 1.173.288.259.626.388 1.014.388Zm9.639 1.785c-.855-.004-1.591-.214-2.208-.632-.613-.417-1.085-1.022-1.417-1.814-.328-.793-.49-1.745-.487-2.859 0-1.11.164-2.057.492-2.839.332-.782.804-1.377 1.417-1.785.617-.411 1.351-.616 2.203-.616.851 0 1.584.205 2.197.616.617.411 1.091 1.008 1.422 1.79.331.779.495 1.724.492 2.834 0 1.117-.166 2.071-.497 2.864-.328.792-.799 1.397-1.412 1.814-.613.418-1.347.627-2.202.627Zm0-1.785c.583 0 1.049-.294 1.397-.88.348-.587.52-1.467.517-2.64 0-.772-.08-1.415-.239-1.929-.156-.514-.378-.9-.666-1.158a1.452 1.452 0 0 0-1.009-.388c-.58 0-1.044.29-1.392.87-.348.58-.524 1.448-.527 2.605 0 .782.077 1.435.233 1.959.159.52.383.911.671 1.173.289.259.627.388 1.015.388Z"/><path fill="#5DB48A" d="M254.279 224.476a.499.499 0 0 0-.707 0l-3.182 3.182a.5.5 0 0 0 .707.707l2.828-2.829 2.829 2.829a.5.5 0 0 0 .707-.707l-3.182-3.182Zm-.854.353v8.933h1v-8.933h-1Z"/><defs><linearGradient id="a" x1="137.304" x2="136.898" y1="90.076" y2="110.346" gradientUnits="userSpaceOnUse"><stop stop-color="#49A677"/><stop offset="1" stop-color="#fff" stop-opacity="0"/></linearGradient><linearGradient id="b" x1="137.304" x2="136.898" y1="155.322" y2="175.592" gradientUnits="userSpaceOnUse"><stop stop-color="#EB94A2"/><stop offset="1" stop-color="#EB94A2" stop-opacity="0"/></linearGradient><linearGradient id="c" x1="137.304" x2="136.898" y1="218.076" y2="238.346" gradientUnits="userSpaceOnUse"><stop stop-color="#49A677"/><stop offset="1" stop-color="#fff" stop-opacity="0"/></linearGradient></defs></svg>