<svg xmlns="http://www.w3.org/2000/svg" width="341" height="294" fill="none"><path fill="url(#a)" d="M163.707.793a1 1 0 0 0-1.414 0l-6.364 6.364a1 1 0 1 0 1.414 1.414L163 2.914l5.657 5.657a1 1 0 1 0 1.414-1.414L163.707.793ZM162 1.5v4.107h2V1.5h-2Zm0 12.321v8.215h2V13.82h-2Zm0 16.429v8.214h2V30.25h-2Zm0 16.429v8.214h2v-8.214h-2Zm0 16.428v8.214h2v-8.214h-2Zm0 16.429v8.214h2v-8.214h-2Zm0 16.428v8.215h2v-8.215h-2Zm0 16.429v8.214h2v-8.214h-2Zm0 16.428v8.215h2v-8.215h-2Zm0 16.429v8.214h2v-8.214h-2Zm0 16.429v8.214h2v-8.214h-2Zm0 16.428v8.214h2v-8.214h-2Zm0 16.429v8.214h2v-8.214h-2Zm0 16.428v8.215h2v-8.215h-2Zm0 16.429v4.107h2v-4.107h-2Z"/><path stroke="url(#b)" stroke-dasharray="8 8" stroke-width="2" d="M70.7 99v65.329c0 5.523-4.476 10-10 10H11.679c-5.523 0-10 4.477-10 10V293.5"/><path stroke="url(#c)" stroke-dasharray="8 8" stroke-width="2" d="M218.376 50v65.329c0 5.523 4.477 10 10 10h72.03c5.523 0 10 4.477 10 10v124.288c0 5.67 4.709 10.206 10.377 10.059 5.811-.15 12.546-.278 19.246-.321"/><path fill="#fff" d="M138.875 211v-9.92h-20.608v-5.76c.214-.427.512-.939.896-1.536.427-.64.896-1.365 1.408-2.176l15.744-22.848h10.56v25.92h6.848v6.4h-6.848V211h-8Zm-13.056-16.32h13.12v-13.952c0-.896.022-1.856.064-2.88l.128-3.008h-.128a40.04 40.04 0 0 1-1.728 3.072 93.573 93.573 0 0 1-1.792 2.88l-8.832 12.672a5.778 5.778 0 0 1-.448.64 6.851 6.851 0 0 0-.384.576Zm36.799 6.528c1.706 0 3.05.469 4.032 1.408 1.024.939 1.536 2.197 1.536 3.776 0 1.621-.512 2.901-1.536 3.84-.982.896-2.326 1.344-4.032 1.344-1.707 0-3.072-.448-4.096-1.344-.982-.939-1.472-2.219-1.472-3.84 0-1.579.49-2.837 1.472-3.776 1.024-.939 2.389-1.408 4.096-1.408Zm26.96-32.96c3.029 0 5.653.469 7.872 1.408 2.261.896 3.989 2.197 5.184 3.904 1.237 1.664 1.856 3.691 1.856 6.08 0 2.219-.555 4.139-1.664 5.76-1.067 1.621-2.624 2.859-4.672 3.712v.064c2.474.896 4.416 2.197 5.824 3.904 1.408 1.707 2.112 3.861 2.112 6.464 0 2.475-.683 4.608-2.048 6.4-1.323 1.792-3.222 3.2-5.696 4.224-2.432.981-5.355 1.472-8.768 1.472-3.371 0-6.294-.491-8.768-1.472-2.432-1.024-4.331-2.432-5.696-4.224-1.323-1.792-1.984-3.925-1.984-6.4 0-2.56.704-4.693 2.112-6.4 1.408-1.749 3.37-3.072 5.888-3.968v-.064c-2.048-.811-3.627-2.027-4.736-3.648-1.11-1.664-1.664-3.605-1.664-5.824 0-2.389.597-4.416 1.792-6.08 1.237-1.707 2.986-3.008 5.248-3.904 2.261-.939 4.864-1.408 7.808-1.408Zm.064 6.784c-2.006 0-3.606.491-4.8 1.472-1.195.981-1.792 2.347-1.792 4.096s.597 3.115 1.792 4.096c1.194.981 2.794 1.472 4.8 1.472 1.962 0 3.52-.491 4.672-1.472 1.194-.981 1.792-2.347 1.792-4.096s-.576-3.115-1.728-4.096c-1.152-.981-2.731-1.472-4.736-1.472Zm0 29.76c1.621 0 3.008-.235 4.16-.704 1.152-.469 2.026-1.173 2.624-2.112.64-.939.96-2.048.96-3.328 0-1.28-.32-2.389-.96-3.328-.598-.939-1.494-1.643-2.688-2.112-1.152-.512-2.518-.768-4.096-.768-1.579 0-2.966.256-4.16.768-1.195.469-2.112 1.173-2.752 2.112-.64.939-.96 2.048-.96 3.328 0 1.28.32 2.389.96 3.328.64.939 1.536 1.643 2.688 2.112 1.194.469 2.602.704 4.224.704ZM98.638 241.2c-1.173 0-2.12-.267-2.84-.8-.707-.533-1.253-1.273-1.64-2.22l1.56-.82c.213.693.54 1.26.98 1.7.453.427 1.113.64 1.98.64.613 0 1.133-.113 1.56-.34a2.45 2.45 0 0 0 1.02-.96c.24-.427.36-.933.36-1.52 0-.627-.113-1.147-.34-1.56a2.111 2.111 0 0 0-.94-.96c-.413-.213-.92-.32-1.52-.32-.427 0-.827.047-1.2.14-.36.08-.687.213-.98.4a2.672 2.672 0 0 0-.76.74l-1.4-.26.78-7.26h7.42v1.5h-6.06l-.52 4.16-.04.18h.04c.32-.333.727-.6 1.22-.8.507-.2 1.107-.3 1.8-.3.84 0 1.567.18 2.18.54.627.347 1.113.84 1.46 1.48s.52 1.387.52 2.24c0 .68-.113 1.293-.34 1.84a3.984 3.984 0 0 1-.96 1.4c-.413.373-.907.66-1.48.86-.56.2-1.18.3-1.86.3Zm11.961-13.6c.706 0 1.32.1 1.84.3.533.187.993.487 1.38.9.386.4.713.927.98 1.58l-1.48.7c-.2-.613-.527-1.093-.98-1.44-.44-.36-1.054-.54-1.84-.54-.574 0-1.08.147-1.52.44-.44.28-.814.673-1.12 1.18a6.12 6.12 0 0 0-.7 1.78c-.147.68-.22 1.413-.22 2.2v.36h.08c.146-.573.413-1.033.8-1.38.4-.36.846-.62 1.34-.78.506-.173 1-.26 1.48-.26.893 0 1.673.173 2.34.52.666.347 1.18.84 1.54 1.48.373.64.56 1.4.56 2.28 0 .867-.187 1.627-.56 2.28-.374.64-.9 1.133-1.58 1.48-.667.347-1.467.52-2.4.52-1.107 0-2.04-.293-2.8-.88-.76-.587-1.334-1.387-1.72-2.4-.387-1.027-.58-2.2-.58-3.52 0-1.48.226-2.72.68-3.72.453-1.013 1.066-1.78 1.84-2.3a4.68 4.68 0 0 1 2.64-.78Zm-.08 6.58c-.574 0-1.08.12-1.52.36-.427.227-.76.547-1 .96-.24.4-.36.867-.36 1.4 0 .507.126.973.38 1.4.253.413.593.747 1.02 1 .44.24.933.36 1.48.36.906 0 1.613-.24 2.12-.72.506-.493.76-1.173.76-2.04 0-.56-.114-1.04-.34-1.44a2.232 2.232 0 0 0-.98-.94c-.427-.227-.947-.34-1.56-.34Zm11.188 7.02c-1.174 0-2.214-.273-3.12-.82-.894-.56-1.5-1.327-1.82-2.3l1.6-.82c.16.493.38.927.66 1.3.28.36.646.64 1.1.84.466.2 1.046.3 1.74.3.586 0 1.08-.107 1.48-.32.4-.213.706-.5.92-.86.213-.373.32-.8.32-1.28s-.094-.88-.28-1.2c-.174-.32-.454-.553-.84-.7-.387-.16-.894-.24-1.52-.24-.147 0-.307.007-.48.02-.174 0-.354.013-.54.04v-1.6c.12.013.233.02.34.02h.32c.973 0 1.666-.187 2.08-.56.413-.387.62-.987.62-1.8 0-.693-.214-1.22-.64-1.58-.427-.36-1.034-.54-1.82-.54-.84 0-1.48.187-1.92.56-.44.36-.787.853-1.04 1.48l-1.52-.72c.213-.56.533-1.053.96-1.48.426-.427.94-.76 1.54-1a5.494 5.494 0 0 1 2.02-.36c.92 0 1.68.16 2.28.48.6.307 1.046.72 1.34 1.24.306.52.46 1.093.46 1.72 0 .48-.067.913-.2 1.3-.134.373-.32.7-.56.98a2.9 2.9 0 0 1-.78.68c-.294.16-.607.267-.94.32v.04c.44.013.826.1 1.16.26.346.16.64.373.88.64s.42.573.54.92c.133.333.2.687.2 1.06 0 .773-.194 1.46-.58 2.06-.374.6-.9 1.073-1.58 1.42-.68.333-1.474.5-2.38.5Zm16.1-10.2-4.32 4.32-.38.38-3.28 3.28v-2l5.96-5.98h2.02Zm-7.18-4.6V241h-1.6v-14.6h1.6Zm3 8.1 4.42 6.5h-1.94l-3.82-5.6 1.34-.9Zm11.287-4.78v9.92h-1.5v-9.92h1.5Zm4.1 4.2v1.5h-9.72v-1.5h9.72Zm14.347-6.12c1.347 0 2.427.347 3.24 1.04.814.693 1.22 1.633 1.22 2.82 0 1.187-.413 2.113-1.24 2.78-.813.653-1.893.98-3.24.98l-.14.1h-3.24V241h-1.6v-13.2h5Zm-.02 6.22c.947 0 1.647-.193 2.1-.58.467-.4.7-.993.7-1.78s-.233-1.373-.7-1.76c-.453-.4-1.153-.6-2.1-.6h-3.38v4.72h3.38Zm.92.32 4.36 6.66h-1.9l-3.8-5.78 1.34-.88Zm10.549 6.86c-.947 0-1.793-.207-2.54-.62a4.342 4.342 0 0 1-1.72-1.78c-.413-.787-.62-1.72-.62-2.8 0-1.08.207-2.007.62-2.78.413-.787.98-1.387 1.7-1.8.72-.413 1.54-.62 2.46-.62.933 0 1.727.2 2.38.6.667.4 1.173.947 1.52 1.64.347.68.52 1.447.52 2.3 0 .227-.007.433-.02.62a4.518 4.518 0 0 1-.06.5h-8.08v-1.42h7.38l-.82.16c0-.96-.267-1.7-.8-2.22-.52-.52-1.207-.78-2.06-.78-.653 0-1.22.153-1.7.46-.467.293-.833.727-1.1 1.3-.253.56-.38 1.24-.38 2.04 0 .787.133 1.467.4 2.04s.64 1.013 1.12 1.32c.493.293 1.08.44 1.76.44.733 0 1.327-.14 1.78-.42.467-.28.84-.66 1.12-1.14l1.26.74c-.253.453-.58.847-.98 1.18a4.245 4.245 0 0 1-1.38.78 5.56 5.56 0 0 1-1.76.26Zm13.309-10.2h1.68l-4.16 10h-1.6l-4.16-10h1.82l3.16 8.38 3.26-8.38Zm4.171-1.92c-.36 0-.653-.107-.88-.32-.213-.227-.32-.52-.32-.88s.107-.647.32-.86c.227-.227.52-.34.88-.34s.647.113.86.34c.227.213.34.5.34.86s-.113.653-.34.88c-.213.213-.5.32-.86.32Zm.8 1.92v10h-1.6v-10h1.6Zm7.493 10.2c-.947 0-1.794-.207-2.54-.62a4.336 4.336 0 0 1-1.72-1.78c-.414-.787-.62-1.72-.62-2.8 0-1.08.206-2.007.62-2.78.413-.787.98-1.387 1.7-1.8.72-.413 1.54-.62 2.46-.62.933 0 1.726.2 2.38.6a3.93 3.93 0 0 1 1.52 1.64c.346.68.52 1.447.52 2.3 0 .227-.007.433-.02.62a5.055 5.055 0 0 1-.06.5h-8.08v-1.42h7.38l-.82.16c0-.96-.267-1.7-.8-2.22-.52-.52-1.207-.78-2.06-.78-.654 0-1.22.153-1.7.46-.467.293-.834.727-1.1 1.3-.254.56-.38 1.24-.38 2.04 0 .787.133 1.467.4 2.04.266.573.64 1.013 1.12 1.32.493.293 1.08.44 1.76.44.733 0 1.326-.14 1.78-.42.466-.28.84-.66 1.12-1.14l1.26.74c-.254.453-.58.847-.98 1.18a4.245 4.245 0 0 1-1.38.78 5.56 5.56 0 0 1-1.76.26Zm19.268-10.2h1.78l-3.48 10h-1.6l-2.82-7.96-2.66 7.96h-1.6l-3.48-10h1.78l2.52 8.14 2.72-8.14h1.6l2.72 8.14 2.52-8.14Zm7.164 10.2a5.959 5.959 0 0 1-2.7-.62c-.813-.413-1.44-1-1.88-1.76l1.36-.98c.293.613.72 1.093 1.28 1.44.573.347 1.26.52 2.06.52.707 0 1.26-.133 1.66-.4.4-.28.6-.64.6-1.08 0-.28-.093-.533-.28-.76-.173-.24-.513-.413-1.02-.52l-2.4-.5c-.973-.2-1.673-.533-2.1-1-.413-.467-.62-1.047-.62-1.74 0-.547.153-1.047.46-1.5.32-.453.767-.813 1.34-1.08.587-.28 1.273-.42 2.06-.42.987 0 1.82.193 2.5.58a3.62 3.62 0 0 1 1.52 1.64l-1.34.88c-.227-.587-.593-1.013-1.1-1.28a3.224 3.224 0 0 0-1.58-.42c-.48 0-.893.067-1.24.2-.333.133-.593.32-.78.56-.173.227-.26.487-.26.78 0 .293.1.567.3.82.2.24.573.413 1.12.52l2.5.52c.933.187 1.587.493 1.96.92.373.427.56.947.56 1.56a2.84 2.84 0 0 1-.5 1.66c-.333.467-.8.827-1.4 1.08-.6.253-1.293.38-2.08.38ZM188 67c0-9.389 7.611-17 17-17h79.729c9.389 0 17 7.611 17 17s-7.611 17-17 17H205c-9.389 0-17-7.611-17-17Z"/><path fill="#3398F6" d="M231.519 64.643h-7.453L221.763 57l-2.309 7.643-7.454-.007 6.036 4.728L215.727 77l6.036-4.72 6.029 4.72-2.302-7.636 6.029-4.72Z"/><path fill="#005128" d="m226.011 71.094-.518-1.729-3.727 2.915 4.245-1.186Z"/><path fill="#191919" d="M236.186 61h8.381v1.685h-3.295v9.47h-1.812v-9.47h-3.281V61h.007Zm8.023 3.078h1.549v1.56h.029a1.93 1.93 0 0 1 .285-.639c.139-.204.307-.401.505-.566.197-.174.416-.308.657-.418.241-.102.49-.157.738-.157.19 0 .329.008.402.016.073.007.146.023.227.031v1.716a4.93 4.93 0 0 0-.358-.055 2.848 2.848 0 0 0-.358-.023c-.278 0-.541.063-.79.18-.248.119-.46.3-.643.528a2.77 2.77 0 0 0-.438.866 3.92 3.92 0 0 0-.161 1.189v3.842h-1.651v-8.07h.007Zm11.983 8.078h-1.622V71.03h-.029c-.204.41-.504.732-.906.976s-.811.37-1.227.37c-.987 0-1.703-.26-2.141-.787-.439-.528-.658-1.323-.658-2.386v-5.125h1.651v4.952c0 .709.125 1.213.38 1.504.249.291.607.44 1.06.44.351 0 .635-.054.869-.172.234-.119.424-.268.563-.465.146-.189.248-.425.314-.693.066-.267.095-.559.095-.874v-4.684h1.651v8.07Zm2.814-2.59c.051.52.233.881.548 1.094.321.205.701.315 1.147.315.153 0 .329-.016.526-.04.197-.023.387-.078.555-.15.176-.07.314-.18.431-.322.11-.142.161-.323.154-.551a.79.79 0 0 0-.234-.559 1.629 1.629 0 0 0-.555-.354 5.3 5.3 0 0 0-.775-.229c-.292-.063-.584-.133-.884-.204a7.89 7.89 0 0 1-.891-.268 2.665 2.665 0 0 1-.768-.425 1.836 1.836 0 0 1-.54-.677c-.139-.276-.205-.614-.205-1.024 0-.44.102-.803.3-1.102.197-.299.453-.535.752-.716a3.328 3.328 0 0 1 1.016-.386c.373-.07.731-.11 1.067-.11.387 0 .76.047 1.11.134.351.086.673.228.958.433.284.197.518.456.708.771.19.315.307.7.358 1.15h-1.724c-.08-.425-.256-.717-.541-.859a2.081 2.081 0 0 0-.979-.22c-.117 0-.256.008-.416.032a2.138 2.138 0 0 0-.453.118.975.975 0 0 0-.358.251.638.638 0 0 0-.147.433c0 .221.073.394.212.528s.322.244.548.338a5.3 5.3 0 0 0 .775.229c.292.063.592.134.899.204.299.071.591.166.884.268.292.103.548.244.774.425.227.181.409.402.548.67.139.267.212.606.212 1 0 .48-.102.881-.307 1.22-.204.33-.467.606-.789.81a3.557 3.557 0 0 1-1.081.457 5.06 5.06 0 0 1-1.177.142 4.65 4.65 0 0 1-1.315-.173 3.1 3.1 0 0 1-1.045-.52 2.537 2.537 0 0 1-.694-.874c-.168-.346-.256-.764-.27-1.244h1.666v-.015Zm5.451-5.488h1.249v-2.425h1.651v2.425h1.491v1.33h-1.491v4.315c0 .189.008.346.022.488a.938.938 0 0 0 .103.347.476.476 0 0 0 .241.212c.109.047.248.07.438.07.117 0 .234 0 .351-.007a1.81 1.81 0 0 0 .351-.055v1.378c-.183.023-.366.04-.534.063a3.968 3.968 0 0 1-.533.031c-.439 0-.789-.047-1.052-.134a1.349 1.349 0 0 1-.621-.393 1.396 1.396 0 0 1-.307-.646 5.098 5.098 0 0 1-.095-.89v-4.763h-1.25v-1.346h-.014Zm5.56 0h1.564v1.095h.029c.234-.473.555-.803.972-1.008a3.007 3.007 0 0 1 1.352-.307c.591 0 1.103.11 1.541.338.439.22.804.528 1.096.922.293.393.505.85.651 1.37a6.16 6.16 0 0 1 .219 1.668c0 .544-.066 1.071-.197 1.575-.132.512-.329.96-.592 1.354-.263.394-.599.7-1.009.937-.409.236-.884.354-1.439.354-.241 0-.482-.023-.723-.07a3.028 3.028 0 0 1-.695-.229 2.47 2.47 0 0 1-.613-.401 2.428 2.428 0 0 1-.475-.567h-.03v4.03h-1.651V64.08Zm5.773 4.047a4.3 4.3 0 0 0-.132-1.063 2.965 2.965 0 0 0-.395-.913 2.065 2.065 0 0 0-.65-.638 1.722 1.722 0 0 0-.899-.244c-.694 0-1.22.26-1.571.78-.35.519-.526 1.212-.526 2.078 0 .41.044.787.139 1.133.095.347.227.646.417.898.182.252.401.449.657.59.256.15.556.22.892.22.38 0 .694-.086.957-.251a2.09 2.09 0 0 0 .643-.646 2.78 2.78 0 0 0 .365-.905c.066-.338.103-.685.103-1.04Z"/><path fill="#fff" d="M12 100c0-9.389 7.611-17 17-17h69.475c9.389 0 17 7.611 17 17s-7.611 17-17 17H29c-9.389 0-17-7.611-17-17Z"/><path fill="#001726" d="M42 94.178h2.44v9.472h4.52v2.4H42V94.178ZM50.039 98h2.345v8.045h-2.345V98Zm1.172-4c.27 0 .532.085.756.244.224.16.398.386.5.65.104.266.13.557.078.838-.052.281-.182.54-.372.742-.19.203-.433.34-.697.397a1.284 1.284 0 0 1-.785-.083 1.382 1.382 0 0 1-.61-.534 1.517 1.517 0 0 1-.127-1.36 1.46 1.46 0 0 1 .295-.47 1.36 1.36 0 0 1 .442-.314 1.29 1.29 0 0 1 .52-.11Zm10.984.176h2.345v7.095l2.658-3.275h2.875l-3.078 3.725 3.013 4.328H67.06l-2.49-3.977h-.03v3.976h-2.345V94.176ZM53.682 98h2.252v1.1h.032c.224-.41.55-.748.94-.977.392-.229.834-.34 1.28-.322 2.378 0 2.815 1.666 2.815 3.832v4.412h-2.344v-3.912c0-.933-.017-2.134-1.222-2.134-1.219 0-1.407 1.017-1.407 2.066v3.979h-2.345l-.001-8.043Z"/><path fill="#001726" d="M75.008 101.087a1.582 1.582 0 0 0-.1-.592 1.5 1.5 0 0 0-.311-.503 1.402 1.402 0 0 0-.472-.331 1.331 1.331 0 0 0-.556-.107 1.505 1.505 0 0 0-1.123.405c-.31.287-.502.692-.534 1.128h3.096Zm1.987 3.565a4.18 4.18 0 0 1-1.434 1.185 3.92 3.92 0 0 1-1.773.416c-2.345 0-4.222-1.668-4.222-4.25s1.877-4.25 4.222-4.25c2.192 0 3.566 1.666 3.566 4.25v.783h-5.442c.067.445.283.848.608 1.136.325.287.736.44 1.159.431a1.92 1.92 0 0 0 .954-.265 2.06 2.06 0 0 0 .72-.719l1.642 1.283Zm5.249-4.707c-1.173 0-1.876.834-1.876 2.049 0 1.215.703 2.05 1.876 2.05 1.172 0 1.877-.833 1.877-2.05 0-1.217-.703-2.05-1.877-2.05Zm4.036 6.099h-2.159v-1.067h-.032c-.27.388-.622.704-1.026.924-.404.22-.851.337-1.305.343-2.253 0-3.737-1.733-3.737-4.183 0-2.25 1.313-4.316 3.472-4.316.97 0 1.877.283 2.409 1.067h.03v-4.637h2.348v11.869Z"/><defs><linearGradient id="a" x1="163.5" x2="163.5" y1="1.5" y2="231.5" gradientUnits="userSpaceOnUse"><stop stop-color="#fff" stop-opacity=".3"/><stop offset="1" stop-color="#fff" stop-opacity="0"/></linearGradient><linearGradient id="b" x1="36.189" x2="36.189" y1="293.5" y2="99" gradientUnits="userSpaceOnUse"><stop stop-color="#fff" stop-opacity=".3"/><stop offset="1" stop-color="#fff" stop-opacity="0"/></linearGradient><linearGradient id="c" x1="279.202" x2="279.202" y1="270" y2="50" gradientUnits="userSpaceOnUse"><stop stop-color="#fff" stop-opacity=".3"/><stop offset="1" stop-color="#fff" stop-opacity="0"/></linearGradient></defs></svg>