<svg xmlns="http://www.w3.org/2000/svg" width="350" height="294" fill="none"><path fill="url(#a)" d="M172.707.793a1 1 0 0 0-1.414 0l-6.364 6.364a1 1 0 1 0 1.414 1.414L172 2.914l5.657 5.657a1 1 0 1 0 1.414-1.414L172.707.793ZM171 1.5v4.107h2V1.5h-2Zm0 12.321v8.215h2V13.82h-2Zm0 16.429v8.214h2V30.25h-2Zm0 16.429v8.214h2v-8.214h-2Zm0 16.428v8.214h2v-8.214h-2Zm0 16.429v8.214h2v-8.214h-2Zm0 16.428v8.215h2v-8.215h-2Zm0 16.429v8.214h2v-8.214h-2Zm0 16.428v8.215h2v-8.215h-2Zm0 16.429v8.214h2v-8.214h-2Zm0 16.429v8.214h2v-8.214h-2Zm0 16.428v8.214h2v-8.214h-2Zm0 16.429v8.214h2v-8.214h-2Zm0 16.428v8.215h2v-8.215h-2Zm0 16.429v4.107h2v-4.107h-2Z"/><path stroke="url(#b)" stroke-dasharray="8 8" stroke-width="2" d="M.321 74c10.849.943 31.71.71 46.548.325 5.669-.147 10.374 4.388 10.374 10.059v124.287c0 5.523 4.478 10 10 10h71.709c5.523 0 10 4.477 10 10V294"/><path stroke="url(#c)" stroke-dasharray="8 8" stroke-width="2" d="M349.187 74c-10.849.943-31.71.71-46.548.325-5.669-.147-10.375 4.388-10.375 10.059v124.287c0 5.523-4.477 10-10 10h-71.708c-5.523 0-10 4.477-10 10V294"/><rect width="100.326" height="30" x="6.616" y="98" fill="#05F" rx="15"/><path fill="#fff" d="M18.45 109.141v-1.323h7.88v1.323h-3.176V118h-1.532v-8.859h-3.171Zm11.686 9.013c-.752 0-1.4-.161-1.944-.482a3.276 3.276 0 0 1-1.252-1.367c-.292-.59-.438-1.281-.438-2.073 0-.783.146-1.472.438-2.069a3.402 3.402 0 0 1 1.232-1.397c.53-.334 1.15-.502 1.86-.502.43 0 .848.071 1.253.214a3.04 3.04 0 0 1 1.088.671c.322.305.576.701.761 1.188.186.484.279 1.073.279 1.765v.527h-6.07v-1.113h4.613c0-.391-.08-.738-.239-1.039a1.8 1.8 0 0 0-.67-.721 1.873 1.873 0 0 0-1.005-.264c-.418 0-.782.103-1.094.308a2.077 2.077 0 0 0-.716.796 2.298 2.298 0 0 0-.248 1.059v.87c0 .51.09.944.268 1.302.182.358.436.632.76.821.325.185.705.278 1.14.278.28 0 .538-.04.77-.119a1.594 1.594 0 0 0 .99-.97l1.406.254a2.553 2.553 0 0 1-.606 1.089 2.951 2.951 0 0 1-1.09.721c-.433.169-.929.253-1.486.253Zm8.143 0c-.74 0-1.376-.167-1.91-.502a3.326 3.326 0 0 1-1.223-1.397c-.285-.593-.427-1.273-.427-2.038 0-.776.146-1.46.437-2.054a3.356 3.356 0 0 1 1.233-1.397c.53-.334 1.155-.502 1.875-.502.58 0 1.097.108 1.55.323a2.714 2.714 0 0 1 1.602 2.243h-1.447a1.733 1.733 0 0 0-.547-.925c-.282-.259-.66-.388-1.133-.388-.415 0-.778.109-1.09.328-.307.216-.548.524-.72.925-.172.398-.259.868-.259 1.412 0 .557.085 1.037.254 1.442.169.404.408.717.716.939.311.222.678.333 1.099.333.281 0 .536-.051.765-.154a1.57 1.57 0 0 0 .582-.452c.159-.196.27-.431.333-.706h1.447a2.81 2.81 0 0 1-.483 1.322 2.773 2.773 0 0 1-1.078.915c-.448.222-.973.333-1.576.333Zm6.213-4.688V118h-1.487v-10.182h1.467v3.789h.094c.18-.411.453-.738.82-.98.369-.242.85-.363 1.442-.363.524 0 .981.108 1.373.323.394.216.699.537.914.965.22.424.328.954.328 1.591V118h-1.486v-4.678c0-.56-.144-.995-.433-1.303-.288-.311-.689-.467-1.203-.467-.351 0-.666.074-.944.224a1.608 1.608 0 0 0-.652.656c-.155.285-.233.63-.233 1.034Zm8.422 0V118h-1.487v-7.636h1.427v1.243h.095c.175-.405.45-.73.825-.975.378-.245.853-.368 1.427-.368.52 0 .976.11 1.367.328.39.216.694.537.91.965.215.427.323.956.323 1.586V118h-1.487v-4.678c0-.554-.144-.986-.432-1.298-.289-.315-.685-.472-1.188-.472-.345 0-.652.074-.92.224a1.604 1.604 0 0 0-.632.656c-.152.285-.228.63-.228 1.034Zm10.097 4.688c-.716 0-1.34-.164-1.874-.492a3.316 3.316 0 0 1-1.243-1.377c-.295-.59-.443-1.28-.443-2.068 0-.793.148-1.485.443-2.079a3.318 3.318 0 0 1 1.243-1.382c.533-.328 1.158-.492 1.874-.492.716 0 1.34.164 1.874.492.534.329.948.789 1.243 1.382.295.594.443 1.286.443 2.079 0 .788-.148 1.478-.443 2.068a3.316 3.316 0 0 1-1.243 1.377c-.533.328-1.158.492-1.874.492Zm.005-1.248c.464 0 .848-.122 1.153-.368.305-.245.53-.571.677-.979a3.9 3.9 0 0 0 .223-1.347c0-.488-.074-.935-.224-1.343a2.188 2.188 0 0 0-.676-.989c-.305-.249-.69-.373-1.153-.373-.467 0-.855.124-1.163.373a2.222 2.222 0 0 0-.681.989 3.96 3.96 0 0 0-.22 1.343c0 .49.074.939.22 1.347.149.408.376.734.68.979.309.246.697.368 1.164.368Zm6.7-9.088V118H68.23v-10.182h1.486Zm5.217 10.336c-.716 0-1.34-.164-1.875-.492a3.318 3.318 0 0 1-1.242-1.377c-.295-.59-.443-1.28-.443-2.068 0-.793.148-1.485.443-2.079a3.32 3.32 0 0 1 1.242-1.382c.534-.328 1.159-.492 1.875-.492s1.34.164 1.874.492a3.32 3.32 0 0 1 1.243 1.382c.295.594.443 1.286.443 2.079 0 .788-.148 1.478-.443 2.068a3.318 3.318 0 0 1-1.243 1.377c-.534.328-1.158.492-1.874.492Zm.005-1.248c.464 0 .848-.122 1.153-.368.305-.245.53-.571.676-.979.15-.408.224-.857.224-1.347a3.88 3.88 0 0 0-.224-1.343 2.188 2.188 0 0 0-.676-.989c-.305-.249-.69-.373-1.153-.373-.468 0-.855.124-1.164.373a2.223 2.223 0 0 0-.68.989 3.963 3.963 0 0 0-.22 1.343c0 .49.074.939.22 1.347.149.408.376.734.68.979.309.246.697.368 1.164.368Zm8.415 4.117c-.606 0-1.128-.08-1.566-.239-.434-.159-.788-.369-1.064-.631a2.659 2.659 0 0 1-.616-.86l1.278-.527c.09.145.209.3.358.462.152.166.358.307.616.423.262.116.598.174 1.01.174.563 0 1.028-.138 1.396-.413.368-.272.552-.706.552-1.303v-1.501h-.094c-.09.162-.219.343-.388.542a2.097 2.097 0 0 1-.686.517c-.292.146-.671.219-1.139.219a3.179 3.179 0 0 1-1.63-.423c-.48-.285-.862-.704-1.144-1.258-.278-.557-.417-1.241-.417-2.053 0-.812.137-1.508.412-2.088.279-.58.66-1.024 1.144-1.332a2.97 2.97 0 0 1 1.645-.468c.474 0 .857.08 1.149.239.291.156.519.338.68.547.167.209.294.392.384.552h.11v-1.238h1.456v7.805c0 .656-.153 1.195-.458 1.616a2.688 2.688 0 0 1-1.237.934c-.518.203-1.1.304-1.75.304Zm-.014-4.37c.427 0 .788-.1 1.083-.299.299-.202.524-.49.677-.865.155-.377.233-.83.233-1.357 0-.514-.076-.966-.228-1.357a2.02 2.02 0 0 0-.672-.915c-.295-.222-.66-.333-1.094-.333-.447 0-.82.116-1.118.348-.298.229-.524.54-.676.935-.15.394-.224.835-.224 1.322 0 .501.076.94.229 1.318.152.377.378.672.676.885.302.212.673.318 1.114.318Zm6.393 4.211c-.222 0-.424-.019-.606-.055a1.951 1.951 0 0 1-.408-.109l.358-1.218c.272.072.514.104.726.094a.863.863 0 0 0 .561-.239c.166-.149.312-.392.438-.73l.184-.508-2.794-7.735h1.59l1.935 5.926h.08l1.933-5.926h1.596l-3.147 8.655a3.446 3.446 0 0 1-.557 1.009 2.155 2.155 0 0 1-.805.627 2.638 2.638 0 0 1-1.084.209Z"/><rect width="96.61" height="30" x="103.226" y="163" fill="#FFFCEF" rx="15"/><path fill="#001726" d="M116.104 183v-10.182h1.536v4.425h5.076v-4.425h1.542V183h-1.542v-4.44h-5.076V183h-1.536Zm13.563.154c-.753 0-1.401-.161-1.944-.482a3.278 3.278 0 0 1-1.253-1.367c-.292-.59-.438-1.281-.438-2.073 0-.783.146-1.472.438-2.069a3.403 3.403 0 0 1 1.233-1.397c.53-.334 1.15-.502 1.859-.502.431 0 .849.071 1.253.214.404.143.767.366 1.089.671.321.305.575.701.761 1.188.185.484.278 1.073.278 1.765v.527h-6.07v-1.113h4.613c0-.391-.079-.738-.238-1.039a1.797 1.797 0 0 0-.672-.721 1.87 1.87 0 0 0-1.004-.264c-.417 0-.782.103-1.094.308a2.076 2.076 0 0 0-.715.796 2.294 2.294 0 0 0-.249 1.059v.87c0 .51.089.944.268 1.302.183.358.436.632.761.821.325.185.704.278 1.139.278.281 0 .538-.04.77-.119.232-.083.433-.206.602-.368a1.6 1.6 0 0 0 .388-.602l1.407.254a2.554 2.554 0 0 1-.607 1.089 2.945 2.945 0 0 1-1.089.721c-.434.169-.929.253-1.486.253Zm7.148.015a3.12 3.12 0 0 1-1.313-.268 2.218 2.218 0 0 1-.93-.791c-.225-.345-.338-.767-.338-1.268 0-.431.083-.785.249-1.064.166-.278.389-.498.671-.661a3.53 3.53 0 0 1 .945-.368 9.313 9.313 0 0 1 1.064-.189l1.113-.129c.285-.036.492-.094.622-.174.129-.079.194-.209.194-.388v-.034c0-.435-.123-.771-.368-1.01-.242-.238-.604-.358-1.084-.358-.501 0-.895.111-1.183.333-.285.219-.483.463-.592.731l-1.397-.318c.166-.464.408-.838.726-1.124a2.939 2.939 0 0 1 1.109-.626 4.308 4.308 0 0 1 1.317-.199c.305 0 .628.037.969.11.345.069.667.198.965.387.302.189.548.459.741.811.192.348.288.8.288 1.357V183h-1.452v-1.044h-.059a2.13 2.13 0 0 1-.433.567 2.308 2.308 0 0 1-.741.462c-.301.123-.662.184-1.083.184Zm.323-1.193c.411 0 .762-.081 1.054-.244.295-.162.518-.374.671-.636a1.65 1.65 0 0 0 .234-.85v-.985c-.053.053-.156.103-.309.15-.149.043-.32.081-.512.114-.192.03-.379.058-.562.084l-.457.06a3.66 3.66 0 0 0-.79.184c-.236.086-.425.21-.567.373-.139.159-.209.371-.209.636 0 .368.136.647.408.835.271.186.618.279 1.039.279Zm6.912-9.158V183h-1.487v-10.182h1.487Zm5.564 2.546v1.193h-4.171v-1.193h4.171Zm-3.053-1.83h1.487v7.224c0 .288.043.505.129.651a.67.67 0 0 0 .333.293c.139.05.29.075.453.075.119 0 .223-.008.313-.025.089-.016.159-.03.209-.04l.268 1.228a2.925 2.925 0 0 1-.964.159 2.625 2.625 0 0 1-1.094-.208 1.874 1.874 0 0 1-.82-.677c-.209-.304-.314-.687-.314-1.148v-7.532Zm6.348 4.932V183h-1.487v-10.182h1.467v3.789h.094c.179-.411.453-.738.821-.98.368-.242.848-.363 1.442-.363.523 0 .981.108 1.372.323.394.216.699.537.914.965.219.424.329.954.329 1.591V183h-1.487v-4.678c0-.56-.144-.995-.432-1.303-.289-.311-.69-.467-1.204-.467-.351 0-.666.074-.944.224a1.607 1.607 0 0 0-.651.656c-.156.285-.234.63-.234 1.034Zm10.152 4.688c-.739 0-1.376-.167-1.909-.502a3.32 3.32 0 0 1-1.223-1.397c-.285-.593-.428-1.273-.428-2.038 0-.776.146-1.46.438-2.054a3.347 3.347 0 0 1 1.233-1.397c.53-.334 1.155-.502 1.874-.502.58 0 1.097.108 1.551.323.454.212.82.511 1.099.895.282.385.449.834.502 1.348h-1.447a1.73 1.73 0 0 0-.547-.925c-.281-.259-.659-.388-1.133-.388-.414 0-.777.109-1.089.328-.308.216-.549.524-.721.925-.172.398-.258.868-.258 1.412 0 .557.084 1.037.253 1.442.169.404.408.717.716.939.312.222.678.333 1.099.333.282 0 .537-.051.765-.154a1.57 1.57 0 0 0 .582-.452c.159-.196.27-.431.333-.706h1.447a2.814 2.814 0 0 1-.482 1.322 2.776 2.776 0 0 1-1.079.915c-.448.222-.973.333-1.576.333Zm6.949.015c-.484 0-.921-.089-1.313-.268a2.21 2.21 0 0 1-.929-.791c-.226-.345-.338-.767-.338-1.268 0-.431.083-.785.248-1.064.166-.278.39-.498.671-.661a3.53 3.53 0 0 1 .945-.368 9.352 9.352 0 0 1 1.064-.189l1.114-.129c.285-.036.492-.094.621-.174.129-.079.194-.209.194-.388v-.034c0-.435-.123-.771-.368-1.01-.242-.238-.603-.358-1.084-.358-.5 0-.895.111-1.183.333-.285.219-.482.463-.592.731l-1.397-.318c.166-.464.408-.838.726-1.124a2.947 2.947 0 0 1 1.109-.626 4.313 4.313 0 0 1 1.317-.199c.305 0 .628.037.97.11.344.069.666.198.964.387.302.189.549.459.741.811.192.348.288.8.288 1.357V183h-1.451v-1.044h-.06a2.11 2.11 0 0 1-.433.567 2.314 2.314 0 0 1-.74.462c-.302.123-.663.184-1.084.184Zm.323-1.193c.411 0 .762-.081 1.054-.244.295-.162.519-.374.671-.636a1.65 1.65 0 0 0 .234-.85v-.985c-.053.053-.156.103-.308.15-.15.043-.32.081-.512.114-.193.03-.38.058-.562.084l-.458.06a3.674 3.674 0 0 0-.79.184c-.235.086-.424.21-.567.373-.139.159-.209.371-.209.636 0 .368.136.647.408.835.272.186.618.279 1.039.279Zm5.425 1.024v-7.636h1.437v1.213h.08c.139-.411.384-.734.735-.97a2.113 2.113 0 0 1 1.204-.358 7.192 7.192 0 0 1 .631.035v1.422a2.609 2.609 0 0 0-.318-.055 3.071 3.071 0 0 0-.458-.035 1.94 1.94 0 0 0-.939.224 1.67 1.67 0 0 0-.647.612 1.652 1.652 0 0 0-.238.885V183h-1.487Zm8.391.154c-.752 0-1.4-.161-1.944-.482a3.278 3.278 0 0 1-1.253-1.367c-.291-.59-.437-1.281-.437-2.073 0-.783.146-1.472.437-2.069a3.403 3.403 0 0 1 1.233-1.397c.531-.334 1.15-.502 1.86-.502.431 0 .848.071 1.253.214.404.143.767.366 1.088.671.322.305.575.701.761 1.188.186.484.278 1.073.278 1.765v.527h-6.07v-1.113h4.614c0-.391-.08-.738-.239-1.039a1.801 1.801 0 0 0-.671-.721 1.873 1.873 0 0 0-1.004-.264c-.418 0-.783.103-1.094.308a2.079 2.079 0 0 0-.716.796 2.294 2.294 0 0 0-.249 1.059v.87c0 .51.09.944.269 1.302.182.358.436.632.761.821.324.185.704.278 1.138.278.282 0 .539-.04.771-.119a1.6 1.6 0 0 0 .989-.97l1.407.254a2.554 2.554 0 0 1-.607 1.089 2.949 2.949 0 0 1-1.088.721c-.435.169-.93.253-1.487.253Z"/><rect width="91.965" height="30" x="184.972" y="230" fill="#FEC458" rx="15"/><path fill="#001726" d="M198.653 250v-10.182h1.536v8.86h4.613V250h-6.149Zm7.783 0v-7.636h1.486V250h-1.486Zm.75-8.815a.947.947 0 0 1-.666-.258.843.843 0 0 1-.273-.627.83.83 0 0 1 .273-.626.934.934 0 0 1 .666-.263c.259 0 .479.087.662.263a.824.824 0 0 1 .278.626.837.837 0 0 1-.278.627.93.93 0 0 1-.662.258Zm5.938 11.838c-.607 0-1.129-.08-1.566-.239-.435-.159-.789-.369-1.064-.631a2.663 2.663 0 0 1-.617-.86l1.278-.527c.089.145.209.3.358.462.152.166.358.307.616.423.262.116.599.174 1.01.174.563 0 1.029-.138 1.397-.413.367-.272.551-.706.551-1.303v-1.501h-.094c-.09.162-.219.343-.388.542a2.096 2.096 0 0 1-.686.517c-.292.146-.671.219-1.138.219a3.178 3.178 0 0 1-1.631-.423c-.481-.285-.862-.704-1.144-1.258-.278-.557-.417-1.241-.417-2.053 0-.812.137-1.508.412-2.088.279-.58.66-1.024 1.144-1.332a2.97 2.97 0 0 1 1.646-.468c.473 0 .856.08 1.148.239.292.156.519.338.681.547.166.209.293.392.383.552h.109v-1.238h1.457v7.805c0 .656-.153 1.195-.457 1.616a2.69 2.69 0 0 1-1.238.934c-.517.203-1.101.304-1.75.304Zm-.015-4.37c.427 0 .789-.1 1.084-.299a1.86 1.86 0 0 0 .676-.865c.155-.377.233-.83.233-1.357 0-.514-.076-.966-.228-1.357a2.025 2.025 0 0 0-.672-.915c-.295-.222-.659-.333-1.093-.333-.448 0-.821.116-1.119.348-.298.229-.524.54-.676.935a3.715 3.715 0 0 0-.224 1.322c0 .501.076.94.229 1.318.152.377.378.672.676.885.302.212.673.318 1.114.318Zm6.94-3.187V250h-1.486v-10.182h1.466v3.789h.095c.179-.411.452-.738.82-.98.368-.242.848-.363 1.442-.363.523 0 .981.108 1.372.323.394.216.699.537.915.965.218.424.328.954.328 1.591V250h-1.487v-4.678c0-.56-.144-.995-.432-1.303-.289-.311-.69-.467-1.203-.467-.352 0-.667.074-.945.224a1.607 1.607 0 0 0-.651.656c-.156.285-.234.63-.234 1.034Zm10.5-3.102v1.193h-4.171v-1.193h4.171Zm-3.053-1.83h1.487v7.224c0 .288.043.505.129.651a.67.67 0 0 0 .333.293c.14.05.29.075.453.075.119 0 .223-.008.313-.025.089-.016.159-.03.209-.04l.268 1.228a2.925 2.925 0 0 1-.964.159 2.625 2.625 0 0 1-1.094-.208 1.88 1.88 0 0 1-.82-.677c-.209-.304-.314-.687-.314-1.148v-7.532Zm8.522 9.466v-10.182h1.536v8.86h4.614V250h-6.15Zm7.902-10.182h1.864l3.242 7.915h.119l3.242-7.915h1.864V250h-1.462v-7.368h-.094l-3.003 7.353h-1.213l-3.003-7.358h-.094V250h-1.462v-10.182Zm18.118 2.675a1.454 1.454 0 0 0-.656-1.094c-.385-.262-.869-.393-1.452-.393-.418 0-.779.067-1.084.199-.305.13-.542.308-.711.537a1.266 1.266 0 0 0-.248.771c0 .242.056.451.169.626.116.176.266.323.452.443.189.116.391.213.607.293.215.076.422.139.621.189l.994.258c.325.08.658.188 1 .324.341.135.658.314.949.537.292.222.527.497.706.825.182.328.274.721.274 1.178 0 .577-.15 1.089-.448 1.536-.295.448-.724.801-1.287 1.059-.561.259-1.238.388-2.034.388-.762 0-1.422-.121-1.979-.363-.556-.242-.992-.585-1.307-1.029-.315-.447-.489-.978-.522-1.591h1.541c.03.368.149.675.358.92.212.242.482.422.81.542.332.116.695.174 1.089.174.434 0 .82-.068 1.159-.204.341-.139.609-.332.805-.577.196-.248.293-.538.293-.87 0-.301-.086-.548-.258-.741a1.918 1.918 0 0 0-.691-.477 6.752 6.752 0 0 0-.98-.333l-1.203-.328c-.815-.222-1.461-.549-1.939-.98-.474-.43-.711-1-.711-1.71 0-.586.159-1.098.478-1.536a3.14 3.14 0 0 1 1.292-1.019c.544-.245 1.157-.368 1.84-.368.689 0 1.297.121 1.824.363.531.242.948.575 1.253.999.305.421.464.905.477 1.452h-1.481Z"/><rect width="84.534" height="30" x="249.069" y="121" fill="#EB001B" rx="15"/><path fill="#fff" d="M262.418 141v-10.182h3.728c.723 0 1.321.119 1.795.358.474.235.829.555 1.064.96.235.401.353.853.353 1.357 0 .424-.078.782-.234 1.074-.156.288-.364.52-.626.696a2.79 2.79 0 0 1-.855.378v.099c.338.017.668.126.989.328.325.199.593.482.805.85.213.368.319.816.319 1.343 0 .52-.123.987-.368 1.402-.242.411-.617.737-1.124.979-.507.239-1.155.358-1.944.358h-3.902Zm1.536-1.317h2.217c.736 0 1.263-.143 1.581-.428.318-.285.477-.641.477-1.069a1.683 1.683 0 0 0-.939-1.526c-.299-.159-.653-.239-1.064-.239h-2.272v3.262Zm0-4.46h2.058c.345 0 .655-.066.93-.199.278-.132.498-.318.661-.557.166-.242.248-.527.248-.855 0-.421-.147-.774-.442-1.059-.295-.285-.747-.427-1.357-.427h-2.098v3.097Zm12.342 2.61v-4.469h1.491V141h-1.461v-1.322h-.08a2.389 2.389 0 0 1-.845 1.019c-.385.268-.864.402-1.437.402a2.58 2.58 0 0 1-1.303-.323 2.267 2.267 0 0 1-.884-.969c-.213-.428-.319-.956-.319-1.586v-4.857h1.487v4.678c0 .52.144.935.432 1.243.289.308.663.462 1.124.462.278 0 .555-.069.83-.209.279-.139.509-.349.691-.631.186-.282.277-.64.274-1.074Zm9.211-2.605-1.347.239a1.603 1.603 0 0 0-.269-.493 1.33 1.33 0 0 0-.487-.382c-.206-.1-.463-.15-.771-.15-.421 0-.772.095-1.054.284-.281.185-.422.426-.422.721 0 .255.094.46.283.616.189.156.494.284.915.383l1.213.278c.703.163 1.226.413 1.571.751s.517.777.517 1.318c0 .457-.133.865-.398 1.223-.262.354-.628.633-1.098.835-.468.202-1.01.303-1.626.303-.855 0-1.553-.182-2.093-.547-.54-.368-.872-.89-.995-1.566l1.437-.219c.09.375.274.658.552.851.278.189.641.283 1.089.283.487 0 .877-.101 1.168-.303.292-.206.438-.456.438-.751a.782.782 0 0 0-.269-.602c-.175-.162-.446-.285-.81-.367l-1.293-.284c-.712-.162-1.239-.421-1.581-.775-.338-.355-.507-.804-.507-1.348 0-.45.126-.845.378-1.183.252-.338.6-.602 1.044-.79.444-.193.953-.289 1.526-.289.826 0 1.475.179 1.949.537.474.355.787.83.94 1.427ZM287.29 141v-7.636h1.487V141h-1.487Zm.751-8.815a.947.947 0 0 1-.666-.258.844.844 0 0 1-.274-.627.83.83 0 0 1 .274-.626.934.934 0 0 1 .666-.263c.259 0 .479.087.661.263a.822.822 0 0 1 .279.626.835.835 0 0 1-.279.627.927.927 0 0 1-.661.258Zm4.222 4.281V141h-1.486v-7.636h1.427v1.243h.094c.176-.405.451-.73.825-.975.378-.245.854-.368 1.427-.368.521 0 .976.11 1.367.328.391.216.695.537.91.965.216.427.323.956.323 1.586V141h-1.486v-4.678c0-.554-.144-.986-.433-1.298-.288-.315-.684-.472-1.188-.472-.345 0-.651.074-.92.224a1.605 1.605 0 0 0-.631.656c-.153.285-.229.63-.229 1.034Zm10.172 4.688c-.752 0-1.4-.161-1.944-.482a3.278 3.278 0 0 1-1.253-1.367c-.291-.59-.437-1.281-.437-2.073 0-.783.146-1.472.437-2.069a3.403 3.403 0 0 1 1.233-1.397c.531-.334 1.15-.502 1.86-.502.431 0 .848.071 1.253.214.404.143.767.366 1.088.671.322.305.575.701.761 1.188.186.484.278 1.073.278 1.765v.527h-6.07v-1.113h4.614c0-.391-.08-.738-.239-1.039a1.801 1.801 0 0 0-.671-.721 1.873 1.873 0 0 0-1.004-.264c-.418 0-.783.103-1.094.308a2.079 2.079 0 0 0-.716.796 2.294 2.294 0 0 0-.249 1.059v.87c0 .51.09.944.269 1.302.182.358.436.632.761.821.324.185.704.278 1.138.278.282 0 .539-.04.771-.119a1.6 1.6 0 0 0 .989-.97l1.407.254a2.554 2.554 0 0 1-.607 1.089 2.949 2.949 0 0 1-1.088.721c-.435.169-.93.253-1.487.253Zm10.648-5.926-1.347.239a1.603 1.603 0 0 0-.269-.493 1.322 1.322 0 0 0-.487-.382c-.205-.1-.462-.15-.771-.15-.421 0-.772.095-1.054.284-.281.185-.422.426-.422.721 0 .255.094.46.283.616.189.156.494.284.915.383l1.213.278c.703.163 1.226.413 1.571.751s.517.777.517 1.318c0 .457-.132.865-.398 1.223-.261.354-.628.633-1.098.835-.468.202-1.01.303-1.626.303-.855 0-1.553-.182-2.093-.547-.54-.368-.872-.89-.994-1.566l1.436-.219c.09.375.274.658.552.851.279.189.642.283 1.089.283.487 0 .877-.101 1.168-.303.292-.206.438-.456.438-.751a.782.782 0 0 0-.269-.602c-.175-.162-.445-.285-.81-.367l-1.293-.284c-.712-.162-1.239-.421-1.581-.775-.338-.355-.507-.804-.507-1.348 0-.45.126-.845.378-1.183.252-.338.6-.602 1.044-.79.444-.193.953-.289 1.527-.289.825 0 1.474.179 1.948.537.474.355.788.83.94 1.427Zm7.506 0-1.347.239a1.603 1.603 0 0 0-.269-.493 1.33 1.33 0 0 0-.487-.382c-.206-.1-.462-.15-.771-.15-.421 0-.772.095-1.054.284-.281.185-.422.426-.422.721 0 .255.094.46.283.616.189.156.494.284.915.383l1.213.278c.703.163 1.226.413 1.571.751s.517.777.517 1.318c0 .457-.133.865-.398 1.223-.262.354-.628.633-1.098.835-.468.202-1.01.303-1.626.303-.855 0-1.553-.182-2.093-.547-.54-.368-.872-.89-.995-1.566l1.437-.219c.09.375.274.658.552.851.279.189.641.283 1.089.283.487 0 .877-.101 1.168-.303.292-.206.438-.456.438-.751a.782.782 0 0 0-.269-.602c-.175-.162-.446-.285-.81-.367l-1.293-.284c-.712-.162-1.239-.421-1.581-.775-.338-.355-.507-.804-.507-1.348 0-.45.126-.845.378-1.183.252-.338.6-.602 1.044-.79.444-.193.953-.289 1.526-.289.826 0 1.475.179 1.949.537.474.355.787.83.94 1.427Z"/><rect width="131.91" height="30" x="132.023" y="55" fill="#15CF92" rx="15"/><path fill="#001726" d="M143.588 75V64.818h1.537v4.425h5.076v-4.425h1.541V75h-1.541v-4.44h-5.076V75h-1.537Zm10.391 0V64.818h3.629c.789 0 1.444.136 1.964.408.524.272.915.648 1.173 1.128.259.478.388 1.03.388 1.656 0 .623-.131 1.172-.393 1.645-.258.471-.649.837-1.173 1.1-.52.261-1.175.392-1.964.392h-2.749v-1.322h2.61c.497 0 .902-.072 1.213-.214.315-.143.545-.35.691-.622.146-.271.219-.598.219-.98 0-.383-.075-.717-.224-.998a1.445 1.445 0 0 0-.691-.647c-.311-.152-.721-.228-1.228-.228h-1.929V75h-1.536Zm5.026-4.594L161.521 75h-1.75l-2.466-4.594h1.7Zm7.702-5.588h1.865l3.241 7.915h.12l3.241-7.915h1.864V75h-1.461v-7.368h-.095l-3.003 7.353h-1.213l-3.002-7.358h-.095V75h-1.462V64.818Zm14.668 10.351c-.484 0-.922-.09-1.313-.268a2.206 2.206 0 0 1-.929-.79c-.226-.346-.338-.768-.338-1.269 0-.43.083-.785.248-1.064.166-.278.39-.498.671-.66a3.51 3.51 0 0 1 .945-.369 9.396 9.396 0 0 1 1.064-.189l1.114-.129c.285-.036.492-.094.621-.174.129-.08.194-.209.194-.388v-.034c0-.435-.123-.771-.368-1.01-.242-.238-.603-.358-1.084-.358-.5 0-.895.111-1.183.333-.285.22-.482.463-.592.731l-1.397-.318c.166-.464.408-.838.726-1.123a2.945 2.945 0 0 1 1.109-.627 4.325 4.325 0 0 1 1.317-.199c.305 0 .628.037.97.11.344.07.666.198.964.387.302.19.549.46.741.81.192.349.288.801.288 1.358V75h-1.451v-1.044h-.06a2.1 2.1 0 0 1-.433.567c-.192.185-.439.34-.74.462-.302.123-.663.184-1.084.184Zm.323-1.193c.411 0 .762-.081 1.054-.244.295-.162.519-.374.671-.636a1.65 1.65 0 0 0 .234-.85v-.985c-.053.053-.156.103-.308.15-.15.043-.32.08-.512.114-.193.03-.38.058-.562.084l-.458.06a3.692 3.692 0 0 0-.79.184c-.235.086-.424.21-.567.373-.139.159-.209.371-.209.636 0 .368.136.647.408.835.272.186.618.279 1.039.279Zm6.912-3.51V75h-1.487v-7.636h1.427v1.242h.095c.175-.404.45-.729.825-.974.378-.245.853-.368 1.427-.368.52 0 .976.11 1.367.328a2.2 2.2 0 0 1 .91.965c.215.427.323.956.323 1.586V75h-1.487v-4.678c0-.554-.144-.986-.432-1.298-.289-.315-.685-.472-1.188-.472a1.86 1.86 0 0 0-.92.224 1.613 1.613 0 0 0-.632.656c-.152.285-.228.63-.228 1.034Zm9.103 4.703c-.484 0-.922-.09-1.313-.268a2.206 2.206 0 0 1-.929-.79c-.226-.346-.338-.768-.338-1.269 0-.43.082-.785.248-1.064.166-.278.39-.498.671-.66a3.51 3.51 0 0 1 .945-.369 9.396 9.396 0 0 1 1.064-.189l1.113-.129c.285-.036.493-.094.622-.174.129-.08.194-.209.194-.388v-.034c0-.435-.123-.771-.368-1.01-.242-.238-.603-.358-1.084-.358-.5 0-.895.111-1.183.333-.285.22-.482.463-.592.731l-1.397-.318c.166-.464.408-.838.726-1.123a2.945 2.945 0 0 1 1.109-.627 4.32 4.32 0 0 1 1.317-.199c.305 0 .628.037.97.11.344.07.666.198.964.387.302.19.549.46.741.81.192.349.288.801.288 1.358V75h-1.451v-1.044h-.06a2.1 2.1 0 0 1-.433.567c-.192.185-.439.34-.74.462-.302.123-.663.184-1.084.184Zm.323-1.193c.411 0 .762-.081 1.054-.244.295-.162.519-.374.671-.636a1.65 1.65 0 0 0 .234-.85v-.985c-.053.053-.156.103-.308.15-.15.043-.32.08-.513.114-.192.03-.379.058-.561.084l-.458.06a3.678 3.678 0 0 0-.79.184 1.35 1.35 0 0 0-.567.373c-.139.159-.209.371-.209.636 0 .368.136.647.408.835.272.186.618.279 1.039.279Zm8.627 4.047c-.607 0-1.129-.08-1.566-.239-.434-.159-.789-.37-1.064-.631a2.655 2.655 0 0 1-.617-.86l1.278-.527c.09.145.209.3.358.462.153.166.358.307.617.423.261.116.598.174 1.009.174.563 0 1.029-.138 1.397-.413.368-.272.552-.706.552-1.303v-1.501h-.095a3.364 3.364 0 0 1-.388.542 2.086 2.086 0 0 1-.686.517c-.291.146-.671.219-1.138.219a3.18 3.18 0 0 1-1.631-.423c-.48-.285-.862-.704-1.143-1.258-.279-.557-.418-1.241-.418-2.053 0-.812.138-1.508.413-2.088.278-.58.659-1.024 1.143-1.332a2.976 2.976 0 0 1 1.646-.468c.474 0 .857.08 1.148.239.292.156.519.338.681.547.166.209.294.392.383.552h.11v-1.238h1.456v7.805c0 .656-.152 1.195-.457 1.616-.305.42-.718.732-1.238.934-.517.203-1.1.304-1.75.304Zm-.015-4.37c.428 0 .789-.1 1.084-.299a1.86 1.86 0 0 0 .676-.865c.156-.377.234-.83.234-1.357 0-.514-.077-.966-.229-1.357-.153-.391-.376-.696-.671-.915-.295-.222-.66-.333-1.094-.333-.447 0-.82.116-1.119.348-.298.229-.523.54-.676.935a3.718 3.718 0 0 0-.223 1.322c0 .5.076.94.228 1.318.153.377.378.672.676.885.302.212.673.318 1.114.318Zm8.745 1.501c-.752 0-1.4-.16-1.944-.482a3.273 3.273 0 0 1-1.253-1.367c-.291-.59-.437-1.281-.437-2.074 0-.782.146-1.471.437-2.068a3.398 3.398 0 0 1 1.233-1.397c.531-.334 1.15-.502 1.86-.502.43 0 .848.072 1.252.214a3.03 3.03 0 0 1 1.089.671c.322.305.575.701.761 1.188.185.484.278 1.073.278 1.765v.527h-6.07v-1.113h4.614c0-.392-.08-.738-.239-1.04a1.805 1.805 0 0 0-.671-.72 1.875 1.875 0 0 0-1.004-.264 1.94 1.94 0 0 0-1.094.308 2.071 2.071 0 0 0-.716.796 2.293 2.293 0 0 0-.249 1.059v.87c0 .51.09.944.269 1.302.182.358.436.632.76.82.325.186.705.28 1.139.28.282 0 .539-.04.771-.12a1.6 1.6 0 0 0 .989-.97l1.407.254a2.549 2.549 0 0 1-.607 1.089 2.939 2.939 0 0 1-1.088.72c-.435.17-.93.254-1.487.254Zm4.926-.154v-7.636h1.426v1.242h.095c.159-.42.419-.748.78-.984.362-.239.794-.358 1.298-.358.51 0 .938.12 1.283.358.348.239.605.567.77.984h.08c.182-.407.472-.732.87-.974.398-.245.872-.368 1.422-.368.692 0 1.258.217 1.695.651.441.435.661 1.09.661 1.964V75h-1.486v-4.981c0-.518-.141-.892-.423-1.124a1.537 1.537 0 0 0-1.009-.348c-.484 0-.86.149-1.129.447-.268.295-.402.675-.402 1.139V75h-1.482v-5.076c0-.414-.129-.747-.388-1-.258-.251-.595-.377-1.009-.377a1.44 1.44 0 0 0-.78.224c-.236.145-.426.35-.572.611a1.868 1.868 0 0 0-.214.91V75h-1.486Zm15.664.154c-.753 0-1.4-.16-1.944-.482a3.273 3.273 0 0 1-1.253-1.367c-.292-.59-.437-1.281-.437-2.074 0-.782.145-1.471.437-2.068a3.398 3.398 0 0 1 1.233-1.397c.53-.334 1.15-.502 1.859-.502.431 0 .849.072 1.253.214a3.03 3.03 0 0 1 1.089.671c.322.305.575.701.761 1.188.185.484.278 1.073.278 1.765v.527h-6.07v-1.113h4.613c0-.392-.079-.738-.238-1.04a1.805 1.805 0 0 0-.671-.72 1.876 1.876 0 0 0-1.005-.264c-.417 0-.782.103-1.093.308a2.063 2.063 0 0 0-.716.796 2.293 2.293 0 0 0-.249 1.059v.87c0 .51.09.944.269 1.302.182.358.435.632.76.82.325.186.705.28 1.139.28.281 0 .538-.04.77-.12.232-.083.433-.206.602-.368a1.6 1.6 0 0 0 .388-.602l1.407.254a2.549 2.549 0 0 1-.607 1.089 2.935 2.935 0 0 1-1.089.72c-.434.17-.929.254-1.486.254Zm6.412-4.688V75h-1.487v-7.636h1.427v1.242h.095a2.18 2.18 0 0 1 .825-.974c.378-.245.854-.368 1.427-.368.52 0 .976.11 1.367.328a2.2 2.2 0 0 1 .91.965c.215.427.323.956.323 1.586V75h-1.486v-4.678c0-.554-.145-.986-.433-1.298-.288-.315-.684-.472-1.188-.472-.345 0-.651.074-.92.224a1.605 1.605 0 0 0-.631.656c-.153.285-.229.63-.229 1.034Zm10.445-3.102v1.193h-4.171v-1.193h4.171Zm-3.052-1.83h1.486v7.224c0 .288.043.505.129.651a.68.68 0 0 0 .334.293c.139.05.29.075.452.075.119 0 .224-.008.313-.025.09-.016.159-.03.209-.04l.268 1.228a2.924 2.924 0 0 1-.964.16 2.616 2.616 0 0 1-1.094-.21 1.877 1.877 0 0 1-.82-.675c-.209-.305-.313-.688-.313-1.149v-7.532Z"/><defs><linearGradient id="a" x1="172.5" x2="172.5" y1="1.5" y2="231.5" gradientUnits="userSpaceOnUse"><stop stop-color="#fff"/><stop offset="1" stop-color="#fff" stop-opacity="0"/></linearGradient><linearGradient id="b" x1="74.636" x2="74.636" y1="74" y2="294" gradientUnits="userSpaceOnUse"><stop stop-color="#fff" stop-opacity=".2"/><stop offset="1" stop-color="#fff" stop-opacity=".03"/></linearGradient><linearGradient id="c" x1="274.872" x2="274.872" y1="74" y2="294" gradientUnits="userSpaceOnUse"><stop stop-color="#fff" stop-opacity=".2"/><stop offset="1" stop-color="#fff" stop-opacity=".03"/></linearGradient></defs></svg>