<svg xmlns="http://www.w3.org/2000/svg" width="41" height="40" fill="none"><path fill="#3398F6" d="m4 19.5 8-3.5 4.5 1.5h5l8-1.5 8 4.5L21 28 4 19.5Z" opacity=".2"/><path fill="#3398F6" d="M40.02 20.068c0 .938-.626 1.876-1.564 2.267l-6.175 2.658 6.175 2.735c.938.391 1.485 1.33 1.485 2.345 0 .938-.547 1.876-1.485 2.267l-17.04 7.425a4.552 4.552 0 0 1-1.484.235 4.43 4.43 0 0 1-1.407-.234L1.485 32.34C.547 31.95 0 31.011 0 30.073c0-1.016.547-1.954 1.485-2.345l6.175-2.735-6.175-2.658C.547 21.945 0 21.006 0 20.068c0-1.016.547-1.954 1.485-2.345l6.175-2.735-6.175-2.658C.547 11.94 0 11.001 0 9.985 0 9.047.547 8.11 1.485 7.72L18.525.293a3.713 3.713 0 0 1 2.892 0l17.04 7.426c.937.39 1.563 1.328 1.563 2.266a2.56 2.56 0 0 1-1.564 2.345l-6.175 2.658 6.175 2.736a2.56 2.56 0 0 1 1.563 2.344ZM20.01 3.81 5.55 9.985l14.46 6.332 14.382-6.254L20.01 3.81Zm14.382 26.263-6.879-2.97-6.096 2.658a4.424 4.424 0 0 1-1.407.234 4.548 4.548 0 0 1-1.485-.234l-6.097-2.658-6.878 2.892 14.46 6.331 14.382-6.253ZM20.01 26.321l14.382-6.253-6.879-2.97-6.096 2.658a4.424 4.424 0 0 1-1.407.234 4.548 4.548 0 0 1-1.485-.234l-6.097-2.658L5.55 19.99l14.46 6.331Z"/></svg>