<svg xmlns="http://www.w3.org/2000/svg" width="496" height="372" fill="none"><path fill="#fff" stroke="#696969" d="M.5.5h494.861v371H.5z"/><circle cx="166.461" cy="333" r="5" fill="#3398F6"/><path fill="#696969" d="M182.862 338v-8.459h-3.268v-1.125h7.721v1.125h-3.268V338h-1.185Zm7.508.2c-.714 0-1.331-.162-1.85-.486a3.22 3.22 0 0 1-1.192-1.345c-.279-.572-.419-1.229-.419-1.97 0-.754.142-1.415.426-1.983a3.169 3.169 0 0 1 1.205-1.324c.519-.32 1.129-.48 1.83-.48.719 0 1.338.162 1.857.486.519.32.916.766 1.191 1.338.28.568.419 1.222.419 1.963 0 .75-.139 1.411-.419 1.984a3.203 3.203 0 0 1-1.198 1.337c-.519.32-1.136.48-1.85.48Zm0-1.125c.745 0 1.3-.249 1.664-.746.364-.496.546-1.14.546-1.93 0-.812-.185-1.457-.553-1.936-.368-.484-.921-.726-1.657-.726-.501 0-.914.113-1.238.34a2.026 2.026 0 0 0-.725.938c-.16.399-.24.861-.24 1.384 0 .808.186 1.456.559 1.944.373.488.921.732 1.644.732Zm7.755 1.125c-.67 0-1.245-.167-1.724-.499a3.321 3.321 0 0 1-1.112-1.365c-.257-.572-.386-1.218-.386-1.937 0-.718.129-1.364.386-1.936a3.216 3.216 0 0 1 1.112-1.351c.479-.333 1.051-.5 1.717-.5.679 0 1.249.165 1.71.493.462.328.81.779 1.045 1.351.24.572.36 1.22.36 1.943 0 .715-.12 1.36-.36 1.937a3.108 3.108 0 0 1-1.045 1.365c-.461.332-1.029.499-1.703.499Zm.146-1.085c.484 0 .881-.116 1.191-.346a2.04 2.04 0 0 0 .686-.965c.151-.413.226-.881.226-1.405 0-.532-.075-1-.226-1.404-.147-.408-.373-.725-.679-.952-.306-.23-.694-.346-1.165-.346-.488 0-.891.12-1.211.36a2.14 2.14 0 0 0-.705.971 3.935 3.935 0 0 0-.227 1.371c0 .511.078.972.233 1.385.156.408.388.732.699.971.315.24.708.36 1.178.36Zm2.103.885v-5.291h-.133v-4.293h1.191V338h-1.058Zm4.966.2c-.537 0-.987-.098-1.351-.293a2.088 2.088 0 0 1-.818-.786 2.131 2.131 0 0 1-.273-1.064c0-.378.071-.704.213-.979.146-.279.35-.51.612-.692.262-.186.575-.333.938-.439.342-.093.724-.173 1.145-.24.426-.071.857-.135 1.291-.193.435-.057.841-.113 1.218-.166l-.426.246c.014-.639-.115-1.111-.386-1.418-.266-.306-.727-.459-1.384-.459-.435 0-.816.1-1.145.3-.324.195-.552.514-.685.958l-1.125-.339c.173-.63.508-1.125 1.005-1.484.497-.36 1.151-.54 1.963-.54.653 0 1.212.118 1.677.353.471.231.808.581 1.012 1.052.102.222.167.463.193.725.027.258.04.528.04.812V338h-1.051v-1.724l.246.16c-.271.581-.65 1.02-1.138 1.318-.484.297-1.074.446-1.771.446Zm.18-.992c.426 0 .794-.075 1.105-.226.315-.156.568-.357.759-.606.19-.253.315-.528.372-.825.067-.222.102-.468.107-.739a20.5 20.5 0 0 0 .013-.632l.413.179c-.386.054-.766.105-1.138.154-.373.048-.726.102-1.059.159a8.162 8.162 0 0 0-.898.193 2.935 2.935 0 0 0-.553.24 1.25 1.25 0 0 0-.412.379.99.99 0 0 0-.153.566c0 .195.049.382.146.559.102.177.258.322.466.433.213.111.49.166.832.166Zm5.86 3.987 1.391-3.781.02 1.118-3.142-7.72h1.245l2.463 6.21h-.426l2.309-6.21h1.205l-3.914 10.383h-1.151Z"/><circle cx="280" cy="333" r="5" fill="#32D9F6"/><path fill="#696969" d="M296.228 338v-3.987L293 328.416h1.378l2.449 4.24 2.442-4.24h1.378l-3.221 5.597V338h-1.198Zm7.396.2c-.705 0-1.322-.156-1.85-.466a3.262 3.262 0 0 1-1.225-1.311c-.293-.564-.439-1.221-.439-1.97 0-.786.144-1.465.433-2.037a3.16 3.16 0 0 1 1.204-1.331c.519-.315 1.127-.473 1.824-.473.723 0 1.337.167 1.843.5.511.332.892.807 1.145 1.424.257.617.368 1.351.333 2.203h-1.198v-.426c-.013-.883-.193-1.542-.539-1.977-.346-.439-.861-.659-1.544-.659-.732 0-1.289.235-1.671.706-.381.47-.572 1.145-.572 2.023 0 .848.191 1.504.572 1.97.382.466.925.699 1.631.699.475 0 .887-.109 1.238-.326.35-.218.625-.53.825-.939l1.138.393a3.225 3.225 0 0 1-1.265 1.478 3.503 3.503 0 0 1-1.883.519Zm-2.656-3.461v-.952h5.312v.952h-5.312Zm10.121 3.454c-.856 0-1.56-.186-2.11-.559-.546-.377-.88-.903-1.005-1.577l1.212-.193c.097.39.321.701.672.931.35.227.785.34 1.304.34.493 0 .879-.102 1.158-.306a.976.976 0 0 0 .42-.832c0-.204-.047-.369-.14-.493-.093-.128-.286-.248-.579-.359a14.078 14.078 0 0 0-1.311-.4c-.635-.168-1.134-.343-1.498-.525-.364-.182-.623-.393-.779-.633-.155-.239-.232-.53-.232-.871 0-.422.115-.79.346-1.105.23-.32.552-.566.965-.739.417-.173.9-.26 1.451-.26.545 0 1.033.087 1.464.26.43.173.776.419 1.038.739.266.315.424.683.473 1.105l-1.212.219a1.305 1.305 0 0 0-.559-.912c-.31-.221-.712-.339-1.204-.352-.466-.018-.846.064-1.139.246-.288.182-.432.428-.432.739 0 .173.053.321.16.446.111.124.312.241.605.352.298.111.728.238 1.291.38.635.159 1.134.335 1.498.525.368.187.63.409.785.666.156.253.233.566.233.938 0 .693-.255 1.238-.765 1.638-.51.395-1.214.592-2.11.592Zm8.356-.193a5.326 5.326 0 0 1-1.264.1 2.816 2.816 0 0 1-1.105-.246 1.594 1.594 0 0 1-.739-.719 2.137 2.137 0 0 1-.233-.859 32.694 32.694 0 0 1-.013-.991v-6.47h1.185v6.416c0 .293.002.544.006.752.009.209.056.389.14.539.16.284.413.451.759.5.35.048.772.035 1.264-.04V338Zm-4.812-6.21v-.978h4.812v.978h-4.812Zm9.087 6.41c-.705 0-1.322-.156-1.85-.466a3.26 3.26 0 0 1-1.224-1.311c-.293-.564-.44-1.221-.44-1.97 0-.786.144-1.465.433-2.037.288-.577.69-1.02 1.205-1.331.519-.315 1.127-.473 1.823-.473.723 0 1.338.167 1.844.5.51.332.892.807 1.144 1.424.258.617.369 1.351.333 2.203h-1.198v-.426c-.013-.883-.193-1.542-.539-1.977-.346-.439-.861-.659-1.544-.659-.732 0-1.289.235-1.67.706-.382.47-.573 1.145-.573 2.023 0 .848.191 1.504.573 1.97.381.466.925.699 1.63.699.475 0 .888-.109 1.238-.326.351-.218.626-.53.825-.939l1.138.393a3.223 3.223 0 0 1-1.264 1.478 3.507 3.507 0 0 1-1.884.519Zm-2.655-3.461v-.952h5.311v.952h-5.311ZM328.47 338v-7.188h1.058v1.737l-.173-.226c.084-.222.193-.426.326-.612.138-.187.291-.34.459-.46a2.07 2.07 0 0 1 .633-.346c.235-.08.475-.126.719-.139a2.29 2.29 0 0 1 .685.046v1.112a2.237 2.237 0 0 0-.819-.054c-.297.031-.572.14-.825.326-.231.165-.41.364-.539.599a2.595 2.595 0 0 0-.259.766c-.049.27-.074.548-.074.832V338h-1.191Zm7.657.2c-.669 0-1.244-.167-1.723-.499a3.321 3.321 0 0 1-1.112-1.365c-.257-.572-.386-1.218-.386-1.937 0-.718.129-1.364.386-1.936a3.216 3.216 0 0 1 1.112-1.351c.479-.333 1.051-.5 1.717-.5.679 0 1.249.165 1.71.493.462.328.81.779 1.045 1.351.24.572.36 1.22.36 1.943 0 .715-.12 1.36-.36 1.937a3.108 3.108 0 0 1-1.045 1.365c-.461.332-1.029.499-1.704.499Zm.147-1.085c.484 0 .881-.116 1.191-.346a2.04 2.04 0 0 0 .686-.965c.151-.413.226-.881.226-1.405 0-.532-.075-1-.226-1.404-.147-.408-.373-.725-.679-.952-.306-.23-.694-.346-1.165-.346-.488 0-.892.12-1.211.36-.315.239-.55.563-.706.971-.15.409-.226.866-.226 1.371 0 .511.078.972.233 1.385.155.408.388.732.699.971.315.24.708.36 1.178.36Zm2.103.885v-5.291h-.133v-4.293h1.191V338h-1.058Zm4.966.2c-.537 0-.987-.098-1.351-.293a2.097 2.097 0 0 1-.819-.786 2.14 2.14 0 0 1-.272-1.064c0-.378.071-.704.213-.979.146-.279.35-.51.612-.692.262-.186.574-.333.938-.439.342-.093.724-.173 1.145-.24.426-.071.856-.135 1.291-.193.435-.057.841-.113 1.218-.166l-.426.246c.014-.639-.115-1.111-.386-1.418-.266-.306-.727-.459-1.384-.459-.435 0-.817.1-1.145.3-.324.195-.552.514-.685.958l-1.125-.339c.173-.63.508-1.125 1.005-1.484.497-.36 1.151-.54 1.963-.54.652 0 1.211.118 1.677.353.471.231.808.581 1.012 1.052.102.222.166.463.193.725.027.258.04.528.04.812V338h-1.052v-1.724l.247.16c-.271.581-.65 1.02-1.138 1.318-.484.297-1.074.446-1.771.446Zm.18-.992c.426 0 .794-.075 1.105-.226a2.11 2.11 0 0 0 .758-.606c.191-.253.315-.528.373-.825.067-.222.102-.468.107-.739.008-.275.013-.486.013-.632l.413.179c-.386.054-.766.105-1.139.154-.372.048-.725.102-1.058.159a8.112 8.112 0 0 0-.898.193c-.195.062-.38.142-.553.24a1.25 1.25 0 0 0-.412.379.99.99 0 0 0-.153.566c0 .195.048.382.146.559.102.177.257.322.466.433.213.111.49.166.832.166Zm5.86 3.987 1.391-3.781.02 1.118-3.142-7.72h1.245l2.462 6.21h-.426l2.31-6.21h1.204l-3.913 10.383h-1.151Z"/><g clip-path="url(#a)"><path fill="#696969" d="M26.215 283.149v-8.272l-1.803 1.091v-1.324l1.803-1.078h1.205v9.583h-1.205Zm6.972.2c-.621 0-1.176-.14-1.664-.419a3.181 3.181 0 0 1-1.151-1.152c-.28-.488-.42-1.042-.42-1.663V276.6c0-.621.14-1.175.42-1.663a3.12 3.12 0 0 1 1.151-1.152c.488-.279 1.043-.419 1.664-.419s1.176.14 1.664.419c.488.28.872.664 1.151 1.152.28.488.42 1.042.42 1.663v3.515c0 .621-.14 1.175-.42 1.663-.28.484-.663.868-1.151 1.152-.488.279-1.043.419-1.664.419Zm0-1.138c.377 0 .719-.091 1.025-.273a2.07 2.07 0 0 0 .732-.732c.182-.311.273-.652.273-1.025v-3.654c0-.377-.091-.719-.273-1.025a2.069 2.069 0 0 0-.732-.732 1.968 1.968 0 0 0-1.025-.273 1.99 1.99 0 0 0-1.025.273 2.07 2.07 0 0 0-.732.732 1.969 1.969 0 0 0-.273 1.025v3.654c0 .373.091.714.273 1.025.182.306.426.55.732.732.31.182.652.273 1.025.273Z"/><path stroke="#101214" stroke-dasharray="3.33" stroke-opacity=".2" d="M63.462 277.438h408.79"/></g><g clip-path="url(#b)"><path fill="#696969" d="M26.215 226.885v-8.273l-1.803 1.092v-1.325l1.803-1.078h1.205v9.584h-1.205Zm6.573.199c-.493 0-.952-.102-1.378-.306a3.286 3.286 0 0 1-1.085-.838 3.296 3.296 0 0 1-.639-1.238l1.138-.306c.08.315.222.588.426.818.204.227.442.404.712.533.275.124.562.186.859.186.39 0 .741-.093 1.052-.279.315-.191.563-.442.745-.753.182-.315.273-.658.273-1.031 0-.386-.096-.734-.286-1.045a2.046 2.046 0 0 0-.752-.745 2.026 2.026 0 0 0-1.032-.273c-.421 0-.783.088-1.085.266a2.14 2.14 0 0 0-.705.639l-1.052-.4.293-5.011h5.145v1.125h-4.573l.526-.493-.246 4.013-.26-.339c.267-.284.584-.504.952-.659a2.94 2.94 0 0 1 1.138-.233 3.07 3.07 0 0 1 2.715 1.551 3.14 3.14 0 0 1 .413 1.604c0 .59-.15 1.129-.452 1.617a3.443 3.443 0 0 1-1.205 1.165 3.207 3.207 0 0 1-1.637.432Z"/><path stroke="#101214" stroke-dasharray="3.33" stroke-opacity=".2" d="M61.984 221.173h408.79"/></g><path fill="#696969" d="M27.174 170.796a3.36 3.36 0 0 1-1.325-.26 3.136 3.136 0 0 1-1.058-.745 3.029 3.029 0 0 1-.645-1.152l1.138-.326c.146.444.39.781.732 1.012.341.231.725.344 1.151.339.39-.009.728-.097 1.012-.266.288-.173.51-.408.665-.705.16-.298.24-.642.24-1.032 0-.595-.177-1.076-.532-1.444-.355-.373-.821-.559-1.398-.559-.16 0-.328.022-.506.066a2.232 2.232 0 0 0-.486.187l-.572-.939 3.554-3.214.153.399h-4.772v-1.131h5.65v1.138l-3.028 2.901-.013-.419c.634-.044 1.189.06 1.664.313a2.68 2.68 0 0 1 1.105 1.085c.266.47.399 1.009.399 1.617 0 .612-.138 1.154-.413 1.624-.275.47-.648.841-1.118 1.111-.47.267-1.003.4-1.597.4Zm8.093.013c-.621 0-1.176-.14-1.664-.419a3.182 3.182 0 0 1-1.151-1.152c-.28-.488-.42-1.042-.42-1.664v-3.514c0-.621.14-1.175.42-1.663a3.115 3.115 0 0 1 1.151-1.152c.488-.279 1.043-.419 1.664-.419s1.176.14 1.664.419c.488.28.872.663 1.151 1.152.28.488.42 1.042.42 1.663v3.514c0 .622-.14 1.176-.42 1.664-.28.484-.663.868-1.151 1.152-.488.279-1.043.419-1.664.419Zm0-1.138c.377 0 .719-.091 1.025-.273a2.07 2.07 0 0 0 .732-.732c.182-.311.273-.652.273-1.025v-3.654c0-.377-.091-.719-.273-1.025a2.068 2.068 0 0 0-.732-.732 1.967 1.967 0 0 0-1.025-.273 1.99 1.99 0 0 0-1.025.273 2.07 2.07 0 0 0-.732.732 1.969 1.969 0 0 0-.273 1.025v3.654c0 .373.09.714.273 1.025.182.306.426.55.732.732.31.182.652.273 1.025.273Z"/><path stroke="#101214" stroke-dasharray="3.33" stroke-opacity=".2" d="M66.408 164.898h408.79"/><path fill="#696969" d="M27.813 114.544a3.2 3.2 0 0 1-1.657-.439 3.28 3.28 0 0 1-1.178-1.198 3.441 3.441 0 0 1-.433-1.724v-3.188c0-.67.144-1.262.432-1.777a3.148 3.148 0 0 1 1.198-1.211c.51-.293 1.092-.439 1.744-.439a3.36 3.36 0 0 1 1.471.326c.457.213.84.521 1.151.925l-.885.785a2.076 2.076 0 0 0-.745-.665 2.068 2.068 0 0 0-.992-.246 2.09 2.09 0 0 0-1.125.306 2.17 2.17 0 0 0-.765.798 2.13 2.13 0 0 0-.28 1.065v1.924l-.259-.293a3.16 3.16 0 0 1 1.065-.958c.43-.24.896-.36 1.398-.36.594 0 1.127.14 1.597.419.475.28.847.659 1.118 1.138.275.475.413 1.01.413 1.604a3.03 3.03 0 0 1-.446 1.618 3.358 3.358 0 0 1-1.192 1.158 3.171 3.171 0 0 1-1.63.432Zm0-1.144c.381 0 .73-.091 1.045-.273a2.073 2.073 0 0 0 .745-2.835 2.005 2.005 0 0 0-.745-.746 1.982 1.982 0 0 0-1.039-.279c-.381 0-.73.093-1.044.279a2.072 2.072 0 0 0-1.025 1.79c0 .378.09.724.272 1.039.187.31.435.559.746.745.315.186.663.28 1.045.28Zm8.234 1.144c-.621 0-1.176-.139-1.664-.419a3.187 3.187 0 0 1-1.152-1.151c-.279-.488-.419-1.043-.419-1.664v-3.514c0-.621.14-1.176.42-1.664a3.122 3.122 0 0 1 1.15-1.152c.489-.279 1.044-.419 1.665-.419s1.176.14 1.664.419c.488.28.872.664 1.151 1.152.28.488.42 1.043.42 1.664v3.514c0 .621-.14 1.176-.42 1.664a3.12 3.12 0 0 1-1.151 1.151c-.488.28-1.043.419-1.664.419Zm0-1.138c.377 0 .719-.091 1.025-.273.306-.181.55-.426.732-.732a1.99 1.99 0 0 0 .273-1.025v-3.653c0-.378-.091-.719-.273-1.025a2.064 2.064 0 0 0-.732-.733 1.977 1.977 0 0 0-1.025-.272 2 2 0 0 0-1.025.272c-.306.182-.55.426-.732.733a1.966 1.966 0 0 0-.273 1.025v3.653c0 .373.09.715.273 1.025.182.306.426.551.732.732.31.182.652.273 1.025.273Z"/><path stroke="#101214" stroke-dasharray="3.33" stroke-opacity=".2" d="M66.408 108.633h408.79"/><path stroke="#32D9F6" stroke-width="3.328" d="M466.736 173.494c-5.165 0-5.561 3.705-11.342 11.004-5.78 7.299-15.422 1.52-19.403 14.252-3.981 12.732-2.589 27.196-9.633 27.196-7.045 0-14.568-6.974-23.741-3.664-9.173 3.309-20.603 12.108-27.927 12.108-7.325 0-18.758-8.444-25.108-8.444h-23.244c-6.879 0-17.93-21.804-27.435-20.478-9.505 1.326-12.045 20.478-21.501 20.478-9.457 0-23.239 23.47-32.618 27.16-9.38 3.689-15.594-16.814-24.934-23.532-9.34-6.719-30.608-13.593-36.724-13.593-6.115 0-8.205 8.858-17.521 8.858h-27.757s-27.753 2.215-33.06 1.107c-5.307-1.107-11.53-9.965-17.399-9.965-5.869 0-10.398 9.965-15.627 9.965h-12.73"/><path stroke="#3398F6" stroke-width="3.328" d="M59.03 265.882h42.458c1.461 0 2.913.24 4.296.712l7.518 2.564a13.31 13.31 0 0 0 7.417.341l12.269-2.958a13.303 13.303 0 0 1 5.498-.157l5.266.956a13.31 13.31 0 0 0 8.431-1.242l6.691-3.417a13.31 13.31 0 0 1 6.053-1.456h14.682a13.3 13.3 0 0 0 6.078-1.469l28.117-14.433a11.676 11.676 0 0 1 5.329-1.288c3.721 0 7.219-1.774 9.416-4.777l36.653-50.093a6.658 6.658 0 0 1 8.994-1.656l.359.233a6.042 6.042 0 0 0 6.882-.216 6.042 6.042 0 0 1 8.284 1.043l3.689 4.539a12.16 12.16 0 0 0 16.373 2.315l14.582-10.131a13.286 13.286 0 0 1 3.754-1.813l7.192-2.167a13.313 13.313 0 0 0 8.313-7.316l7.972-17.846a3.488 3.488 0 0 1 5.022-1.543 3.49 3.49 0 0 0 5.18-1.966l6.807-22.744c2.231-7.456 12.793-7.443 15.007.018.214.723.323 1.473.323 2.227v3.073a13.31 13.31 0 0 0 3.96 9.473l5.618 5.546a13.309 13.309 0 0 0 15.433 2.367l16.262-8.353a10.696 10.696 0 0 1 12.255 1.759l5.018 4.767a4.727 4.727 0 0 0 7.126-.711 4.727 4.727 0 0 1 3.87-2.011h11.379"/><path fill="#001726" d="m144.985 55.865-4.203-14.376h2.526l2.865 10.383 2.855-10.363 2.526-.02 2.865 10.383 2.855-10.383h2.526l-4.193 14.376h-2.376l-2.945-10.223-2.925 10.223h-2.376Zm20.156.3c-1.091 0-2.049-.236-2.875-.71a5.041 5.041 0 0 1-1.936-1.966c-.46-.838-.689-1.803-.689-2.895 0-1.178.226-2.2.679-3.065.452-.872 1.081-1.547 1.886-2.026.806-.48 1.737-.72 2.796-.72 1.118 0 2.066.264 2.845.79.785.519 1.368 1.254 1.747 2.206s.522 2.073.429 3.364h-2.386v-.878c-.006-1.172-.213-2.027-.619-2.566-.406-.54-1.045-.809-1.917-.809-.985 0-1.717.306-2.196.919-.479.605-.719 1.494-.719 2.665 0 1.092.24 1.937.719 2.536s1.178.898 2.097.898c.592 0 1.101-.13 1.527-.389.433-.266.765-.649.998-1.148l2.376.719c-.412.972-1.051 1.727-1.916 2.266a5.245 5.245 0 0 1-2.846.809Zm-3.713-5.022v-1.817h7.417v1.817h-7.417Zm16.004 5.022c-1.052 0-1.933-.25-2.646-.749-.712-.5-1.247-1.178-1.607-2.037-.359-.865-.539-1.833-.539-2.905 0-1.084.18-2.056.539-2.915.36-.858.885-1.534 1.577-2.026.699-.5 1.561-.75 2.586-.75 1.018 0 1.9.25 2.646.75.752.492 1.334 1.168 1.747 2.026.412.852.619 1.824.619 2.915 0 1.079-.203 2.047-.609 2.905-.406.859-.979 1.538-1.717 2.037-.739.5-1.604.749-2.596.749Zm-5.201-.3V41.49h2.426v6.809h-.3v7.567h-2.126Zm4.832-1.857c.625 0 1.141-.156 1.547-.469.406-.313.705-.735.898-1.268.2-.539.3-1.138.3-1.797 0-.652-.1-1.244-.3-1.777-.199-.539-.509-.965-.928-1.278-.419-.319-.952-.479-1.597-.479-.613 0-1.112.15-1.498.45-.386.292-.672.705-.858 1.237-.18.526-.27 1.142-.27 1.847 0 .7.09 1.315.27 1.847.186.533.476.949.868 1.248.4.293.922.44 1.568.44Zm11.401 2.157c-1.331 0-2.413-.3-3.245-.899-.832-.599-1.338-1.44-1.517-2.526l2.456-.379c.126.533.406.952.838 1.258.433.306.979.46 1.637.46.579 0 1.025-.114 1.338-.34.32-.233.479-.55.479-.949 0-.246-.06-.442-.179-.589-.113-.153-.366-.3-.759-.439a24.1 24.1 0 0 0-1.807-.529c-.905-.24-1.624-.496-2.156-.769-.533-.28-.916-.609-1.148-.988-.233-.38-.35-.839-.35-1.378 0-.672.176-1.258.529-1.757.353-.499.845-.882 1.478-1.148.632-.273 1.377-.41 2.236-.41.839 0 1.581.13 2.226.39.652.26 1.178.63 1.578 1.108.399.48.645 1.042.738 1.688l-2.456.439a1.543 1.543 0 0 0-.628-1.088c-.353-.267-.826-.416-1.418-.45-.566-.033-1.022.054-1.368.26-.346.2-.519.482-.519.848 0 .207.07.383.21.53.14.146.419.292.838.439a26.26 26.26 0 0 0 1.897.539c.859.22 1.544.473 2.057.759.519.28.892.615 1.118 1.008.233.393.349.868.349 1.428 0 1.084-.396 1.936-1.188 2.555-.785.62-1.873.929-3.264.929Zm6.838-12.719V41.24h2.406v2.206h-2.406Zm0 12.42V45.082h2.406v10.782h-2.406Zm11.716 0a9.825 9.825 0 0 1-2.096.169c-.679-.013-1.288-.136-1.827-.37a2.53 2.53 0 0 1-1.228-1.127 3.214 3.214 0 0 1-.389-1.428 58.05 58.05 0 0 1-.02-1.647v-9.375h2.396v9.235c0 .432.003.812.01 1.138.013.326.083.592.209.799.24.399.622.622 1.148.669.526.046 1.125.02 1.797-.08v2.016Zm-7.517-8.896v-1.887h7.517v1.887h-7.517Zm14.191 9.195c-1.091 0-2.049-.236-2.875-.71a5.041 5.041 0 0 1-1.936-1.966c-.46-.838-.689-1.803-.689-2.895 0-1.178.226-2.2.679-3.065.452-.872 1.081-1.547 1.886-2.026.806-.48 1.737-.72 2.796-.72 1.118 0 2.066.264 2.845.79.785.519 1.368 1.254 1.747 2.206s.522 2.073.429 3.364h-2.386v-.878c-.006-1.172-.213-2.027-.619-2.566-.406-.54-1.045-.809-1.916-.809-.985 0-1.718.306-2.197.919-.479.605-.719 1.494-.719 2.665 0 1.092.24 1.937.719 2.536s1.178.898 2.097.898c.592 0 1.101-.13 1.527-.389.433-.266.766-.649.998-1.148l2.376.719c-.412.972-1.051 1.727-1.916 2.266a5.245 5.245 0 0 1-2.846.809Zm-3.713-5.022v-1.817h7.417v1.817h-7.417Zm20.141 5.022c-1.052 0-2-.183-2.845-.55a5.375 5.375 0 0 1-2.077-1.567c-.539-.685-.882-1.497-1.028-2.436l2.496-.379c.213.852.649 1.51 1.308 1.977.665.466 1.431.698 2.296.698.512 0 .995-.08 1.447-.24.453-.159.819-.392 1.098-.698.287-.306.43-.682.43-1.128 0-.2-.034-.383-.1-.55a1.302 1.302 0 0 0-.3-.458 1.835 1.835 0 0 0-.499-.36 3.368 3.368 0 0 0-.699-.29l-3.713-1.097a10.71 10.71 0 0 1-1.039-.37 4.484 4.484 0 0 1-1.048-.649 3.339 3.339 0 0 1-.808-1.058c-.207-.432-.31-.965-.31-1.597 0-.925.233-1.7.699-2.326.472-.633 1.105-1.105 1.897-1.418.798-.313 1.684-.466 2.655-.46.985.008 1.864.177 2.636.51a5.014 5.014 0 0 1 1.937 1.428c.519.625.885 1.38 1.098 2.266l-2.586.45a2.805 2.805 0 0 0-.619-1.289 2.887 2.887 0 0 0-1.108-.818 3.731 3.731 0 0 0-2.725-.08c-.406.146-.736.36-.989.639-.246.28-.369.605-.369.978 0 .353.106.642.319.869.213.22.476.396.789.529.319.126.642.233.968.32l2.576.718c.353.093.749.22 1.188.38.439.159.862.382 1.268.668.406.286.739.662.998 1.128.266.466.399 1.059.399 1.777 0 .746-.156 1.401-.469 1.967a4.115 4.115 0 0 1-1.248 1.398 5.698 5.698 0 0 1-1.807.838 7.88 7.88 0 0 1-2.116.28Zm14.121-.3a9.83 9.83 0 0 1-2.097.17c-.679-.013-1.288-.136-1.827-.37a2.535 2.535 0 0 1-1.228-1.127 3.214 3.214 0 0 1-.389-1.428 62.044 62.044 0 0 1-.02-1.647v-9.375h2.396v9.235c0 .432.003.812.01 1.138.013.326.083.592.21.799.239.399.622.622 1.148.669.526.046 1.125.02 1.797-.08v2.016Zm-7.518-8.895v-1.887h7.518v1.887h-7.518Zm12.851 9.195c-.779 0-1.437-.147-1.977-.44a3.11 3.11 0 0 1-1.228-1.188 3.31 3.31 0 0 1-.409-1.627c0-.519.087-.985.26-1.397.173-.42.439-.78.798-1.079.36-.306.826-.555 1.398-.748.433-.14.938-.267 1.517-.38a35.439 35.439 0 0 1 1.897-.31c.686-.099 1.401-.206 2.147-.319l-.859.49c.007-.746-.16-1.295-.499-1.648-.339-.352-.912-.529-1.717-.529-.486 0-.955.113-1.408.34-.452.226-.768.615-.948 1.168l-2.196-.69a4.081 4.081 0 0 1 1.517-2.196c.752-.552 1.764-.828 3.035-.828.958 0 1.8.156 2.526.47a3.137 3.137 0 0 1 1.627 1.537c.193.379.309.768.349 1.168.04.392.06.822.06 1.287v6.62h-2.106v-2.337l.349.38c-.486.778-1.055 1.35-1.707 1.717-.646.359-1.454.539-2.426.539Zm.479-1.917c.546 0 1.012-.096 1.398-.29a2.72 2.72 0 0 0 .918-.708c.233-.28.39-.543.47-.789a3 3 0 0 0 .209-1.048c.02-.4.03-.722.03-.969l.739.22c-.725.113-1.348.213-1.867.3-.519.086-.965.17-1.338.25a8.557 8.557 0 0 0-.988.249c-.28.1-.516.216-.709.35a1.54 1.54 0 0 0-.449.458c-.1.173-.15.376-.15.61 0 .266.067.502.2.708.133.2.326.36.579.48.259.12.579.179.958.179Zm14.33 1.617a9.835 9.835 0 0 1-2.097.17c-.679-.013-1.288-.136-1.827-.37a2.535 2.535 0 0 1-1.228-1.127 3.214 3.214 0 0 1-.389-1.428 62.044 62.044 0 0 1-.02-1.647v-9.375h2.396v9.235c0 .432.003.812.01 1.138.013.326.083.592.21.799.239.399.622.622 1.148.669.525.046 1.124.02 1.797-.08v2.016Zm-7.518-8.895v-1.887h7.518v1.887h-7.518Zm13.999 9.195c-1.331 0-2.413-.3-3.244-.899-.832-.599-1.338-1.44-1.518-2.526l2.456-.379c.126.533.406.952.839 1.258.432.306.978.46 1.637.46.579 0 1.025-.114 1.338-.34.319-.233.479-.55.479-.949 0-.246-.06-.442-.18-.589-.113-.153-.366-.3-.759-.439a24.09 24.09 0 0 0-1.807-.529c-.905-.24-1.624-.496-2.156-.769-.532-.28-.915-.609-1.148-.988-.233-.38-.35-.839-.35-1.378 0-.672.177-1.258.53-1.757.352-.499.845-.882 1.477-1.148.632-.273 1.378-.41 2.236-.41.839 0 1.581.13 2.227.39.652.26 1.178.63 1.577 1.108.399.48.646 1.042.739 1.688l-2.456.439c-.06-.46-.27-.822-.629-1.088-.353-.267-.825-.416-1.418-.45-.565-.033-1.021.054-1.367.26-.347.2-.52.482-.52.848 0 .207.07.383.21.53.14.146.419.292.839.439.426.146 1.058.326 1.896.539.859.22 1.545.473 2.057.759.519.28.892.615 1.118 1.008.233.393.35.868.35 1.428 0 1.084-.396 1.936-1.188 2.555-.786.62-1.874.929-3.265.929Zm9.638-.3 4.532-14.376h3.524l4.533 14.376h-2.476l-4.113-12.898h.539l-4.063 12.898h-2.476Zm2.526-3.114v-2.247h7.547v2.247h-7.547Zm16.55 3.414c-1.112 0-2.06-.246-2.845-.739a4.912 4.912 0 0 1-1.807-2.037c-.413-.858-.623-1.83-.629-2.915.006-1.104.223-2.083.649-2.935a4.893 4.893 0 0 1 1.837-2.016c.792-.493 1.733-.74 2.825-.74 1.224 0 2.259.31 3.105.93.852.612 1.407 1.45 1.667 2.515l-2.396.649c-.187-.579-.496-1.028-.929-1.348a2.389 2.389 0 0 0-1.477-.489c-.626 0-1.142.15-1.548.45-.405.292-.705.698-.898 1.217-.193.52-.29 1.108-.29 1.767 0 1.025.23 1.854.689 2.486.46.632 1.142.948 2.047.948.639 0 1.141-.146 1.507-.439.373-.293.653-.715.839-1.268l2.456.55c-.333 1.098-.915 1.943-1.747 2.535-.832.586-1.85.879-3.055.879Zm13.122-.3a9.83 9.83 0 0 1-2.097.17c-.679-.013-1.288-.136-1.827-.37a2.535 2.535 0 0 1-1.228-1.127 3.214 3.214 0 0 1-.389-1.428 62.044 62.044 0 0 1-.02-1.647v-9.375h2.396v9.235c0 .432.003.812.01 1.138.013.326.083.592.21.799.239.399.622.622 1.148.669.525.046 1.124.02 1.797-.08v2.016Zm-7.518-8.895v-1.887h7.518v1.887h-7.518Zm10.036-3.524V41.24h2.406v2.206h-2.406Zm0 12.42V45.082h2.406v10.782h-2.406Zm8.311 0-3.913-10.783h2.406l2.715 7.817 2.706-7.817h2.416l-3.914 10.782h-2.416Zm8.321-12.42V41.24h2.406v2.206h-2.406Zm0 12.42V45.082h2.406v10.782h-2.406Zm11.716 0a9.83 9.83 0 0 1-2.097.169c-.679-.013-1.288-.136-1.827-.37a2.535 2.535 0 0 1-1.228-1.127 3.214 3.214 0 0 1-.389-1.428 62.044 62.044 0 0 1-.02-1.647v-9.375h2.396v9.235c0 .432.003.812.01 1.138.013.326.083.592.21.799.239.399.622.622 1.148.669.526.046 1.125.02 1.797-.08v2.016Zm-7.518-8.896v-1.887h7.518v1.887h-7.518Zm10.961 13.687 2.077-5.7.04 1.677-4.702-11.55h2.505l3.335 8.545h-.639l3.244-8.546h2.406l-6.01 15.574h-2.256Z"/><defs><clipPath id="a"><path fill="#fff" d="M23.613 264.149H472.25v28.134H23.613z"/></clipPath><clipPath id="b"><path fill="#fff" d="M23.613 207.885h447.16v28.134H23.613z"/></clipPath></defs></svg>