<svg xmlns="http://www.w3.org/2000/svg" width="41" height="40" fill="none"><path fill="#D6EAFD" d="m5.19 9.5 14-6.5h7l9 6 4.5 9.5-4.5 13.5-11 6-12-1.5L1.69 24l3.5-14.5Z"/><path fill="#3398F6" d="M20.69 0c11.048 0 20 8.952 20 20s-8.952 20-20 20c-11.049 0-20-8.952-20-20s8.951-20 20-20Zm0 36.129c8.87 0 16.129-7.177 16.129-16.129 0-8.871-7.259-16.129-16.13-16.129-8.951 0-16.128 7.258-16.128 16.129A16.073 16.073 0 0 0 20.69 36.129Zm4.919-8.387-6.855-5c-.242-.161-.323-.484-.323-.726V8.71c0-.484.404-.968.968-.968h2.58c.485 0 .969.484.969.968v11.45l5.322 3.952c.484.323.565.887.242 1.37L26.98 27.5c-.323.484-.887.564-1.371.242Z"/></svg>